<svg width="80" height="88" viewBox="0 0 80 88" fill="none" xmlns="http://www.w3.org/2000/svg">
<g clip-path="url(#clip0_3991_123324)">
<path d="M51.1289 61.8906C51.1289 61.8906 53.046 62.5013 55.9835 67.2489C61.3962 75.9926 62.5625 80.4282 62.7083 83.104C63.0233 88.8683 58.7502 90.1886 56.9856 88.6737C54.7351 86.7428 57.475 86.164 56.0858 82.3826C55.3434 80.3628 54.0145 77.5562 54.0145 77.5562" fill="#FEECD2"/>
<path d="M58.6559 89.8439C57.8867 89.8439 57.1611 89.599 56.6014 89.1192C55.1569 87.8794 55.4167 86.9131 55.668 85.9787C55.8875 85.1617 56.1372 84.2357 55.5323 82.5866C54.8067 80.6137 53.4946 77.8356 53.4812 77.8088C53.3421 77.5152 53.4678 77.1662 53.7593 77.027C54.0526 76.8877 54.4012 77.0136 54.5402 77.3055C54.5955 77.4212 55.8892 80.1591 56.6332 82.1823C57.3672 84.182 57.0404 85.3983 56.8008 86.2857C56.5679 87.148 56.4807 87.4718 57.3655 88.2301C57.9805 88.7585 58.9977 88.8139 59.8976 88.3693C60.6316 88.007 62.319 86.7705 62.1213 83.1385C61.9252 79.5568 59.7552 74.4619 55.4837 67.5602C52.7505 63.1464 50.9558 62.4553 50.9391 62.4485C50.6307 62.3496 50.4648 62.0224 50.5637 61.7121C50.6626 61.4034 50.9977 61.234 51.3061 61.3329C51.5239 61.4017 53.5147 62.1483 56.4807 66.9412C62.3123 76.361 63.1619 80.659 63.2926 83.0731C63.5289 87.4047 61.3605 88.9565 60.4171 89.4212C59.8423 89.7047 59.2373 89.8456 58.6575 89.8456L58.6559 89.8439Z" fill="#231815"/>
<path d="M56.9342 81.5938C56.9342 81.5938 54.3083 83.4207 55.1512 84.7057C55.9941 85.9924 57.3347 85.7744 57.7989 84.8819" fill="#FEECD2"/>
<path d="M56.6016 86.1991C55.8542 86.1991 55.1521 85.7763 54.6628 85.0281C53.54 83.3136 56.2849 81.3323 56.6016 81.1126C56.868 80.928 57.2334 80.9935 57.4177 81.2602C57.602 81.5269 57.5367 81.8927 57.2719 82.0772C56.5212 82.6023 55.2727 83.8169 55.6448 84.3856C55.9263 84.8167 56.2866 85.0432 56.6435 85.0248C56.915 85.0113 57.1546 84.857 57.282 84.6121C57.4311 84.3252 57.7864 84.2128 58.0729 84.3621C58.3595 84.5114 58.4717 84.8671 58.3226 85.1539C58.0059 85.7629 57.3859 86.1622 56.7021 86.1974C56.6686 86.1974 56.6351 86.1991 56.6033 86.1991H56.6016Z" fill="#231815"/>
<path d="M56.6016 86.1991C55.8542 86.1991 55.1521 85.7763 54.6628 85.0281C53.54 83.3136 56.2849 81.3323 56.6016 81.1126C56.868 80.928 57.2334 80.9935 57.4177 81.2602C57.602 81.5269 57.5367 81.8927 57.2719 82.0772C56.5212 82.6023 55.2727 83.8169 55.6448 84.3856C55.9263 84.8167 56.2866 85.0432 56.6435 85.0248C56.915 85.0113 57.1546 84.857 57.282 84.6121C57.4311 84.3252 57.7864 84.2128 58.0729 84.3621C58.3595 84.5114 58.4717 84.8671 58.3226 85.1539C58.0059 85.7629 57.3859 86.1622 56.7021 86.1974C56.6686 86.1974 56.6351 86.1991 56.6033 86.1991H56.6016Z" fill="#221E1F"/>
<path d="M28.4752 61.6797L24.7383 65.7395L25.9934 76.3202L54.0269 76.5886L53.432 64.8353L50.719 62.1612L28.4752 61.6797Z" fill="#FEECD2"/>
<path d="M28.3733 61.8906C28.3733 61.8906 26.4562 62.5013 23.5186 67.2489C18.106 75.9926 16.9397 80.4282 16.7939 83.104C16.4788 88.8683 20.752 90.1886 22.5165 88.6737C24.7671 86.7428 22.0272 86.164 23.4164 82.3826C24.1588 80.3628 25.992 77.5562 25.992 77.5562" fill="#FEECD2"/>
<path d="M20.8444 89.8448C20.2629 89.8448 19.6596 89.7056 19.0849 89.4204C18.1414 88.954 15.973 87.4039 16.2093 83.0723C16.34 80.6599 17.1896 76.3619 23.0212 66.9404C25.9872 62.1491 27.9797 61.4026 28.1959 61.3321C28.5042 61.2348 28.8343 61.4043 28.9332 61.713C29.0304 62.0183 28.8645 62.3454 28.5629 62.4477C28.5092 62.4679 26.7229 63.1893 24.0182 67.5577C19.7468 74.4594 17.575 79.5543 17.3806 83.136C17.1829 86.7698 18.8704 88.0045 19.6043 88.3668C20.5042 88.8114 21.5214 88.7544 22.1364 88.2276C23.0195 87.4693 22.9324 87.1472 22.7011 86.2832C22.4615 85.3958 22.1347 84.1795 22.8687 82.1798C23.6261 80.1197 25.4275 77.3516 25.5029 77.2342C25.6806 76.9624 26.0442 76.8869 26.314 77.0648C26.5855 77.2426 26.6609 77.6066 26.4833 77.8767C26.4648 77.9036 24.6785 80.6515 23.968 82.5858C23.3613 84.2349 23.611 85.1609 23.8322 85.9779C24.0836 86.9124 24.345 87.8787 22.8988 89.1184C22.3391 89.5982 21.6135 89.8431 20.8444 89.8431V89.8448Z" fill="#231815"/>
<path d="M36.8707 98.7279C36.8321 101.061 38.1141 102.618 36.8539 103.642C35.5921 104.665 30.6101 104.665 29.1958 103.437C27.7814 102.209 27.6675 100.08 27.5519 98.8923C27.4362 97.7045 26.9201 95.2938 26.6202 92.7522C26.3202 90.2106 25.293 89.2158 25.293 82.8292C25.293 74.8957 27.6692 69.4502 28.3998 67.375" fill="#42210B"/>
<path d="M33.2516 104.983C31.4955 104.983 29.6806 104.636 28.8126 103.882C27.3044 102.572 27.1084 100.442 26.9894 99.17L26.9693 98.952C26.919 98.4403 26.7866 97.6602 26.6341 96.756C26.4431 95.6353 26.2068 94.2395 26.0392 92.8236C25.9488 92.057 25.7896 91.4396 25.6036 90.7266C25.2047 89.1849 24.707 87.2657 24.707 82.8301C24.707 75.6264 26.6408 70.4342 27.5692 67.9396C27.6764 67.6511 27.772 67.3978 27.8474 67.1814C27.9546 66.876 28.2898 66.715 28.5964 66.8223C28.9014 66.9297 29.0623 67.2652 28.955 67.5722C28.8763 67.7937 28.7808 68.0537 28.6702 68.3506C27.7653 70.7815 25.8817 75.8395 25.8817 82.8318C25.8817 87.1164 26.3375 88.8779 26.7397 90.433C26.9274 91.1561 27.1033 91.8406 27.2039 92.6861C27.3681 94.0735 27.6027 95.4525 27.7904 96.5597C27.9479 97.4857 28.0837 98.2859 28.1373 98.8379L28.1574 99.061C28.2646 100.229 28.4289 101.995 29.5801 102.995C30.8017 104.057 35.4519 104.025 36.4842 103.188C36.9383 102.819 36.8847 102.378 36.6182 101.212C36.4624 100.532 36.268 99.6851 36.2847 98.7221C36.2898 98.4017 36.5512 98.145 36.8713 98.145C36.8746 98.145 36.878 98.145 36.8813 98.145C37.2047 98.1501 37.4628 98.4168 37.4578 98.7422C37.4444 99.5626 37.6136 100.301 37.7628 100.95C38.0208 102.076 38.2873 103.238 37.2248 104.101C36.5194 104.673 34.9106 104.985 33.2516 104.985V104.983Z" fill="#231815"/>
<path d="M22.5639 81.5938C22.5639 81.5938 25.1881 83.4207 24.3469 84.7057C23.504 85.9924 22.1634 85.7744 21.6992 84.8819" fill="#FEECD2"/>
<path d="M22.8989 86.1991C22.8654 86.1991 22.8319 86.1991 22.8 86.1974C22.118 86.1639 21.498 85.7629 21.1796 85.1539C21.0305 84.8671 21.1411 84.5114 21.4293 84.3621C21.7158 84.2128 22.0711 84.3235 22.2202 84.6121C22.3476 84.857 22.5855 85.0113 22.8587 85.0248C23.2139 85.0399 23.5759 84.8167 23.8574 84.3856C24.2311 83.8135 22.9827 82.6006 22.2303 82.0772C21.9638 81.8927 21.8985 81.5269 22.0828 81.2602C22.2672 80.9935 22.6341 80.928 22.8989 81.1126C23.2156 81.3323 25.9605 83.3153 24.8377 85.0298C24.3484 85.778 23.6463 86.2008 22.8989 86.2008V86.1991Z" fill="#231815"/>
<path d="M22.8989 86.1991C22.8654 86.1991 22.8319 86.1991 22.8 86.1974C22.118 86.1639 21.498 85.7629 21.1796 85.1539C21.0305 84.8671 21.1411 84.5114 21.4293 84.3621C21.7158 84.2128 22.0711 84.3235 22.2202 84.6121C22.3476 84.857 22.5855 85.0113 22.8587 85.0248C23.2156 85.0415 23.5759 84.8167 23.8574 84.3856C24.2311 83.8135 22.9827 82.6006 22.2303 82.0772C21.9638 81.8927 21.8985 81.5269 22.0828 81.2602C22.2672 80.9935 22.6341 80.928 22.8989 81.1126C23.2156 81.3323 25.9605 83.3153 24.8377 85.0298C24.3484 85.778 23.6463 86.2008 22.8989 86.2008V86.1991Z" fill="#221E1F"/>
<path d="M51.2788 67.3906C52.0111 69.3769 54.5398 75.0003 54.5398 82.8448C54.5398 89.2314 53.5176 90.0736 53.2126 92.7678C52.9378 95.1953 52.3949 97.7218 52.2809 98.9079C52.167 100.096 52.0513 102.225 50.637 103.453C49.2227 104.681 44.2407 104.681 42.9789 103.657C41.717 102.634 42.999 101.077 42.9621 98.7435C42.9236 96.4099 43.0006 91.2765 43.0006 91.2765" fill="#42210B"/>
<path d="M46.5829 105.003C44.9222 105.003 43.3152 104.692 42.6097 104.119C41.5473 103.256 41.8137 102.092 42.0701 100.966C42.2192 100.316 42.3885 99.5791 42.3751 98.7587C42.3382 96.4419 42.412 91.3252 42.4136 91.2732C42.4187 90.9495 42.6868 90.6877 43.0085 90.6945C43.3319 90.6995 43.5917 90.9662 43.5867 91.29C43.5867 91.342 43.5112 96.4403 43.5481 98.7386C43.5632 99.7015 43.3705 100.549 43.2146 101.228C42.9482 102.396 42.8946 102.835 43.3487 103.204C44.3826 104.043 49.0328 104.073 50.2528 103.011C51.4057 102.01 51.5682 100.245 51.6772 99.0758L51.6973 98.8527C51.7492 98.3058 51.8866 97.5005 52.0458 96.5695C52.2486 95.3834 52.4782 94.0379 52.629 92.7026C52.7329 91.7799 52.9172 91.0669 53.1133 90.312C53.5071 88.7904 53.9528 87.0675 53.9528 82.8466C53.9528 75.913 51.9637 70.7879 51.0069 68.3252C50.8979 68.045 50.8024 67.8001 50.727 67.5954C50.6147 67.2918 50.7706 66.9529 51.0739 66.8405C51.3772 66.7298 51.7157 66.8841 51.828 67.1878C51.9017 67.3874 51.9939 67.6256 52.0994 67.8991C53.0814 70.4289 55.1242 75.6916 55.1242 82.8449C55.1242 87.2151 54.6583 89.0168 54.2477 90.6055C54.055 91.3504 53.8891 91.9946 53.7936 92.8351C53.6378 94.204 53.3965 95.625 53.2004 96.7674C53.0446 97.6767 52.9105 98.4618 52.8619 98.9668L52.8418 99.1832C52.7245 100.456 52.5284 102.587 51.0186 103.897C50.1522 104.651 48.3374 104.998 46.5795 104.998L46.5829 105.003Z" fill="#231815"/>
<path d="M46.5829 105.003C44.9222 105.003 43.3152 104.692 42.6097 104.119C41.5473 103.256 41.8137 102.092 42.0701 100.966C42.2192 100.316 42.3885 99.5791 42.3751 98.7587C42.3382 96.4419 42.412 91.3252 42.4136 91.2732C42.4187 90.9495 42.6784 90.6911 43.0085 90.6945C43.3319 90.6995 43.5917 90.9662 43.5867 91.29C43.5867 91.342 43.5112 96.4403 43.5481 98.7386C43.5632 99.7015 43.3705 100.549 43.2146 101.228C42.9482 102.396 42.8946 102.835 43.3487 103.204C44.381 104.043 49.0328 104.073 50.2528 103.011C51.4057 102.01 51.5682 100.245 51.6772 99.0758L51.6973 98.8527C51.7492 98.3058 51.8866 97.5005 52.0458 96.5695C52.2486 95.3834 52.4782 94.0379 52.629 92.7026C52.7329 91.7799 52.9172 91.0669 53.1133 90.312C53.5071 88.7904 53.9528 87.0675 53.9528 82.8466C53.9528 75.913 51.9637 70.7879 51.0069 68.3252C50.8979 68.045 50.8024 67.8001 50.727 67.5954C50.6147 67.2918 50.7706 66.9529 51.0739 66.8405C51.3772 66.7298 51.7157 66.8841 51.828 67.1878C51.9017 67.3874 51.9939 67.6256 52.0994 67.8991C53.0814 70.4289 55.1242 75.6916 55.1242 82.8449C55.1242 87.2151 54.6583 89.0168 54.2477 90.6055C54.055 91.3504 53.8891 91.9946 53.7936 92.8351C53.6378 94.204 53.3965 95.625 53.2004 96.7674C53.0446 97.6767 52.9105 98.4618 52.8619 98.9668L52.8418 99.1832C52.7245 100.456 52.5284 102.587 51.0186 103.897C50.1522 104.651 48.3374 104.998 46.5795 104.998L46.5829 105.003Z" fill="#221E1F"/>
<path d="M26.2318 62.4375L21.7039 69.1312L17.4375 79.5961L24.236 80.5054L26.3826 74.882L25.0973 84.3186C25.0973 84.3186 31.2322 86.1673 38.9272 86.4793C46.6222 86.7914 54.3826 84.3186 54.3826 84.3186L53.7324 75.1639L55.2004 80.5054L61.9888 79.3528L57.8045 68.5037L53.1308 62.4375H26.2352H26.2318Z" fill="#C3E6F4"/>
<path d="M39.7364 86.4861C30.6287 86.4861 25.0938 84.3203 25.0938 84.3203C25.201 91.1213 27.5521 99.3551 27.5521 99.3551C32.8658 99.5664 36.8374 98.9826 36.8374 98.9826C36.9396 93.5723 37.4557 91.4384 37.4557 91.4384C38.2517 91.4099 41.2228 91.4099 42.0188 91.4384C42.0188 91.4384 42.5332 93.5723 42.6371 98.9826C42.6371 98.9826 46.6086 99.5648 51.9224 99.3551C51.9224 99.3551 54.2735 91.1213 54.379 84.3203C54.379 84.3203 48.8457 86.4861 39.7364 86.4861Z" fill="#34404B"/>
<path d="M49.5837 99.9897C45.4882 99.9897 42.6679 99.5837 42.5506 99.5652C42.2674 99.5233 42.0546 99.2834 42.0496 98.9948C41.9742 95.0692 41.6792 92.88 41.5318 92.016C41.086 92.0093 40.4425 92.0059 39.7371 92.0059C39.0316 92.0059 38.3881 92.0093 37.9423 92.016C37.7949 92.88 37.4983 95.0692 37.4245 98.9948C37.4195 99.2817 37.2067 99.5233 36.9235 99.5652C36.8062 99.582 33.9859 99.9897 29.8904 99.9897C29.1011 99.9897 28.3068 99.9746 27.5293 99.9427C27.2762 99.9326 27.0584 99.7615 26.988 99.5166C26.8908 99.1777 24.6151 91.1302 24.5079 84.3308C24.5045 84.1346 24.6001 83.9517 24.7593 83.8393C24.9201 83.7269 25.1262 83.7034 25.3072 83.7756C25.3609 83.7974 30.8623 85.9011 39.7354 85.9011C48.6101 85.9011 54.1099 83.7957 54.1652 83.7756C54.3462 83.7051 54.5523 83.7286 54.7132 83.841C54.874 83.9534 54.9679 84.1362 54.9645 84.3325C54.859 91.0396 52.585 99.1643 52.4861 99.5132C52.4777 99.5451 52.466 99.577 52.4509 99.6088C52.3571 99.8068 52.1627 99.936 51.9432 99.9444C51.1673 99.9746 50.373 99.9914 49.582 99.9914L49.5837 99.9897ZM43.2125 98.4664C44.1895 98.5822 46.5506 98.8153 49.5854 98.8153C50.2155 98.8153 50.8472 98.8053 51.4706 98.7851C51.918 97.1176 53.5368 90.7662 53.7681 85.1546C51.8946 85.7535 46.9411 87.0754 39.7371 87.0754C32.533 87.0754 27.5779 85.7518 25.7061 85.1546C25.939 90.7611 27.5594 97.1293 28.0052 98.7851C28.6286 98.8053 29.2603 98.8153 29.8904 98.8153C32.9252 98.8153 35.2846 98.5822 36.2632 98.4664C36.3872 93.4252 36.8648 91.3886 36.8866 91.3013C36.9486 91.0446 37.1732 90.8618 37.4363 90.8517C37.8837 90.8349 38.9193 90.8299 39.7387 90.8299C40.5582 90.8299 41.5938 90.8349 42.0412 90.8517C42.3043 90.8618 42.5288 91.0446 42.5908 91.3013C42.611 91.3886 43.0902 93.4235 43.2142 98.4664H43.2125Z" fill="#231815"/>
<path d="M17.4363 79.6014C17.0325 80.4939 17.0442 80.7791 16.9453 81.7538C16.9453 81.7538 22.234 81.5994 24.3035 82.9281L24.7358 81.0123C24.7358 81.0123 22.3244 79.0411 17.4346 79.5997L17.4363 79.6014Z" fill="#C3E6F4"/>
<path d="M24.3036 83.5157C24.193 83.5157 24.0824 83.4839 23.9869 83.4235C22.415 82.4152 18.5893 82.3364 17.4532 82.3364C17.1482 82.3364 16.9672 82.3414 16.9622 82.3414C16.8013 82.3465 16.6304 82.2777 16.5164 82.1552C16.4025 82.0327 16.3455 81.865 16.3623 81.6955L16.3907 81.3969C16.4645 80.6269 16.5013 80.2411 16.9018 79.3586C16.9873 79.1707 17.1649 79.0416 17.3694 79.0181C17.971 78.9493 18.5675 78.9141 19.1423 78.9141C23.0501 78.9141 25.0242 80.491 25.1063 80.5581C25.2789 80.699 25.356 80.9255 25.3074 81.1419L24.875 83.0578C24.8331 83.244 24.7024 83.3983 24.5248 83.4721C24.4527 83.5023 24.3773 83.5157 24.3019 83.5157H24.3036ZM17.5923 81.1621C19.0267 81.1688 22.0112 81.2845 23.8964 82.0646L24.074 81.2761C23.4456 80.897 21.7967 80.0901 19.1406 80.0901C18.7167 80.0901 18.2793 80.1102 17.8352 80.1521C17.6811 80.5346 17.6325 80.7829 17.5906 81.1637L17.5923 81.1621Z" fill="#231815"/>
<path d="M61.9952 79.5945C62.3991 80.487 62.3874 80.7722 62.4862 81.7469C62.4862 81.7469 57.1976 81.5926 55.2956 82.5857L54.8633 80.6699C54.8633 80.6699 57.1071 79.0342 61.9969 79.5928L61.9952 79.5945Z" fill="#C3E6F4"/>
<path d="M55.2958 83.1797C55.212 83.1797 55.1282 83.1612 55.0494 83.126C54.8835 83.0488 54.7645 82.9012 54.7243 82.7234L54.292 80.8076C54.24 80.5794 54.3288 80.3412 54.5182 80.2036C54.5919 80.1499 56.3515 78.8984 60.0247 78.8984C60.6799 78.8984 61.367 78.9387 62.0641 79.0192C62.2685 79.0427 62.4462 79.1719 62.5316 79.3598C62.9321 80.2422 62.969 80.6297 63.0427 81.3998L63.0712 81.6967C63.088 81.8645 63.0327 82.0322 62.917 82.1564C62.8014 82.2805 62.6372 82.3476 62.4713 82.3426C62.4679 82.3426 62.1747 82.3342 61.7105 82.3342C58.8014 82.3342 56.5056 82.6261 55.5689 83.1159C55.4834 83.1596 55.3913 83.1831 55.2974 83.1831L55.2958 83.1797ZM55.5287 80.9653L55.7147 81.7906C57.3988 81.2471 60.1085 81.1582 61.7072 81.1582C61.7524 81.1582 61.796 81.1582 61.8379 81.1582C61.796 80.779 61.7474 80.5307 61.5932 80.1483C61.0553 80.0962 60.5291 80.0711 60.023 80.0711C57.5882 80.0711 56.1303 80.6549 55.5287 80.9653Z" fill="#231815"/>
<path d="M54.3034 82.7109C54.5095 83.5716 54.3872 85.3163 54.3872 85.3163C54.3872 85.3163 49.9649 87.1063 39.8869 87.1063C29.809 87.1063 25.3867 85.6283 25.3867 85.6283C25.3851 84.8214 25.4839 83.1874 25.4839 83.1874C25.4839 83.1874 29.8409 84.199 39.5183 84.199C49.1957 84.199 54.3034 82.7109 54.3034 82.7109Z" fill="#655558"/>
<path d="M39.8897 87.6142C29.8469 87.6142 25.4146 86.1715 25.2303 86.1094C25.0258 86.0406 24.8867 85.8494 24.8867 85.633C24.8851 84.8193 24.9806 83.2273 24.9856 83.1602C24.994 83.0125 25.0677 82.8767 25.1867 82.7877C25.3057 82.6988 25.4582 82.667 25.6006 82.7005C25.6442 82.7106 30.0329 83.6987 39.521 83.6987C49.0091 83.6987 54.1151 82.2459 54.1653 82.2308C54.2977 82.1922 54.4385 82.2107 54.5575 82.2794C54.6764 82.3482 54.7619 82.464 54.7937 82.5982C55.0149 83.5242 54.896 85.2824 54.8909 85.3562C54.8775 85.5474 54.7552 85.7152 54.5776 85.7873C54.3932 85.8611 49.9492 87.6126 39.8897 87.6126V87.6142ZM25.8972 85.2555C27.1172 85.5843 31.5813 86.6077 39.8897 86.6077C48.198 86.6077 52.7711 85.3377 53.9056 84.9603C53.924 84.5224 53.9358 83.8698 53.8905 83.343C52.3203 83.7222 47.4741 84.7069 39.521 84.7069C31.5679 84.7069 27.4389 84.0678 25.9575 83.7993C25.9358 84.2188 25.9089 84.7942 25.8972 85.2572V85.2555Z" fill="#231815"/>
<path d="M31.1406 84.5391V87.2232L33.0962 87.391V84.5391H31.1406Z" fill="#34404B"/>
<path d="M33.0972 87.8062C33.0855 87.8062 33.0737 87.8062 33.062 87.8062L31.1064 87.6385C30.8902 87.62 30.7227 87.4389 30.7227 87.2208V84.5366C30.7227 84.3051 30.9103 84.1172 31.1416 84.1172H33.0972C33.3284 84.1172 33.5161 84.3051 33.5161 84.5366V87.3885C33.5161 87.506 33.4675 87.6184 33.3804 87.6972C33.3033 87.7677 33.2011 87.8079 33.0972 87.8079V87.8062ZM31.5622 86.8332L32.6799 86.9289V84.9526H31.5622V86.8332Z" fill="#231815"/>
<path d="M48.647 84.5391V87.2232L46.6914 87.391V84.5391H48.647Z" fill="#34404B"/>
<path d="M46.6924 87.8079C46.5885 87.8079 46.4863 87.7693 46.4092 87.6972C46.322 87.6184 46.2734 87.506 46.2734 87.3885V84.5366C46.2734 84.3051 46.4611 84.1172 46.6924 84.1172H48.648C48.8792 84.1172 49.0669 84.3051 49.0669 84.5366V87.2208C49.0669 87.4389 48.901 87.62 48.6832 87.6385L46.7276 87.8063C46.7158 87.8063 46.7041 87.8063 46.6924 87.8063V87.8079ZM47.1113 84.956V86.9322L48.229 86.8366V84.956H47.1113Z" fill="#231815"/>
<path d="M37.7203 84.4219H42.0655C42.3135 84.4219 42.5163 84.6249 42.5163 84.8732V87.2201C42.5163 87.4701 42.3135 87.6714 42.0655 87.6714H37.7203C37.4706 87.6714 37.2695 87.4684 37.2695 87.2201V84.8732C37.2695 84.6249 37.4723 84.4219 37.7203 84.4219Z" fill="#DAD6D7"/>
<path d="M42.0643 88.1702H37.7191C37.1929 88.1702 36.7656 87.7424 36.7656 87.2156V84.8686C36.7656 84.3419 37.1929 83.9141 37.7191 83.9141H42.0643C42.5905 83.9141 43.0178 84.3419 43.0178 84.8686V87.2156C43.0178 87.7424 42.5905 88.1702 42.0643 88.1702ZM37.7711 87.1636H42.0124V84.9206H37.7711V87.1636Z" fill="#231815"/>
<path d="M41.0427 84.5382C41.0427 84.5382 33.9845 85.6958 28.4679 84.0752C23.7658 82.6929 24.969 81.7802 25.2891 80.3442C25.5186 79.3075 25.8303 76.739 26.4018 74.0028C26.9413 71.421 27.7524 68.6328 27.7524 68.6328" fill="#C3E6F4"/>
<path d="M35.4771 85.5317C33.2417 85.5317 30.651 85.3287 28.3049 84.6392C26.0276 83.9698 24.9283 83.3726 24.5127 82.5791C24.1709 81.9248 24.3753 81.3108 24.5546 80.7689C24.615 80.5878 24.677 80.4015 24.7172 80.2187C24.8077 79.8144 24.9116 79.15 25.0456 78.3112C25.2434 77.0665 25.488 75.518 25.8299 73.884C26.3678 71.3106 27.1822 68.4989 27.1906 68.4704C27.2811 68.1583 27.6078 67.9788 27.9178 68.0711C28.2295 68.1617 28.4072 68.4871 28.3167 68.7992C28.3083 68.8277 27.5073 71.5958 26.9778 74.1256C26.6426 75.7311 26.3996 77.2644 26.2036 78.4958C26.0678 79.3547 25.9606 80.0341 25.8617 80.4737C25.8081 80.7169 25.7327 80.9417 25.6673 81.1397C25.5182 81.5876 25.4461 81.8325 25.5517 82.0355C25.7126 82.3442 26.3778 82.8509 28.6351 83.5135C33.9606 85.0787 40.8797 83.9715 40.9484 83.9598C41.2702 83.9077 41.5701 84.1242 41.6221 84.4446C41.674 84.765 41.4579 85.067 41.1378 85.119C40.9669 85.1475 38.5588 85.5317 35.4754 85.5317H35.4771Z" fill="#231815"/>
<path d="M39.2812 84.5374C39.2812 84.5374 45.8368 85.6949 51.3533 84.0744C56.0554 82.692 54.8523 81.7794 54.5322 80.3433C54.3211 79.3921 54.0211 77.0955 53.4111 74.5824C52.7291 71.7758 51.7421 68.7812 51.7421 68.7812" fill="#C3E6F4"/>
<path d="M44.5323 85.5293C41.5847 85.5293 39.3392 85.1434 39.18 85.1149C38.8616 85.0578 38.6488 84.7542 38.7041 84.4354C38.7594 84.1167 39.0643 83.9036 39.3827 83.959C39.4464 83.9708 45.8729 85.0729 51.1867 83.5111C53.4422 82.8484 54.1075 82.3418 54.2684 82.0331C54.3739 81.8301 54.3019 81.5869 54.1527 81.1373C54.0874 80.9393 54.012 80.7128 53.9583 80.4713C53.8829 80.1324 53.8008 79.6492 53.6953 79.0386C53.5009 77.9062 53.2361 76.3544 52.839 74.7221C52.1703 71.9691 51.1934 68.9964 51.1833 68.9662C51.0811 68.6592 51.2487 68.327 51.557 68.2247C51.8637 68.124 52.1955 68.2901 52.2977 68.5988C52.3077 68.629 53.2998 71.647 53.9801 74.4453C54.3857 76.1179 54.6555 77.6915 54.8515 78.8406C54.9537 79.4362 55.0342 79.9059 55.1029 80.2163C55.1448 80.4008 55.2051 80.587 55.2654 80.7682C55.4447 81.3101 55.6492 81.9241 55.3073 82.5783C54.8917 83.3718 53.7941 83.9691 51.5168 84.6384C49.1708 85.3279 46.6655 85.5309 44.5306 85.5309L44.5323 85.5293Z" fill="#231815"/>
<path d="M39.1924 84.9562C38.9611 84.9562 38.7734 84.7683 38.7734 84.5368V80.185C38.7734 79.9535 38.9611 79.7656 39.1924 79.7656C39.4236 79.7656 39.6113 79.9535 39.6113 80.185V84.5368C39.6113 84.7683 39.4236 84.9562 39.1924 84.9562Z" fill="#231815"/>
<path d="M40.8078 84.8743C40.6235 84.8743 40.4727 84.7233 40.4727 84.5388V80.1871C40.4727 80.0025 40.6235 79.8516 40.8078 79.8516C40.9921 79.8516 41.143 80.0025 41.143 80.1871V84.5388C41.143 84.7233 40.9921 84.8743 40.8078 84.8743Z" fill="#231815"/>
<path d="M43.0829 78.7354L41.1843 68.3594H38.3908L36.4922 78.7354L39.7867 81.9665L43.0829 78.7354Z" fill="#005DA7"/>
<path d="M39.7856 82.3929C39.68 82.3929 39.5744 82.3526 39.4923 82.2738L36.1961 79.0427C36.0973 78.9454 36.052 78.8045 36.0771 78.6669L37.9758 68.2892C38.0126 68.0896 38.1852 67.9453 38.388 67.9453H41.1815C41.3842 67.9453 41.5568 68.0896 41.5937 68.2892L43.4923 78.6669C43.5174 78.8045 43.4722 78.9454 43.3733 79.0427L40.0771 82.2738C39.995 82.3543 39.8895 82.3929 39.7839 82.3929H39.7856ZM36.9418 78.5981L39.7856 81.3863L42.6293 78.5981L40.8329 68.7841H38.7382L36.9418 78.5981Z" fill="#231815"/>
<path d="M37.1055 64.5078L38.1109 68.5089H41.4624L42.4678 64.5078H37.1055Z" fill="#005DA7"/>
<path d="M41.4628 68.9275H38.1113C37.9186 68.9275 37.7527 68.7967 37.7057 68.6105L36.7003 64.6077C36.6685 64.4819 36.6969 64.3493 36.7757 64.247C36.8545 64.1447 36.9768 64.0859 37.1058 64.0859H42.4682C42.5972 64.0859 42.7196 64.1463 42.7983 64.247C42.8771 64.3493 42.9056 64.4819 42.8737 64.6077L41.8683 68.6105C41.8214 68.7967 41.6538 68.9275 41.4628 68.9275ZM38.438 68.0887H41.136L41.9303 64.9247H37.6421L38.4364 68.0887H38.438Z" fill="#231815"/>
<path d="M37.0739 63.1716L40.0668 64.4668L36.5612 67.1509L33.3672 63.0156L37.0739 63.1716Z" fill="#C3E6F4"/>
<path d="M36.56 67.5681C36.4343 67.5681 36.3103 67.5127 36.2282 67.4053L33.0325 63.27C32.9336 63.1409 32.9169 62.9664 32.9923 62.8204C33.0677 62.6762 33.2135 62.5889 33.3827 62.594L37.0912 62.75C37.1431 62.7517 37.1934 62.7634 37.2403 62.7835L40.2315 64.0786C40.3672 64.1374 40.4628 64.2649 40.4812 64.4125C40.4996 64.5601 40.4376 64.7061 40.3203 64.7967L36.8163 67.4808C36.7409 67.5396 36.6504 67.5664 36.5616 67.5664L36.56 67.5681ZM34.2474 63.4697L36.6354 66.5615L39.2411 64.5651L36.9755 63.5837L34.2458 63.4697H34.2474Z" fill="#231815"/>
<path d="M42.4912 63.1716L39.5 64.4668L43.004 67.1509L46.1996 63.0156L42.4912 63.1716Z" fill="#C3E6F4"/>
<path d="M43.0049 67.5741C42.9161 67.5741 42.8272 67.5456 42.7502 67.4885L39.2462 64.8044C39.1272 64.7138 39.0669 64.5678 39.0853 64.4202C39.1037 64.2726 39.1976 64.1451 39.335 64.0863L42.3262 62.7912C42.3731 62.7711 42.4234 62.7594 42.4753 62.7577L46.1821 62.6017C46.348 62.5983 46.4971 62.6839 46.5725 62.8281C46.6479 62.9724 46.6312 63.1486 46.5323 63.2777L43.3383 67.413C43.2562 67.5204 43.1322 67.5758 43.0065 67.5758L43.0049 67.5741ZM40.322 64.5712L42.9278 66.5675L45.3157 63.4757L42.5859 63.5898L40.3203 64.5712H40.322Z" fill="#231815"/>
<path d="M61.9857 79.9466C61.7344 79.9466 61.5031 79.7839 61.426 79.5323L61.3557 79.3024C60.5379 76.6317 59.3012 72.5954 55.9966 67.2572C53.2869 62.8803 51.0699 62.4844 51.0482 62.481C50.7264 62.4408 50.5035 62.1489 50.5437 61.8268C50.584 61.5047 50.8806 61.2782 51.2023 61.3168C51.3129 61.3302 53.9422 61.711 56.9937 66.6382C60.377 72.1055 61.6405 76.2291 62.4767 78.9585L62.5471 79.1884C62.6426 79.4987 62.4683 79.8275 62.1583 79.9215C62.1014 79.9399 62.0427 79.9483 61.9857 79.9483V79.9466Z" fill="#231815"/>
<path d="M17.5094 79.9618C17.4524 79.9618 17.3955 79.9535 17.3368 79.9367C17.0268 79.8411 16.8525 79.5139 16.948 79.2036L17.0184 78.9754C17.8747 76.1671 19.0494 72.322 22.4428 66.8396C25.4792 61.9342 28.1437 61.3387 28.256 61.3169C28.5743 61.2514 28.8827 61.4561 28.948 61.7749C29.0117 62.0902 28.8106 62.3989 28.4973 62.466C28.4436 62.4795 26.1512 63.0784 23.4399 67.4586C20.1252 72.8119 18.979 76.5731 18.1395 79.3193L18.0691 79.5491C17.992 79.8025 17.7591 79.9652 17.5077 79.9652L17.5094 79.9618Z" fill="#231815"/>
<path d="M39.9695 63.8488C48.7671 63.8488 62.3407 63.2616 67.0327 55.4608C71.7382 47.6397 67.7868 40.4461 67.2841 36.9231C66.7814 33.4002 67.9192 22.9034 65.4659 17.2783C62.282 9.98071 57.6486 6.39062 39.9695 6.39062C22.2904 6.39062 17.657 9.98071 14.473 17.2783C12.0164 22.9084 13.1593 33.3851 12.6549 36.9231C12.1521 40.4461 8.20074 47.6397 12.9062 55.4608C17.5983 63.2616 31.1718 63.8488 39.9695 63.8488Z" fill="#FEECD2"/>
<path d="M39.9708 64.4355C29.5662 64.4355 17.0282 63.4491 12.4049 55.7639C8.57076 49.389 10.285 43.4285 11.4178 39.4844C11.7161 38.4476 11.9742 37.5518 12.0747 36.8405C12.2272 35.7752 12.2239 33.9919 12.2189 31.9268C12.2105 27.3268 12.1987 21.0257 13.9348 17.0447C15.8267 12.7081 18.027 10.2537 21.531 8.56939C25.5108 6.65691 31.1966 5.80469 39.9692 5.80469C48.7417 5.80469 54.4275 6.65691 58.4074 8.56939C61.9114 10.2537 64.1116 12.7081 66.0035 17.0447C67.7396 21.024 67.7279 27.3335 67.7195 31.9402C67.7161 34.002 67.7128 35.7819 67.8636 36.8405C67.9658 37.5518 68.2222 38.4476 68.5205 39.4844C69.655 43.4285 71.3676 49.3907 67.5335 55.7639C62.9101 63.4508 50.3739 64.4355 39.9675 64.4355H39.9708ZM39.9708 6.97734C22.6554 6.97734 18.1258 10.3745 15.0123 17.5127C13.3734 21.2689 13.3852 27.4274 13.3935 31.9234C13.3969 34.0338 13.4003 35.8574 13.2377 37.0066C13.1254 37.7984 12.8573 38.7295 12.5473 39.8082C11.4698 43.5576 9.84097 49.2213 13.412 55.1566C17.732 62.3402 29.8762 63.2612 39.9725 63.2612C50.0689 63.2612 62.213 62.3402 66.5331 55.1566C70.1041 49.2213 68.4752 43.556 67.3977 39.8082C67.0877 38.7295 66.8196 37.7967 66.7073 37.0066C66.5448 35.8641 66.5481 34.0439 66.5515 31.9385C66.5599 27.4358 66.5699 21.2689 64.9327 17.5144C61.8175 10.3762 57.2897 6.97902 39.9725 6.97902L39.9708 6.97734Z" fill="#231815"/>
<path d="M39.9555 42.0156C39.4461 42.0156 38.8093 42.0156 38.0133 42.3981C37.2174 42.7806 37.1905 43.7486 38.0133 44.6293C38.697 45.3625 39.2869 45.4581 39.9555 45.4581C40.6241 45.4581 41.214 45.3625 41.8977 44.6293C42.7188 43.7486 42.6937 42.7806 41.8977 42.3981C41.1017 42.0156 40.4649 42.0156 39.9555 42.0156Z" fill="#231815"/>
<path d="M39.9562 49.7078C39.7719 49.7078 39.6211 49.5568 39.6211 49.3722V44.3511C39.6211 44.1666 39.7719 44.0156 39.9562 44.0156C40.1406 44.0156 40.2914 44.1666 40.2914 44.3511V49.3722C40.2914 49.5568 40.1406 49.7078 39.9562 49.7078Z" fill="#231815"/>
<path d="M36.9883 48.9058L39.9644 48.3438L43.9342 48.9712L43.2656 51.3718L38.1261 51.7124L36.9883 48.9058Z" fill="#EB613A"/>
<path d="M35.947 49.1499C35.947 49.1499 35.6118 54.0569 40.1313 54.0536C44.4966 54.0502 43.9336 48.9688 43.9336 48.9688" fill="#EB613A"/>
<path d="M43.2475 52.4473C43.2475 52.4473 42.0895 51.5078 39.9479 51.5078C37.8063 51.5078 36.707 52.3298 36.707 52.3298L37.4259 53.38L39.2692 54.0511L40.8578 53.9991L42.1448 53.5562L43.2475 52.449V52.4473Z" fill="#F3A49B"/>
<path d="M39.2729 54.3923C39.2343 54.3923 39.1958 54.3856 39.1589 54.3722L37.3156 53.7011C37.2502 53.6777 37.1933 53.634 37.153 53.5753L36.4342 52.5251C36.3319 52.3775 36.3654 52.1745 36.5096 52.0671C36.5582 52.0302 37.7228 51.1797 39.9499 51.1797C42.1769 51.1797 43.4086 52.151 43.4605 52.193C43.5343 52.2534 43.5795 52.3406 43.5845 52.4362C43.5896 52.5318 43.5544 52.6241 43.4874 52.6912L42.3847 53.7984C42.3495 53.8353 42.3043 53.8622 42.2557 53.879L40.9687 54.3219C40.9369 54.3336 40.905 54.3386 40.8715 54.3403L39.2829 54.3923C39.2829 54.3923 39.2762 54.3923 39.2712 54.3923H39.2729ZM37.6457 53.1073L39.3265 53.7196L40.7995 53.6709L41.9658 53.27L42.7199 52.5117C42.2607 52.2567 41.3156 51.8507 39.9515 51.8507C38.5875 51.8507 37.6223 52.2215 37.1899 52.4429L37.644 53.1073H37.6457Z" fill="#231815"/>
<path d="M40.1289 54.5537C38.7179 54.5537 37.5918 54.1125 36.779 53.2418C35.2927 51.6514 35.4418 49.2139 35.4485 49.1115C35.4669 48.8347 35.7049 48.625 35.9847 48.6435C36.2612 48.6619 36.4707 48.9018 36.4523 49.1786C36.4523 49.1988 36.3299 51.2908 37.518 52.5573C38.133 53.2133 39.0111 53.5455 40.1305 53.5455H40.1356C41.1561 53.5455 41.9521 53.2334 42.5017 52.6194C43.6714 51.3159 43.4418 49.0411 43.4384 49.0193C43.4083 48.7425 43.6077 48.4942 43.8842 48.464C44.1607 48.4338 44.407 48.6317 44.4389 48.9085C44.4506 49.0193 44.7237 51.6447 43.2541 53.2871C42.5051 54.1242 41.4577 54.5504 40.1372 54.552H40.1305L40.1289 54.5537Z" fill="#221E1F"/>
<path d="M35.9558 49.6039C35.696 49.6039 35.4765 49.4043 35.4547 49.1409C35.4329 48.8641 35.639 48.6208 35.9155 48.599C35.9273 48.599 37.055 48.505 37.9013 48.3155C38.7509 48.1242 39.8803 47.7082 39.8921 47.7032C40.001 47.6629 40.12 47.6612 40.2306 47.6998C40.2406 47.7031 41.2913 48.0655 42.1258 48.2266C42.9553 48.3859 43.949 48.4178 43.9591 48.4178C44.2373 48.4262 44.4551 48.6577 44.4467 48.9362C44.4384 49.2147 44.2021 49.4328 43.9289 49.4244C43.8854 49.4244 42.8464 49.3908 41.9365 49.2164C41.231 49.0805 40.4199 48.8238 40.0731 48.7097C39.7128 48.8389 38.8431 49.1358 38.1225 49.2986C37.2059 49.5049 36.0462 49.6005 35.9976 49.6039C35.9842 49.6039 35.9708 49.6039 35.9574 49.6039H35.9558Z" fill="#231815"/>
<path d="M25.5618 31.1089C25.302 31.1089 25.0456 30.9881 24.8814 30.7617C24.6099 30.3859 24.6954 29.8625 25.0708 29.5907C25.178 29.5135 27.7402 27.7067 30.9895 29.4045C31.4 29.6192 31.5592 30.1258 31.3448 30.5369C31.1303 30.9479 30.6242 31.1073 30.2136 30.8925C27.8709 29.6695 26.0695 30.9395 26.0511 30.9512C25.9019 31.0586 25.731 31.1106 25.5618 31.1106V31.1089Z" fill="#231815"/>
<path d="M54.2613 31.1106C54.0937 31.1106 53.9228 31.0603 53.7753 30.9546C53.6898 30.8942 51.9102 29.6897 49.6094 30.8925C49.1988 31.1072 48.6928 30.9479 48.4783 30.5369C48.2638 30.1258 48.423 29.6192 48.8335 29.4045C52.0828 27.7067 54.645 29.5135 54.7523 29.5907C55.1276 29.8625 55.2114 30.3859 54.9399 30.7617C54.7757 30.9881 54.5193 31.1089 54.2596 31.1089L54.2613 31.1106Z" fill="#231815"/>
<path d="M28.0827 41.1784C29.3904 41.1784 30.4505 40.1171 30.4505 38.808C30.4505 37.4988 29.3904 36.4375 28.0827 36.4375C26.775 36.4375 25.7148 37.4988 25.7148 38.808C25.7148 40.1171 26.775 41.1784 28.0827 41.1784Z" fill="#231815"/>
<path d="M51.7428 41.1784C53.0505 41.1784 54.1106 40.1171 54.1106 38.808C54.1106 37.4988 53.0505 36.4375 51.7428 36.4375C50.4351 36.4375 49.375 37.4988 49.375 38.808C49.375 40.1171 50.4351 41.1784 51.7428 41.1784Z" fill="#231815"/>
<path d="M19.2596 11.7739C19.6668 10.5661 20.0941 9.72055 21.0208 9.53266C21.0208 9.53266 17.2973 9.19881 13.8185 11.4871C8.17961 15.1963 3.44564 20.4942 1.25879 30.0817C-0.512471 37.8507 1.21187 43.4338 6.69323 44.2726C12.8449 45.2154 16.0891 37.1898 16.4226 35.8141C16.7544 34.4385 17.3912 33.4789 17.7129 27.2784C17.9961 21.8295 17.8805 18.7444 18.2626 15.822" fill="#FEECD2"/>
<path d="M7.69887 44.9399C7.34529 44.9399 6.97998 44.9131 6.60461 44.856C4.44793 44.5255 2.77721 43.5106 1.64106 41.8363C-0.153665 39.1958 -0.483787 35.0873 0.687558 29.9538C2.61466 21.5037 6.68504 15.4794 13.4969 10.9985C17.1065 8.62467 20.9138 8.9367 21.073 8.95013C21.3629 8.97697 21.5908 9.21183 21.6059 9.50206C21.6209 9.79396 21.4215 10.0523 21.1367 10.1094C20.5837 10.2218 20.2385 10.7066 19.8145 11.9631C19.7106 12.2701 19.3788 12.4362 19.0721 12.3322C18.7655 12.2282 18.5996 11.896 18.7035 11.589C18.866 11.1075 19.052 10.6093 19.3118 10.1731C17.9729 10.3174 16.0106 10.7485 14.1404 11.9782C7.50783 16.3417 3.71228 21.965 1.83042 30.2138C0.749561 34.9514 1.02773 38.8435 2.61131 41.1737C3.55811 42.5661 4.9607 43.4133 6.78224 43.6934C12.3893 44.5524 15.5112 37.087 15.853 35.6778C15.9184 35.4077 15.9938 35.1561 16.0742 34.8893C16.4094 33.767 16.8702 32.2303 17.1283 27.2495C17.2406 25.0804 17.2892 23.2987 17.3327 21.7268C17.3981 19.3832 17.4483 17.5328 17.6813 15.7478C17.7232 15.4257 18.0181 15.1992 18.3382 15.2412C18.6599 15.2831 18.8861 15.5784 18.8442 15.8988C18.6197 17.6251 18.5694 19.4486 18.5057 21.7587C18.4622 23.3373 18.4136 25.1273 18.2996 27.3099C18.0332 32.4316 17.5506 34.0472 17.197 35.2265C17.1182 35.4883 17.0512 35.7147 16.9925 35.9546C16.6122 37.5232 13.5455 44.9399 7.69887 44.9399Z" fill="#231815"/>
<path d="M60.6344 11.227C60.2457 10.3513 59.7178 9.68197 58.9805 9.53266C58.9805 9.53266 62.704 9.19881 66.1828 11.4871C71.8217 15.1963 76.5557 20.4942 78.7425 30.0817C80.5138 37.8507 78.7894 43.4338 73.3081 44.2726C67.1547 45.2154 63.9122 37.1898 63.5787 35.8141C63.2452 34.4385 62.6101 33.4789 62.2884 27.2784C61.9666 21.078 62.1594 17.9375 61.5511 14.6158" fill="#FEECD2"/>
<path d="M72.3025 44.9389C66.4542 44.9389 63.3875 37.5222 63.0088 35.9536C62.9502 35.7137 62.8831 35.4889 62.8044 35.2272C62.4508 34.0479 61.9682 32.434 61.7018 27.3106C61.5878 25.1246 61.5392 23.3346 61.4956 21.7543C61.4169 18.8974 61.3599 16.8339 60.9728 14.7235C60.9141 14.4047 61.1253 14.0977 61.4437 14.0407C61.7621 13.982 62.0671 14.1933 62.1257 14.5121C62.5279 16.7114 62.5865 18.8135 62.667 21.7225C62.7105 23.2961 62.7591 25.0794 62.8731 27.2502C63.1312 32.2327 63.592 33.7694 63.9271 34.8917C64.0076 35.1584 64.083 35.4101 64.1483 35.6802C64.4902 37.0894 67.6121 44.5547 73.2191 43.6958C75.0407 43.4173 76.4449 42.5701 77.3901 41.176C78.9736 38.8458 79.2501 34.9538 78.1693 30.2162C76.2874 21.9691 72.4919 16.344 65.8593 11.9806C64.0092 10.7626 62.0654 10.3281 60.7281 10.1788C60.8857 10.417 61.0331 10.6871 61.1689 10.9908C61.3012 11.2877 61.1689 11.635 60.8723 11.7658C60.5756 11.8984 60.2304 11.7658 60.0981 11.4689C59.7378 10.6603 59.3239 10.204 58.8647 10.11C58.5798 10.053 58.3787 9.79296 58.3955 9.50273C58.4123 9.21083 58.6385 8.97596 58.9284 8.9508C59.0893 8.9357 62.8966 8.62534 66.5044 10.9992C73.3163 15.4801 77.3867 21.5027 79.3138 29.9545C80.4835 35.0863 80.155 39.1964 78.3603 41.837C77.2242 43.5096 75.5534 44.5262 73.3968 44.8567C73.0231 44.9137 72.6578 44.9406 72.3025 44.9406V44.9389Z" fill="#231815"/>
<path d="M46.3978 42.2034C46.3157 42.2034 46.2336 42.1883 46.1532 42.1564C39.3446 39.4722 33.8884 42.0977 33.8348 42.1245C33.503 42.2889 33.1008 42.1514 32.9366 41.8192C32.7724 41.487 32.9098 41.0844 33.2416 40.92C33.4846 40.7992 39.2893 38.006 46.6458 40.9066C46.991 41.0425 47.1603 41.4317 47.0246 41.7772C46.9207 42.0406 46.6676 42.2034 46.4012 42.2034H46.3978Z" fill="#EFDFA3"/>
<path d="M47.6085 67.4375L47.5717 67.461L47.5432 67.4794L47.5231 67.4945L47.5264 67.4912C46.7656 67.9978 45.9562 67.9492 45.6446 67.9039V67.9072C45.6446 67.9072 45.6345 67.9022 45.6261 67.9022L45.5524 67.8921L45.5021 67.9676C45.4267 68.0834 45.3027 68.2444 45.1318 68.3635L45.043 68.4256L45.0765 68.5296C45.1301 68.7024 45.1552 68.892 45.1552 69.0967V69.1101C45.1552 69.3969 45.1552 69.7543 45.172 70.1317V70.1351L45.1686 70.2509C45.1686 70.6401 45.2474 71.9738 46.2529 72.8713C46.7522 73.3175 47.2131 73.5105 47.5583 73.6312C47.5583 73.6312 47.5633 73.6329 47.5666 73.6346L47.6069 73.648V67.4392L47.6085 67.4375Z" fill="#0A55A3"/>
<path d="M47.6094 67.4375L47.6446 67.461L47.6731 67.4794L47.6932 67.4945L47.6881 67.4912C48.4472 67.9978 49.2583 67.9492 49.57 67.9039V67.9072C49.57 67.9072 49.58 67.9022 49.5884 67.9022L49.6622 67.8921L49.7124 67.9676C49.7862 68.0834 49.9118 68.2444 50.0828 68.3635L50.1716 68.4256L50.1397 68.5296C50.0861 68.7024 50.0593 68.892 50.0593 69.0967V69.1101C50.0593 69.3969 50.0593 69.7543 50.0442 70.1317V70.1351L50.0476 70.2509C50.0476 70.6401 49.9705 71.9738 48.9634 72.8713C48.464 73.3175 48.0032 73.5105 47.658 73.6312C47.658 73.6312 47.6529 73.6329 47.6496 73.6346L47.6094 73.648V67.4392V67.4375Z" fill="#0C2577"/>
<path d="M41.0195 8.30273C42.0099 5.95072 45.2256 3.47456 46.836 4.77136C47.3019 5.14714 46.464 7.69376 44.1917 9.26736" fill="#FEECD2"/>
<path d="M44.1891 9.86003C44.0014 9.86003 43.8188 9.77112 43.7048 9.60504C43.5205 9.33662 43.5858 8.96922 43.854 8.78468C45.642 7.54661 46.391 5.70124 46.3726 5.16775C46.0911 4.98993 45.7207 4.95805 45.2683 5.07381C43.9026 5.4194 42.205 7.00306 41.5615 8.53472C41.4359 8.83501 41.089 8.97593 40.7907 8.85011C40.4907 8.72429 40.35 8.37702 40.4757 8.07673C41.27 6.18942 43.2473 4.36921 44.9801 3.93136C45.8498 3.71159 46.6189 3.84412 47.2038 4.31553C47.3697 4.44974 47.5657 4.71816 47.5473 5.2315C47.5104 6.26827 46.5469 8.35689 44.5243 9.7577C44.422 9.82816 44.3047 9.86171 44.1891 9.86171V9.86003Z" fill="#231815"/>
<path d="M36.5195 8.19066C36.9133 4.57541 40.9083 -0.126932 42.8756 0.676644C43.623 0.981969 43.2259 5.78161 40.8932 8.69562" fill="#FEECD2"/>
<path d="M40.892 9.28816C40.763 9.28816 40.6323 9.24622 40.5234 9.15899C40.2687 8.956 40.2284 8.58357 40.4329 8.33025C42.4689 5.78699 42.8275 1.94694 42.551 1.19537C42.2611 1.1333 41.8472 1.25073 41.373 1.53424C39.5866 2.59953 37.383 5.70143 37.1048 8.25643C37.0697 8.58021 36.7798 8.8134 36.4547 8.77985C36.1312 8.74462 35.8966 8.45271 35.9335 8.12893C36.2569 5.15285 38.742 1.73053 40.7697 0.520968C41.8707 -0.136656 42.6432 -0.0527753 43.0973 0.13344C43.3889 0.25255 43.5917 0.526 43.7006 0.947081C44.1044 2.50894 43.3738 6.54359 41.3512 9.0684C41.2356 9.21435 41.0646 9.28984 40.8904 9.28984L40.892 9.28816Z" fill="#231815"/>
</g>
<defs>
<clipPath id="clip0_3991_123324">
<rect width="80" height="105" fill="white"/>
</clipPath>
</defs>
</svg>
