<svg width="32" height="32" viewBox="0 0 32 32" fill="none" xmlns="http://www.w3.org/2000/svg">
<rect width="32" height="32" rx="16" fill="#FAE100"/>
<path d="M16 6.5C9.92467 6.5 5 10.3518 5 15.1058C5 18.1991 7.08535 20.9102 10.2175 22.427C9.98697 23.2759 9.38462 25.5059 9.26416 25.9828C9.11461 26.5747 9.48225 26.5665 9.72527 26.4083C9.91428 26.2829 12.7391 24.3817 13.9583 23.5616C14.6208 23.6582 15.3021 23.7096 16 23.7096C22.0753 23.7096 27 19.8578 27 15.1058C27 10.3538 22.0753 6.5 16 6.5Z" fill="#371D1E"/>
<path d="M8.32008 13.6224H9.45147C9.45147 13.6224 9.4577 16.8129 9.45147 17.5567C9.45147 18.1002 10.6285 18.1066 10.6264 17.5652L10.6306 13.6651C10.6306 13.6651 11.0105 13.6672 11.7557 13.6672C12.4595 13.6672 12.4595 12.5313 11.7557 12.5313C10.9627 12.5313 8.31385 12.5078 8.31385 12.5078C7.64955 12.5078 7.65163 13.6224 8.31385 13.6224" fill="#FAE100"/>
<mask id="mask0_3192_181661" style="mask-type:luminance" maskUnits="userSpaceOnUse" x="7" y="12" width="6" height="6">
<path d="M8.32008 13.6224H9.45147C9.45147 13.6224 9.4577 16.8129 9.45147 17.5567C9.45147 18.1002 10.6285 18.1066 10.6264 17.5652L10.6306 13.6651C10.6306 13.6651 11.0105 13.6672 11.7557 13.6672C12.4595 13.6672 12.4595 12.5313 11.7557 12.5313C10.9627 12.5313 8.31385 12.5078 8.31385 12.5078C7.64955 12.5078 7.65163 13.6224 8.31385 13.6224" fill="white"/>
</mask>
<g mask="url(#mask0_3192_181661)">
<path d="M12.468 12.5078H7.66016V18.1065H12.468V12.5078Z" fill="#FAE100"/>
</g>
<path d="M13.7417 13.8292L14.3707 15.8538H13.0587L13.7417 13.8292ZM13.0359 12.8808C12.7577 13.5095 11.7509 16.4825 11.4187 17.2711C11.1779 17.8401 12.218 18.3047 12.4588 17.7357L12.6851 16.9237H14.7547C14.7547 16.9237 14.6842 16.9578 14.9582 17.7016C15.1803 18.3047 16.2557 17.887 16.0335 17.2839C15.7159 16.4229 14.6157 13.3198 14.4143 12.8808C14.323 12.6783 13.9908 12.5312 13.669 12.5312C13.4033 12.5312 13.1438 12.6314 13.0338 12.8808" fill="#FAE100"/>
<mask id="mask1_3192_181661" style="mask-type:luminance" maskUnits="userSpaceOnUse" x="11" y="12" width="6" height="6">
<path d="M13.7417 13.8292L14.3707 15.8538H13.0587L13.7417 13.8292ZM13.0359 12.8808C12.7577 13.5095 11.7509 16.4825 11.4187 17.2711C11.1779 17.8401 12.218 18.3047 12.4588 17.7357L12.6851 16.9237H14.7547C14.7547 16.9237 14.6842 16.9578 14.9582 17.7016C15.1803 18.3047 16.2557 17.887 16.0335 17.2839C15.7159 16.4229 14.6157 13.3198 14.4143 12.8808C14.323 12.6783 13.9908 12.5312 13.669 12.5312C13.4033 12.5312 13.1438 12.6314 13.0338 12.8808" fill="white"/>
</mask>
<g mask="url(#mask1_3192_181661)">
<path d="M16.2577 12.5312H11.1758V18.3069H16.2577V12.5312Z" fill="#FAE100"/>
</g>
<path d="M16.4297 13.0662C16.4297 14.0764 16.4359 17.3329 16.4359 17.3329C16.4359 17.3329 16.3446 17.9808 16.8864 17.9808C17.4282 17.9808 18.626 17.9744 19.1575 17.9744C19.6889 17.9744 19.6868 16.8129 19.1554 16.8129C18.624 16.8129 17.6524 16.8065 17.6524 16.8065C17.6524 16.8065 17.6566 13.7951 17.6545 13.0619C17.6545 12.7081 17.3473 12.5312 17.0421 12.5312C16.7369 12.5312 16.4276 12.7103 16.4297 13.0641" fill="#FAE100"/>
<mask id="mask2_3192_181661" style="mask-type:luminance" maskUnits="userSpaceOnUse" x="16" y="12" width="4" height="6">
<path d="M16.4297 13.0662C16.4297 14.0764 16.4359 17.3329 16.4359 17.3329C16.4359 17.3329 16.3446 17.9808 16.8864 17.9808C17.4282 17.9808 18.626 17.9744 19.1575 17.9744C19.6889 17.9744 19.6868 16.8129 19.1554 16.8129C18.624 16.8129 17.6524 16.8065 17.6524 16.8065C17.6524 16.8065 17.6566 13.7951 17.6545 13.0619C17.6545 12.7081 17.3473 12.5312 17.0421 12.5312C16.7369 12.5312 16.4276 12.7103 16.4297 13.0641" fill="white"/>
</mask>
<g mask="url(#mask2_3192_181661)">
<path d="M19.692 12.5312H16.3477V17.9787H19.692V12.5312Z" fill="#FAE100"/>
</g>
<path d="M19.827 12.9099C19.8395 13.3532 19.8125 17.3599 19.8125 17.6561C19.8125 18.125 20.975 18.1229 20.975 17.6561C20.975 17.1127 20.975 16.079 20.975 16.079L21.3155 15.7977L22.8081 17.8863C23.1091 18.2955 24.0578 17.556 23.7568 17.1489L22.1728 15.007C22.1728 15.007 23.2482 13.8135 23.6717 13.3809C23.9187 13.1294 23.1527 12.3366 22.9056 12.5902C22.6669 12.8332 20.9812 14.5659 20.9812 14.5659C20.9812 14.5659 20.9958 13.4789 20.9812 12.8779C20.975 12.6499 20.7031 12.5391 20.4228 12.5391C20.1239 12.5391 19.8187 12.6648 19.825 12.9099" fill="#FAE100"/>
<mask id="mask3_3192_181661" style="mask-type:luminance" maskUnits="userSpaceOnUse" x="19" y="12" width="5" height="7">
<path d="M19.827 12.9099C19.8395 13.3532 19.8125 17.3599 19.8125 17.6561C19.8125 18.125 20.975 18.1229 20.975 17.6561C20.975 17.1127 20.975 16.079 20.975 16.079L21.3155 15.7977L22.8081 17.8863C23.1091 18.2955 24.0578 17.556 23.7568 17.1489L22.1728 15.007C22.1728 15.007 23.2482 13.8135 23.6717 13.3809C23.9187 13.1294 23.1527 12.3366 22.9056 12.5902C22.6669 12.8332 20.9812 14.5659 20.9812 14.5659C20.9812 14.5659 20.9958 13.4789 20.9812 12.8779C20.975 12.6499 20.7031 12.5391 20.4228 12.5391C20.1239 12.5391 19.8187 12.6648 19.825 12.9099" fill="white"/>
</mask>
<g mask="url(#mask3_3192_181661)">
<path d="M24.0578 12.3281H19.8125V18.287H24.0578V12.3281Z" fill="#FAE100"/>
</g>
</svg>
