<svg width="48" height="48" viewBox="0 0 48 48" fill="none" xmlns="http://www.w3.org/2000/svg">
<rect x="0.5" y="0.5" width="47" height="47" rx="11.5" fill="white"/>
<rect x="0.5" y="0.5" width="47" height="47" rx="11.5" stroke="#E4E4E4"/>
<rect x="8" y="8" width="32" height="32" rx="16" fill="#FAE100"/>
<path d="M24 14.5C17.9247 14.5 13 18.3518 13 23.1058C13 26.1991 15.0853 28.9102 18.2175 30.427C17.987 31.2759 17.3846 33.5059 17.2642 33.9828C17.1146 34.5747 17.4823 34.5665 17.7253 34.4083C17.9143 34.2829 20.7391 32.3817 21.9583 31.5616C22.6208 31.6582 23.3021 31.7096 24 31.7096C30.0753 31.7096 35 27.8578 35 23.1058C35 18.3538 30.0753 14.5 24 14.5Z" fill="#371D1E"/>
<path d="M16.3201 21.6224H17.4515C17.4515 21.6224 17.4577 24.8129 17.4515 25.5567C17.4515 26.1002 18.6285 26.1066 18.6264 25.5652L18.6306 21.6651C18.6306 21.6651 19.0105 21.6672 19.7557 21.6672C20.4595 21.6672 20.4595 20.5313 19.7557 20.5313C18.9627 20.5313 16.3139 20.5078 16.3139 20.5078C15.6496 20.5078 15.6516 21.6224 16.3139 21.6224" fill="#FAE100"/>
<mask id="mask0_4162_132240" style="mask-type:luminance" maskUnits="userSpaceOnUse" x="15" y="20" width="6" height="6">
<path d="M16.3201 21.6224H17.4515C17.4515 21.6224 17.4577 24.8129 17.4515 25.5567C17.4515 26.1002 18.6285 26.1066 18.6264 25.5652L18.6306 21.6651C18.6306 21.6651 19.0105 21.6672 19.7557 21.6672C20.4595 21.6672 20.4595 20.5313 19.7557 20.5313C18.9627 20.5313 16.3139 20.5078 16.3139 20.5078C15.6496 20.5078 15.6516 21.6224 16.3139 21.6224" fill="white"/>
</mask>
<g mask="url(#mask0_4162_132240)">
<path d="M20.468 20.5078H15.6602V26.1065H20.468V20.5078Z" fill="#FAE100"/>
</g>
<path d="M21.7417 21.8292L22.3707 23.8538H21.0587L21.7417 21.8292ZM21.0359 20.8808C20.7577 21.5095 19.7509 24.4825 19.4187 25.2711C19.1779 25.8401 20.218 26.3047 20.4588 25.7357L20.6851 24.9237H22.7547C22.7547 24.9237 22.6842 24.9578 22.9582 25.7016C23.1803 26.3047 24.2557 25.887 24.0335 25.2839C23.7159 24.4229 22.6157 21.3198 22.4143 20.8808C22.323 20.6783 21.9908 20.5312 21.669 20.5312C21.4033 20.5312 21.1438 20.6314 21.0338 20.8808" fill="#FAE100"/>
<mask id="mask1_4162_132240" style="mask-type:luminance" maskUnits="userSpaceOnUse" x="19" y="20" width="6" height="6">
<path d="M21.7417 21.8292L22.3707 23.8538H21.0587L21.7417 21.8292ZM21.0359 20.8808C20.7577 21.5095 19.7509 24.4825 19.4187 25.2711C19.1779 25.8401 20.218 26.3047 20.4588 25.7357L20.6851 24.9237H22.7547C22.7547 24.9237 22.6842 24.9578 22.9582 25.7016C23.1803 26.3047 24.2557 25.887 24.0335 25.2839C23.7159 24.4229 22.6157 21.3198 22.4143 20.8808C22.323 20.6783 21.9908 20.5312 21.669 20.5312C21.4033 20.5312 21.1438 20.6314 21.0338 20.8808" fill="white"/>
</mask>
<g mask="url(#mask1_4162_132240)">
<path d="M24.2577 20.5312H19.1758V26.3069H24.2577V20.5312Z" fill="#FAE100"/>
</g>
<path d="M24.4297 21.0662C24.4297 22.0764 24.4359 25.3329 24.4359 25.3329C24.4359 25.3329 24.3446 25.9808 24.8864 25.9808C25.4282 25.9808 26.626 25.9744 27.1575 25.9744C27.6889 25.9744 27.6868 24.8129 27.1554 24.8129C26.624 24.8129 25.6524 24.8065 25.6524 24.8065C25.6524 24.8065 25.6566 21.7951 25.6545 21.0619C25.6545 20.7081 25.3473 20.5312 25.0421 20.5312C24.7369 20.5312 24.4276 20.7103 24.4297 21.0641" fill="#FAE100"/>
<mask id="mask2_4162_132240" style="mask-type:luminance" maskUnits="userSpaceOnUse" x="24" y="20" width="4" height="6">
<path d="M24.4297 21.0662C24.4297 22.0764 24.4359 25.3329 24.4359 25.3329C24.4359 25.3329 24.3446 25.9808 24.8864 25.9808C25.4282 25.9808 26.626 25.9744 27.1575 25.9744C27.6889 25.9744 27.6868 24.8129 27.1554 24.8129C26.624 24.8129 25.6524 24.8065 25.6524 24.8065C25.6524 24.8065 25.6566 21.7951 25.6545 21.0619C25.6545 20.7081 25.3473 20.5312 25.0421 20.5312C24.7369 20.5312 24.4276 20.7103 24.4297 21.0641" fill="white"/>
</mask>
<g mask="url(#mask2_4162_132240)">
<path d="M27.692 20.5312H24.3477V25.9787H27.692V20.5312Z" fill="#FAE100"/>
</g>
<path d="M27.827 20.9099C27.8395 21.3532 27.8125 25.3599 27.8125 25.6561C27.8125 26.125 28.975 26.1229 28.975 25.6561C28.975 25.1127 28.975 24.079 28.975 24.079L29.3155 23.7977L30.8081 25.8863C31.1091 26.2955 32.0578 25.556 31.7568 25.1489L30.1728 23.007C30.1728 23.007 31.2482 21.8135 31.6717 21.3809C31.9187 21.1294 31.1527 20.3366 30.9056 20.5902C30.6669 20.8332 28.9812 22.5659 28.9812 22.5659C28.9812 22.5659 28.9958 21.4789 28.9812 20.8779C28.975 20.6499 28.7031 20.5391 28.4228 20.5391C28.1239 20.5391 27.8187 20.6648 27.825 20.9099" fill="#FAE100"/>
<mask id="mask3_4162_132240" style="mask-type:luminance" maskUnits="userSpaceOnUse" x="27" y="20" width="5" height="7">
<path d="M27.827 20.9099C27.8395 21.3532 27.8125 25.3599 27.8125 25.6561C27.8125 26.125 28.975 26.1229 28.975 25.6561C28.975 25.1127 28.975 24.079 28.975 24.079L29.3155 23.7977L30.8081 25.8863C31.1091 26.2955 32.0578 25.556 31.7568 25.1489L30.1728 23.007C30.1728 23.007 31.2482 21.8135 31.6717 21.3809C31.9187 21.1294 31.1527 20.3366 30.9056 20.5902C30.6669 20.8332 28.9812 22.5659 28.9812 22.5659C28.9812 22.5659 28.9958 21.4789 28.9812 20.8779C28.975 20.6499 28.7031 20.5391 28.4228 20.5391C28.1239 20.5391 27.8187 20.6648 27.825 20.9099" fill="white"/>
</mask>
<g mask="url(#mask3_4162_132240)">
<path d="M32.0578 20.3281H27.8125V26.287H32.0578V20.3281Z" fill="#FAE100"/>
</g>
</svg>
