<svg width="48" height="48" viewBox="0 0 48 48" fill="none" xmlns="http://www.w3.org/2000/svg">
<rect x="0.5" y="0.5" width="47" height="47" rx="11.5" fill="white"/>
<rect x="0.5" y="0.5" width="47" height="47" rx="11.5" stroke="#E4E4E4"/>
<path d="M10 16.1875C10 13.288 12.3505 10.9375 15.25 10.9375H32.75C35.6495 10.9375 38 13.288 38 16.1875V28.4375C38 31.337 35.6495 33.6875 32.75 33.6875H15.25C12.3505 33.6875 10 31.337 10 28.4375V16.1875Z" fill="#C6D2FF"/>
<path d="M20.5 33.6875H27.5L28.375 35.4375H19.625L20.5 33.6875Z" fill="#7C86FF"/>
<rect x="16.125" y="35.4375" width="15.75" height="2.625" rx="1.3125" fill="#615FFF"/>
<path fill-rule="evenodd" clip-rule="evenodd" d="M24 26.6875C23.5359 26.6875 23.0908 26.8719 22.7626 27.2001C22.4344 27.5283 22.25 27.9734 22.25 28.4375C22.25 28.9016 22.4344 29.3467 22.7626 29.6749C23.0908 30.0031 23.5359 30.1875 24 30.1875C24.4641 30.1875 24.9092 30.0031 25.2374 29.6749C25.5656 29.3467 25.75 28.9016 25.75 28.4375C25.75 27.9734 25.5656 27.5283 25.2374 27.2001C24.9092 26.8719 24.4641 26.6875 24 26.6875Z" fill="#4F39F6"/>
<path fill-rule="evenodd" clip-rule="evenodd" d="M20.1351 18.0539C21.9777 17.2623 24.0054 17.0551 25.9616 17.4585C27.9179 17.8619 29.7147 18.8578 31.1248 20.3202C31.2107 20.4158 31.3143 20.4924 31.4295 20.5456C31.5446 20.5988 31.6689 20.6274 31.7949 20.6297C31.9209 20.632 32.0461 20.608 32.163 20.559C32.2798 20.5101 32.386 20.4373 32.4751 20.3449C32.5642 20.2525 32.6345 20.1425 32.6817 20.0213C32.7289 19.9002 32.7521 19.7704 32.7499 19.6398C32.7476 19.5091 32.72 19.3803 32.6687 19.2609C32.6175 19.1416 32.5435 19.0342 32.4513 18.9451C31.3408 17.7935 30.0223 16.8799 28.5711 16.2566C27.12 15.6333 25.5645 15.3125 23.9937 15.3125C22.4229 15.3125 20.8675 15.6333 19.4164 16.2566C17.9652 16.8799 16.6467 17.7935 15.5362 18.9451C15.4466 19.0349 15.3752 19.1423 15.326 19.261C15.2769 19.3798 15.2511 19.5074 15.25 19.6366C15.249 19.7658 15.2728 19.8939 15.3201 20.0135C15.3673 20.133 15.437 20.2416 15.5252 20.3329C15.6134 20.4242 15.7182 20.4964 15.8336 20.5453C15.9489 20.5941 16.0725 20.6187 16.1971 20.6175C16.3218 20.6163 16.4449 20.5894 16.5594 20.5384C16.6739 20.4873 16.7774 20.4132 16.8639 20.3202C17.8001 19.3494 18.9117 18.5793 20.1351 18.0539ZM23.9944 20.9455C23.0828 20.9454 22.1803 21.1323 21.3386 21.4951C20.497 21.858 19.7328 22.3898 19.0902 23.06C18.9146 23.243 18.6761 23.3462 18.4271 23.347C18.1781 23.3477 17.939 23.2458 17.7624 23.0638C17.5859 22.8818 17.4863 22.6346 17.4856 22.3765C17.4849 22.1183 17.5831 21.8705 17.7587 21.6875C18.5759 20.8355 19.5475 20.1594 20.6176 19.698C21.6878 19.2366 22.8354 18.9991 23.9944 18.9991C25.1534 18.9991 26.3009 19.2366 27.3711 19.698C28.4412 20.1594 29.4129 20.8355 30.2301 21.6875C30.4056 21.8705 30.5039 22.1183 30.5032 22.3765C30.5025 22.6346 30.4029 22.8818 30.2263 23.0638C30.0497 23.2458 29.8107 23.3477 29.5617 23.347C29.3127 23.3462 29.0741 23.243 28.8986 23.06C28.2559 22.3898 27.4918 21.858 26.6501 21.4951C25.8085 21.1323 24.9059 20.9454 23.9944 20.9455ZM24.0307 24.4934C23.597 24.4933 23.1678 24.5832 22.7682 24.7579C22.3686 24.9325 22.0069 25.1884 21.7043 25.5104C21.6187 25.6037 21.5161 25.6784 21.4024 25.7302C21.2887 25.782 21.1662 25.8099 21.0421 25.8123C20.9179 25.8147 20.7945 25.7916 20.6791 25.7442C20.5636 25.6968 20.4583 25.6261 20.3694 25.5362C20.2805 25.4464 20.2097 25.3391 20.161 25.2207C20.1124 25.1022 20.0869 24.9749 20.086 24.8462C20.0852 24.7175 20.109 24.5898 20.1561 24.4707C20.2032 24.3516 20.2726 24.2433 20.3603 24.1522C20.8377 23.6441 21.4084 23.2402 22.0388 22.9645C22.6692 22.6887 23.3464 22.5466 24.0307 22.5466C24.7149 22.5466 25.3922 22.6887 26.0225 22.9645C26.6529 23.2402 27.2236 23.6441 27.701 24.1522C27.7871 24.2438 27.855 24.352 27.9007 24.4708C27.9465 24.5896 27.9692 24.7165 27.9677 24.8444C27.9661 24.9722 27.9402 25.0985 27.8916 25.216C27.8429 25.3335 27.7724 25.44 27.6841 25.5292C27.5958 25.6185 27.4913 25.6889 27.3768 25.7363C27.2622 25.7837 27.1398 25.8073 27.0164 25.8057C26.8931 25.804 26.7712 25.7773 26.6579 25.7268C26.5445 25.6764 26.4419 25.6033 26.3557 25.5117C26.0533 25.1899 25.6918 24.9341 25.2924 24.7594C24.8931 24.5847 24.4641 24.4934 24.0307 24.4934Z" fill="#7C86FF"/>
</svg>
