<svg width="28" height="27" viewBox="0 0 28 27" fill="none" xmlns="http://www.w3.org/2000/svg">
<path d="M6.125 13.125C6.125 8.77576 9.65076 5.25 14 5.25C18.3492 5.25 21.875 8.77576 21.875 13.125C21.875 17.4742 18.3492 21 14 21C9.65076 21 6.125 17.4742 6.125 13.125Z" fill="#D5EAFE"/>
<path d="M21 10.1497C20.9998 6.47724 18.0228 3.50019 14.3503 3.5H13.6497C9.97724 3.50019 7.00018 6.47724 7 10.1497V12.25H3.5V10.1497C3.50018 4.54424 8.04424 0.000186246 13.6497 0H14.3503C19.9558 0.00018625 24.4998 4.54424 24.5 10.1497V12.25H21V10.1497Z" fill="#8EC5FF"/>
<path d="M21 19.25V15.75H24.5V19.25C24.5 23.116 21.366 26.25 17.5 26.25H15.75V22.75H17.5C19.433 22.75 21 21.183 21 19.25Z" fill="#8EC5FF"/>
<rect x="9.625" y="22.75" width="8.75" height="3.5" rx="1.75" fill="#2B7FFF"/>
<path d="M0 12.25C0 10.317 1.567 8.75 3.5 8.75H7V17.5C7 18.4665 6.2165 19.25 5.25 19.25H3.5C1.567 19.25 0 17.683 0 15.75V12.25Z" fill="#2B7FFF"/>
<path d="M21 8.75H24.5C26.433 8.75 28 10.317 28 12.25V15.75C28 17.683 26.433 19.25 24.5 19.25H22.75C21.7835 19.25 21 18.4665 21 17.5V8.75Z" fill="#2B7FFF"/>
</svg>
