<svg width="28" height="28" viewBox="0 0 28 28" fill="none" xmlns="http://www.w3.org/2000/svg">
<path d="M0 5.25C0 2.3505 2.35051 0 5.25 0H22.75C25.6495 0 28 2.35051 28 5.25V17.5C28 20.3995 25.6495 22.75 22.75 22.75H5.25C2.35051 22.75 0 20.3995 0 17.5V5.25Z" fill="#C6D2FF"/>
<path d="M10.5 22.75H17.5L18.375 24.5H9.625L10.5 22.75Z" fill="#7C86FF"/>
<rect x="6.125" y="24.5" width="15.75" height="2.625" rx="1.3125" fill="#615FFF"/>
<path fill-rule="evenodd" clip-rule="evenodd" d="M14 15.75C13.5359 15.75 13.0908 15.9344 12.7626 16.2626C12.4344 16.5908 12.25 17.0359 12.25 17.5C12.25 17.9641 12.4344 18.4092 12.7626 18.7374C13.0908 19.0656 13.5359 19.25 14 19.25C14.4641 19.25 14.9092 19.0656 15.2374 18.7374C15.5656 18.4092 15.75 17.9641 15.75 17.5C15.75 17.0359 15.5656 16.5908 15.2374 16.2626C14.9092 15.9344 14.4641 15.75 14 15.75Z" fill="#4F39F6"/>
<path fill-rule="evenodd" clip-rule="evenodd" d="M10.1351 7.11642C11.9777 6.32481 14.0054 6.1176 15.9616 6.52101C17.9179 6.92442 19.7147 7.92032 21.1248 9.38269C21.2107 9.47828 21.3143 9.55495 21.4295 9.60813C21.5446 9.6613 21.6689 9.68989 21.7949 9.6922C21.9209 9.6945 22.0461 9.67047 22.163 9.62154C22.2798 9.57261 22.386 9.49977 22.4751 9.40739C22.5642 9.315 22.6345 9.20495 22.6817 9.0838C22.7289 8.96266 22.7521 8.8329 22.7499 8.70226C22.7476 8.57162 22.72 8.44279 22.6687 8.32345C22.6175 8.2041 22.5435 8.09669 22.4513 8.00762C21.3408 6.85597 20.0223 5.9424 18.5711 5.31911C17.12 4.69581 15.5645 4.375 13.9937 4.375C12.4229 4.375 10.8675 4.69581 9.41636 5.31911C7.96519 5.9424 6.6467 6.85597 5.5362 8.00762C5.44661 8.09741 5.37515 8.20481 5.32602 8.32353C5.27689 8.44226 5.25106 8.56993 5.25003 8.69912C5.24901 8.8283 5.27281 8.95641 5.32006 9.07595C5.3673 9.1955 5.43704 9.30409 5.52521 9.3954C5.61337 9.48671 5.71819 9.5589 5.83356 9.60776C5.94892 9.65662 6.07252 9.68118 6.19714 9.68C6.32176 9.67882 6.4449 9.65192 6.55938 9.60087C6.67387 9.54983 6.7774 9.47566 6.86393 9.38269C7.80015 8.41189 8.91169 7.6418 10.1351 7.11642ZM13.9944 10.008C13.0828 10.0079 12.1803 10.1948 11.3386 10.5576C10.497 10.9205 9.73283 11.4523 9.09016 12.1225C8.91459 12.3055 8.67607 12.4087 8.42707 12.4095C8.17808 12.4102 7.939 12.3083 7.76243 12.1263C7.58587 11.9443 7.48628 11.6971 7.48557 11.439C7.48487 11.1808 7.58311 10.933 7.75868 10.75C8.57588 9.89799 9.54749 9.22188 10.6176 8.76051C11.6878 8.29915 12.8354 8.06163 13.9944 8.06163C15.1534 8.06163 16.3009 8.29915 17.3711 8.76051C18.4412 9.22188 19.4129 9.89799 20.2301 10.75C20.4056 10.933 20.5039 11.1808 20.5032 11.439C20.5025 11.6971 20.4029 11.9443 20.2263 12.1263C20.0497 12.3083 19.8107 12.4102 19.5617 12.4095C19.3127 12.4087 19.0741 12.3055 18.8986 12.1225C18.2559 11.4523 17.4918 10.9205 16.6501 10.5576C15.8085 10.1948 14.9059 10.0079 13.9944 10.008ZM14.0307 13.5559C13.597 13.5558 13.1678 13.6457 12.7682 13.8204C12.3686 13.995 12.0069 14.2509 11.7043 14.5729C11.6187 14.6662 11.5161 14.7409 11.4024 14.7927C11.2887 14.8445 11.1662 14.8724 11.0421 14.8748C10.9179 14.8772 10.7945 14.8541 10.6791 14.8067C10.5636 14.7593 10.4583 14.6886 10.3694 14.5987C10.2805 14.5089 10.2097 14.4016 10.161 14.2832C10.1124 14.1647 10.0869 14.0374 10.086 13.9087C10.0852 13.78 10.109 13.6523 10.1561 13.5332C10.2032 13.4141 10.2726 13.3058 10.3603 13.2147C10.8377 12.7066 11.4084 12.3027 12.0388 12.027C12.6692 11.7512 13.3464 11.6091 14.0307 11.6091C14.7149 11.6091 15.3922 11.7512 16.0225 12.027C16.6529 12.3027 17.2236 12.7066 17.701 13.2147C17.7871 13.3063 17.855 13.4145 17.9007 13.5333C17.9465 13.6521 17.9692 13.779 17.9677 13.9069C17.9661 14.0347 17.9402 14.161 17.8916 14.2785C17.8429 14.396 17.7724 14.5025 17.6841 14.5917C17.5958 14.681 17.4913 14.7514 17.3768 14.7988C17.2622 14.8462 17.1398 14.8698 17.0164 14.8682C16.8931 14.8665 16.7712 14.8398 16.6579 14.7893C16.5445 14.7389 16.4419 14.6658 16.3557 14.5742C16.0533 14.2524 15.6918 13.9966 15.2924 13.8219C14.8931 13.6472 14.4641 13.5559 14.0307 13.5559Z" fill="#7C86FF"/>
</svg>
