<svg width="48" height="48" viewBox="0 0 48 48" fill="none" xmlns="http://www.w3.org/2000/svg">
<rect x="0.5" y="0.5" width="47" height="47" rx="11.5" fill="white"/>
<rect x="0.5" y="0.5" width="47" height="47" rx="11.5" stroke="#E4E4E4"/>
<path d="M16.125 24C16.125 19.6508 19.6508 16.125 24 16.125C28.3492 16.125 31.875 19.6508 31.875 24C31.875 28.3492 28.3492 31.875 24 31.875C19.6508 31.875 16.125 28.3492 16.125 24Z" fill="#D5EAFE"/>
<path d="M31 21.0247C30.9998 17.3522 28.0228 14.3752 24.3503 14.375H23.6497C19.9772 14.3752 17.0002 17.3522 17 21.0247V23.125H13.5V21.0247C13.5002 15.4192 18.0442 10.8752 23.6497 10.875H24.3503C29.9558 10.8752 34.4998 15.4192 34.5 21.0247V23.125H31V21.0247Z" fill="#8EC5FF"/>
<path d="M31 30.125V26.625H34.5V30.125C34.5 33.991 31.366 37.125 27.5 37.125H25.75V33.625H27.5C29.433 33.625 31 32.058 31 30.125Z" fill="#8EC5FF"/>
<rect x="19.625" y="33.625" width="8.75" height="3.5" rx="1.75" fill="#2B7FFF"/>
<path d="M10 23.125C10 21.192 11.567 19.625 13.5 19.625H17V28.375C17 29.3415 16.2165 30.125 15.25 30.125H13.5C11.567 30.125 10 28.558 10 26.625V23.125Z" fill="#2B7FFF"/>
<path d="M31 19.625H34.5C36.433 19.625 38 21.192 38 23.125V26.625C38 28.558 36.433 30.125 34.5 30.125H32.75C31.7835 30.125 31 29.3415 31 28.375V19.625Z" fill="#2B7FFF"/>
</svg>
