<svg width="128" height="128" viewBox="0 0 128 128" fill="none" xmlns="http://www.w3.org/2000/svg">
<g clip-path="url(#clip0_3972_122220)">
<path d="M64 128C99.3462 128 128 99.3462 128 64C128 28.6538 99.3462 0 64 0C28.6538 0 0 28.6538 0 64C0 99.3462 28.6538 128 64 128Z" fill="white"/>
<path d="M94.1622 59.5885C84.5622 52.9272 71.3782 55.3099 64.7222 64.9176C64.4918 65.225 64.287 65.5581 64.0822 65.8912C57.7846 75.7551 44.703 78.6246 34.847 72.3475C30.4182 69.5293 27.2182 65.1482 25.8358 60.0753L25.7846 59.8447C25.7846 59.8447 25.7334 59.6654 25.7078 59.5885C24.9142 56.8728 24.5302 54.0289 24.6326 51.185C24.6326 32.2258 44.0886 11.0889 72.1206 11.0889C100.153 11.0889 117.228 32.9432 121.477 45.0873C121.401 44.8824 121.349 44.6518 121.273 44.4468C110.393 12.8568 75.9862 -3.95029 44.4214 6.91279C20.0502 15.2907 3.66623 38.2467 3.64062 64.0465C3.64062 93.8688 25.1446 119.412 54.9942 119.412C75.8838 120.104 94.879 107.32 102.124 87.6686C106.399 77.5997 103.071 65.8912 94.1622 59.5629" fill="#003863"/>
<path d="M121.807 46.2707C114.23 25.2875 94.3895 11.2475 72.0919 11.0938C44.0599 11.0938 24.6039 32.205 24.6039 51.1642C24.5271 54.0081 24.8855 56.852 25.6791 59.5677C25.3207 58.1586 25.1415 56.6982 25.1159 55.2635C25.1159 35.5101 44.8791 21.8287 65.2055 21.8287C92.6999 21.8287 115.023 44.1186 115.023 71.6606C115.023 92.5157 103.247 111.577 84.5847 120.878C108.495 112.218 124.444 89.4925 124.444 64.0513C124.444 58.0305 123.574 52.0353 121.782 46.2707" fill="#E4032E"/>
</g>
<defs>
<clipPath id="clip0_3972_122220">
<rect width="128" height="128" fill="white"/>
</clipPath>
</defs>
</svg>
