<svg width="20" height="24" viewBox="0 0 20 24" fill="none" xmlns="http://www.w3.org/2000/svg">
<g clip-path="url(#clip0_3669_124470)">
<path d="M14.9999 14.0002C14.9999 14.5524 14.5522 15 14 15H5.99995C5.44777 15 5.00012 14.5524 5.00012 14.0002C5.00012 13.448 5.44777 13.0003 5.99995 13.0003H14C14.5522 13.0003 14.9999 13.448 14.9999 14.0002ZM11.0001 17.0002H5.99995C5.44777 17.0002 5.00012 17.4478 5.00012 18C5.00012 18.5522 5.44777 18.9999 5.99995 18.9999H11.0001C11.5523 18.9999 11.9999 18.5522 11.9999 18C11.9999 17.4478 11.5523 17.0002 11.0001 17.0002ZM20 10.485V18.9999C19.9967 21.7599 17.7599 23.9967 14.9999 24H5.00012C2.24014 23.9967 0.00328122 21.7599 0 18.9999V5.00018C0.00328122 2.24018 2.24014 0.00330345 5.00012 2.21997e-05H9.51508C11.3727 -0.0046653 13.1549 0.733147 14.465 2.04987L17.9492 5.53596C19.2669 6.84518 20.0052 8.62736 20 10.485ZM13.0508 3.46408C12.7363 3.1594 12.3829 2.8969 11.9999 2.68408V6.99987C11.9999 7.55205 12.4476 7.99971 12.9997 7.99971H17.3155C17.1027 7.61674 16.8397 7.26377 16.5346 6.94971L13.0504 3.46362L13.0508 3.46408ZM17.9999 10.485C17.9999 10.32 17.968 10.1621 17.953 9.99986H13.0002C11.3432 9.99986 10.0002 8.6569 10.0002 6.99987V2.04705C9.83805 2.03205 9.67914 2.00018 9.51508 2.00018H5.00012C3.3431 2.00018 2.00014 3.34315 2.00014 5.00018V19.0003C2.00014 20.6574 3.3431 22.0003 5.00012 22.0003H14.9999C16.6569 22.0003 17.9999 20.6574 17.9999 19.0003V10.4855V10.485Z" fill="white"/>
</g>
<defs>
<clipPath id="clip0_3669_124470">
<rect width="20" height="24" fill="white"/>
</clipPath>
</defs>
</svg>
