<svg width="22" height="27" viewBox="0 0 22 27" fill="none" xmlns="http://www.w3.org/2000/svg">
<path d="M11.0035 13.3117C7.47281 13.3117 4.60156 10.4393 4.60156 6.90976C4.60156 3.38023 7.47397 0.507812 11.0035 0.507812C14.533 0.507812 17.4055 3.38023 17.4055 6.90976C17.4055 10.4393 14.533 13.3117 11.0035 13.3117ZM11.0035 2.44649C8.54311 2.44649 6.54024 4.44819 6.54024 6.90859C6.54024 9.36899 8.54194 11.3719 11.0035 11.3719C13.4651 11.3719 15.4656 9.37016 15.4656 6.90859C15.4656 4.44702 13.4639 2.44649 11.0035 2.44649Z" fill="white"/>
<path d="M20.4624 26.6888C19.9267 26.6888 19.4925 26.2547 19.4925 25.7189C19.4925 21.0374 15.684 17.2277 11.0013 17.2277C6.31864 17.2277 2.51015 21.0362 2.51015 25.7189C2.51015 26.2547 2.07597 26.6888 1.54023 26.6888C1.0045 26.6888 0.570312 26.2547 0.570312 25.7189C0.570312 19.9683 5.24951 15.2891 11.0002 15.2891C16.7508 15.2891 21.43 19.9683 21.43 25.7189C21.43 26.2547 20.9958 26.6888 20.4601 26.6888H20.4624Z" fill="white"/>
</svg>
