<svg width="32" height="32" viewBox="0 0 32 32" fill="none" xmlns="http://www.w3.org/2000/svg">
<path d="M31.7716 15.8012C32.029 15.8904 32.0817 16.2279 31.8635 16.3898L13.8903 29.7291C13.5095 30.0118 13.0068 30.0781 12.5648 29.9031L0.214155 25.0142C-0.0360031 24.915 -0.076397 24.5813 0.142883 24.4262L5.34298 20.7502C5.89449 20.3603 6.60554 20.2751 7.23354 20.5237L12.5169 22.6149L12.5505 22.6282C13.1936 22.8826 13.9224 22.7869 14.4778 22.3749L14.5045 22.3552L25.1709 14.4383C25.7017 14.0443 26.3929 13.938 27.0175 14.1544L31.7716 15.8012Z" fill="#2D2D2D"/>
<path d="M18.158 2.25117C18.5189 1.99617 18.983 1.93085 19.4016 2.07583L31.7716 6.36032C32.029 6.4495 32.0817 6.78698 31.8635 6.94895L31.4558 7.25084L16.8507 18.0911C14.6285 19.7404 11.7117 20.1242 9.13852 19.1057L0.214155 15.5733C-0.0360031 15.4741 -0.076397 15.1404 0.142883 14.9853L18.158 2.25117ZM4.62461 14.3058C4.30026 14.5351 4.35987 15.0328 4.72919 15.179L12.9685 18.4406L27.3186 7.78997C27.6413 7.55049 27.5634 7.0473 27.1837 6.9158C24.4299 5.9621 22.5784 5.32086 19.7878 4.35439C19.3309 4.19617 18.8251 4.26759 18.4303 4.54666L4.62461 14.3058Z" fill="#2D2D2D"/>
<path d="M15.8477 9.20215C16.374 8.83033 17.0473 8.73538 17.6562 8.94629L25.5273 11.6719L14.1689 20.1035C13.6134 20.5157 12.8844 20.611 12.2412 20.3564L4.4375 17.2676L15.8477 9.20215Z" fill="#2D2D2D"/>
</svg>
