<svg width="446" height="164" viewBox="0 0 446 164" fill="none" xmlns="http://www.w3.org/2000/svg">
<path d="M241.501 33.5401V40.7888H198.338V33.5401H211.828V18.6785H220.025V33.5401H241.501ZM229.644 27.2012V9.48862H201.302V2.23984H237.75V27.2012H229.613H229.644ZM203.026 66.4477V46.3998H211.314V59.108H256.049V66.4477H203.026ZM254.84 44.7014H246.552V0.875H254.84V18.8302H263.339V26.3823H254.84V44.7014Z" fill="#58595B"/>
<path d="M291.922 1.32995L309.949 55.6807L302.72 58.4407L291.922 25.1084L281.275 58.9866L273.834 56.2266L291.952 1.36027L291.922 1.32995ZM313.972 0.965988H321.715V67.206H313.972V31.0834H305.412V23.7436H313.972V0.935659V0.965988ZM327.613 0.875H335.508V67.5699H327.613V0.875Z" fill="#58595B"/>
<path d="M351.934 13.5845V6.63899H367.511V0.148438H376.313V6.63899H391.134V13.5845H375.042L391.739 30.5691L386.234 35.7251L371.836 20.7726L357.741 36.908L352.085 31.661L368.721 13.5845H351.934ZM405.017 53.3467C405.017 55.5911 404.564 57.6838 403.626 59.6552C402.719 61.6267 401.478 63.3555 399.936 64.8416C398.393 66.3278 396.578 67.5106 394.461 68.3902C392.344 69.2697 390.105 69.6944 387.716 69.6944C385.326 69.6944 383.149 69.2697 381.001 68.3902C378.854 67.5106 377.008 66.3278 375.496 64.8416C373.954 63.3555 372.713 61.6267 371.806 59.6552C370.899 57.6838 370.415 55.5911 370.415 53.3467C370.415 51.1023 370.868 49.0095 371.806 47.0381C372.713 45.0667 373.954 43.3379 375.496 41.8517C377.039 40.3656 378.884 39.1827 381.001 38.3032C383.149 37.4236 385.387 36.999 387.716 36.999C390.045 36.999 392.344 37.4236 394.461 38.3032C396.578 39.1827 398.393 40.3656 399.936 41.8517C401.478 43.3379 402.719 45.0667 403.626 47.0381C404.533 49.0095 405.017 51.1023 405.017 53.3467ZM396.911 53.286C396.911 50.799 396.004 48.6456 394.189 46.8561C392.374 45.0667 390.196 44.1568 387.655 44.1568C385.115 44.1568 383.028 45.0667 381.243 46.8561C379.458 48.6456 378.551 50.799 378.551 53.286C378.551 55.773 379.458 57.9871 381.243 59.7462C383.028 61.5053 385.175 62.4152 387.655 62.4152C390.136 62.4152 392.374 61.5357 394.189 59.7462C396.004 57.9871 396.911 55.8337 396.911 53.286ZM402.416 38.1818V23.017H390.771V15.9199H402.416V0.906679H410.704V38.2122H402.416V38.1818Z" fill="#58595B"/>
<path d="M235.624 158.044H198.338V100.562H235.496V108.551H207.9V125.179H234.854V132.908H207.9V149.99H235.688V157.979L235.624 158.044Z" fill="#003675"/>
<path d="M274.608 150.92C280.59 150.92 286.052 148.97 291.059 145.134L295.025 152.155C289.888 156.706 283.126 158.981 274.608 158.981C266.09 158.981 259.263 156.12 253.541 150.465C247.819 144.744 244.893 137.724 244.893 129.273C244.893 120.822 247.754 113.736 253.541 108.016C259.263 102.295 266.35 99.5 274.608 99.5C282.866 99.5 289.628 101.84 294.635 106.456L290.734 113.476C285.857 109.576 280.46 107.626 274.543 107.626C269.016 107.626 264.334 109.641 260.433 113.736C256.467 117.962 254.516 123.162 254.516 129.338C254.516 135.513 256.467 140.649 260.433 144.874C264.334 148.97 269.016 150.985 274.543 150.985L274.608 150.92Z" fill="#003675"/>
<path d="M331.567 99.5C339.825 99.5 346.847 102.36 352.569 108.146C358.291 113.866 361.217 120.952 361.217 129.338C361.217 137.724 358.356 144.744 352.569 150.465C346.847 156.186 339.825 159.046 331.567 159.046C323.309 159.046 316.222 156.186 310.5 150.465C304.778 144.744 301.852 137.724 301.852 129.338C301.852 120.952 304.713 113.931 310.5 108.146C316.222 102.425 323.309 99.5 331.567 99.5ZM331.567 150.92C337.029 150.92 341.71 148.905 345.677 144.809C349.578 140.649 351.529 135.449 351.529 129.273C351.529 123.097 349.578 117.832 345.677 113.671C341.71 109.576 337.029 107.561 331.567 107.561C326.105 107.561 321.358 109.576 317.457 113.671C313.491 117.832 311.54 123.032 311.54 129.273C311.54 135.514 313.491 140.584 317.457 144.809C321.358 148.905 326.04 150.92 331.567 150.92Z" fill="#003675"/>
<path d="M368.373 146.37L374.745 139.934C376.436 143.574 378.582 146.24 381.183 147.93C383.978 149.815 386.839 150.725 389.7 150.725C392.757 150.725 395.292 149.945 397.438 148.32C399.584 146.76 400.689 144.744 400.689 142.209C400.689 139.934 399.584 138.114 397.438 136.749C395.292 135.318 392.887 134.148 390.351 133.173C387.815 132.263 385.149 131.223 382.418 130.118C377.996 128.493 374.875 126.413 372.99 123.877C371.104 121.277 370.129 118.547 370.129 115.687C370.129 111.201 372.014 107.431 375.851 104.245C379.687 101.06 384.304 99.5 389.831 99.5C395.618 99.5 400.299 100.995 403.94 103.985C405.826 105.416 407.127 107.041 407.842 108.796L402.055 114.907C401.535 113.931 400.624 112.761 399.324 111.526C396.528 108.991 393.212 107.756 389.31 107.756C386.905 107.756 384.759 108.406 382.938 109.771C381.117 111.136 380.142 112.891 380.142 115.167C380.142 118.547 383.913 121.602 391.391 124.267C392.757 124.722 394.187 125.177 395.683 125.763C400.689 127.713 404.461 129.988 406.931 132.588C409.467 135.188 410.703 138.439 410.703 142.274C410.703 146.825 408.752 150.79 404.851 154.105C401.014 157.486 396.008 159.111 389.896 159.111C384.304 159.111 379.622 157.876 375.916 155.34C372.339 152.87 369.804 149.945 368.373 146.5V146.37Z" fill="#003675"/>
<path d="M119.851 74.0596C106.365 64.8903 89.0986 68.6427 80.042 82.4107C72.4526 93.9217 61.0543 95.3606 56.6247 95.3606C42.2076 95.3606 32.3328 85.2038 29.3986 74.7085C29.3986 74.7085 29.3422 74.511 29.3139 74.4264C29.3139 74.3135 29.2575 74.2007 29.2293 74.0596C28.0725 69.6866 27.7904 67.5988 27.7904 62.9154C27.7904 37.8057 53.5494 9.87461 90.6503 9.87461C127.751 9.87461 150.379 38.7931 155.965 54.8746C155.88 54.5925 155.796 54.3104 155.683 54.0282C144.905 22.5988 115.083 0 79.9856 0C35.8313 0 0 35.8025 0 79.9844C0 119.483 28.4957 153.282 67.9948 153.282C99.5094 153.282 120.698 135.621 130.403 111.273C135.736 97.9562 131.955 82.2979 119.851 74.0878V74.0596Z" fill="#003964"/>
<path d="M156.473 56.458C151.79 40.7715 129.896 9.90625 90.651 9.90625C53.5501 9.90625 27.791 37.8655 27.791 62.947C27.791 67.6022 28.0732 69.69 29.2299 74.0912C28.7503 72.1727 28.4964 70.2542 28.4964 68.3922C28.4964 42.2386 54.6786 24.1257 81.5944 24.1257C118.018 24.1257 147.558 53.6649 147.558 90.0881C147.558 118.64 131.109 143.355 107.241 155.232C138.022 144.116 160 114.634 160 80.016C160 71.8342 158.9 64.6116 156.502 56.4862L156.473 56.458Z" fill="#ED1A3B"/>
</svg>
