<svg width="16" height="16" viewBox="0 0 16 16" fill="none" xmlns="http://www.w3.org/2000/svg">
<path d="M8 16C12.4183 16 16 12.4183 16 8C16 3.58172 12.4183 0 8 0C3.58172 0 0 3.58172 0 8C0 12.4183 3.58172 16 8 16Z" fill="white"/>
<path d="M11.7722 7.45052C10.5722 6.61785 8.92423 6.91569 8.09223 8.11665C8.06343 8.15508 8.03783 8.19672 8.01223 8.23835C7.22503 9.47134 5.58983 9.83002 4.35783 9.04539C3.80423 8.69311 3.40423 8.14548 3.23143 7.51137L3.22503 7.48254C3.22503 7.48254 3.21863 7.46013 3.21543 7.45052C3.11623 7.11105 3.06823 6.75556 3.08103 6.40008C3.08103 4.03018 5.51303 1.38807 9.01703 1.38807C12.521 1.38807 14.6554 4.11985 15.1866 5.63787C15.177 5.61225 15.1706 5.58343 15.161 5.55781C13.801 1.60905 9.50023 -0.491834 5.55463 0.866052C2.50823 1.91329 0.460231 4.78279 0.457031 8.00776C0.457031 11.7355 3.14503 14.9285 6.87623 14.9285C9.48743 15.015 11.8618 13.4169 12.7674 10.9605C13.3018 9.70192 12.8858 8.23835 11.7722 7.44732" fill="#003863"/>
<path d="M15.2259 5.77993C14.2787 3.15703 11.7987 1.40203 9.01149 1.38281C5.50749 1.38281 3.07549 4.02172 3.07549 6.39162C3.06589 6.7471 3.11069 7.10259 3.20989 7.44206C3.16509 7.26592 3.14269 7.08337 3.13949 6.90403C3.13949 4.43485 5.60989 2.72469 8.15069 2.72469C11.5875 2.72469 14.3779 5.51092 14.3779 8.95367C14.3779 11.5606 12.9059 13.9433 10.5731 15.1058C13.5619 14.0233 15.5555 11.1827 15.5555 8.00251C15.5555 7.24991 15.4467 6.50051 15.2227 5.77993" fill="#E4032E"/>
</svg>
