<svg width="286" height="260" viewBox="0 0 286 260" fill="none" xmlns="http://www.w3.org/2000/svg">
<circle cx="160.359" cy="134.422" r="125.579" fill="url(#paint0_linear_1832_194463)"/>
<mask id="mask0_1832_194463" style="mask-type:alpha" maskUnits="userSpaceOnUse" x="34" y="0" width="252" height="260">
<path d="M286 161.378H283.108C270.785 217.775 220.508 260.001 160.358 260.001C100.209 260.001 49.933 217.775 37.6094 161.378H34.7178V0H286V161.378Z" fill="#D9D9D9"/>
</mask>
<g mask="url(#mask0_1832_194463)">
<path d="M239.137 8.58594C247.95 8.58594 255.09 15.7658 255.09 24.6172V342.422C255.09 351.273 247.95 358.453 239.137 358.453H81.5815C72.7687 358.453 65.6284 351.273 65.6284 342.422V24.6172C65.6284 15.7658 72.7687 8.58594 81.5815 8.58594H239.137Z" fill="white"/>
<path d="M239.137 8.58594C247.95 8.58594 255.09 15.7658 255.09 24.6172V342.422C255.09 351.273 247.95 358.453 239.137 358.453H81.5815C72.7687 358.453 65.6284 351.273 65.6284 342.422V24.6172C65.6284 15.7658 72.7687 8.58594 81.5815 8.58594H239.137Z" stroke="#E6E8EA" style="mix-blend-mode:multiply"/>
<path d="M235.123 18H86.8769C80.3175 18 75 23.3319 75 29.9091V336.091C75 342.668 80.3175 348 86.8769 348H235.123C241.683 348 247 342.668 247 336.091V29.9091C247 23.3319 241.683 18 235.123 18Z" fill="#5089EF"/>
<g clip-path="url(#clip0_1832_194463)">
<path d="M92.9711 42.9609H90.1357C90.2632 43.4352 90.5321 43.865 90.9245 44.2178C91.473 44.7108 92.1978 44.9878 92.9711 45.0017V45.0024C92.9806 45.0024 92.9902 45.0021 92.9998 45.0021C93.0093 45.0021 93.0189 45.0024 93.0284 45.0024V45.0017C93.8017 44.9878 94.5264 44.7108 95.0751 44.2178C95.4675 43.865 95.7363 43.4352 95.8638 42.9609H92.9711Z" fill="#A7C4F7"/>
<path d="M100.912 40.6343L98.644 38.0319C98.3492 37.6479 98.1893 37.1751 98.1893 36.6884V33.8826C98.1893 31.5206 96.6511 30.1481 94.5412 29.4587V28.5974C94.5412 27.7395 93.8662 27.0343 93.0286 27.0014V27C93.019 27 93.0095 27.0003 92.9999 27.0005C92.9903 27.0003 92.9808 27 92.9712 27V27.0014C92.1336 27.0343 91.4586 27.7395 91.4586 28.5974V29.4587C89.3487 30.1481 87.8105 31.5208 87.8105 33.8826V36.6884C87.8105 37.1751 87.6506 37.6479 87.3558 38.0319L85.0874 40.6343C84.8773 40.9084 85.0697 42.2983 85.4119 42.2983H100.588C100.93 42.2983 101.123 40.9084 100.912 40.6343Z" fill="#A7C4F7"/>
</g>
<path d="M212.711 57.4111V58.876H210.016C210.03 60.2456 211.041 61.6372 213.18 62.1865L212.315 63.6221C210.799 63.2412 209.73 62.3989 209.122 61.3076C208.543 62.5527 207.474 63.5269 205.899 63.9736L205.021 62.5234C207.159 61.9155 208.141 60.3921 208.155 58.876H205.475V57.4111H208.155V55.9609H210.045V57.4111H212.711ZM216.344 56.0195V64.0762H214.483V61.0879H212.315V59.5938H214.483V56.0195H216.344ZM211.788 64.2959C214.63 64.3105 216.373 65.2041 216.388 66.8008C216.373 68.4121 214.63 69.3496 211.788 69.3496C208.961 69.3496 207.203 68.4121 207.203 66.8008C207.203 65.2041 208.961 64.3105 211.788 64.2959ZM211.788 65.7314C210.016 65.7314 209.063 66.083 209.063 66.8008C209.063 67.5332 210.016 67.9287 211.788 67.9287C213.59 67.9287 214.527 67.5332 214.527 66.8008C214.527 66.083 213.59 65.7314 211.788 65.7314Z" fill="white"/>
<path d="M203.307 56.0312V65.7578H201.432V56.0312H203.307ZM203.658 67.6182V69.1123H194.371V64.8203H196.261V67.6182H203.658ZM197.257 58.0527C197.242 59.8105 198.18 61.5391 200.377 62.2422L199.425 63.707C197.923 63.209 196.883 62.2129 196.29 60.9385C195.697 62.3081 194.627 63.4067 193.067 63.9414L192.101 62.4619C194.342 61.7148 195.309 59.8545 195.309 58.0527V56.7637H197.257V58.0527Z" fill="white"/>
<path d="M186.021 56.0312V63.9268H184.146V56.0312H186.021ZM181.729 56.793V60.792H177.394V61.9492C179.62 61.9419 181.188 61.876 182.989 61.583L183.224 63.0771C181.173 63.3994 179.386 63.4727 176.734 63.4727H175.562V59.3711H179.869V58.2578H175.548V56.793H181.729ZM186.021 64.5127V69.2002H177.086V64.5127H186.021ZM178.932 65.9922V67.7061H184.19V65.9922H178.932Z" fill="white"/>
<path d="M172.472 56.0156V58.5938H174.273V60.1318H172.472V62.6807H170.597V56.0156H172.472ZM172.472 63.208V66.8408H165.484V67.7344H172.853V69.1992H163.653V65.4932H170.611V64.6436H163.624V63.208H172.472ZM165.572 56.4111C167.623 56.4258 169.146 57.6562 169.146 59.4287C169.146 61.1865 167.623 62.4463 165.572 62.4463C163.521 62.4463 161.983 61.1865 161.983 59.4287C161.983 57.6562 163.521 56.4258 165.572 56.4111ZM165.572 57.9346C164.547 57.9346 163.8 58.4912 163.814 59.4287C163.8 60.3809 164.547 60.9668 165.572 60.9668C166.598 60.9668 167.33 60.3809 167.33 59.4287C167.33 58.4912 166.598 57.9346 165.572 57.9346Z" fill="white"/>
<path d="M149.649 59.0332C149.649 61.5381 150.66 63.9697 152.887 64.9365L151.744 66.4307C150.265 65.7056 149.276 64.3799 148.727 62.7393C148.141 64.4824 147.115 65.9106 145.592 66.665L144.42 65.1416C146.705 64.1162 147.745 61.5381 147.76 59.0332V57.041H149.649V59.0332ZM155.86 56.0156V69.375H154.015V61.7139H151.393V60.2051H154.015V56.0156H155.86Z" fill="white"/>
<path d="M142.809 56.0156V69.375H140.919V56.0156H142.809ZM134.181 57.0703V60.3223H137.052V57.0703H138.897V66.2549H132.306V57.0703H134.181ZM134.181 64.7461H137.052V61.7725H134.181V64.7461Z" fill="white"/>
<path d="M125.875 57.0859V63.5166H119.356V57.0859H125.875ZM121.202 58.5654V62.0371H124.015V58.5654H121.202ZM129.845 56.0312V65.5088H127.97V56.0312H129.845ZM130.196 67.5449V69.0537H120.909V64.6299H122.799V67.5449H130.196Z" fill="white"/>
<path d="M116.471 56.6016V57.6416C116.471 58.623 116.471 59.751 116.207 61.1865H117.921V62.6807H112.735V64.5996H116.485V69.3457H114.61V66.0645H106.949V64.5996H110.86V62.6807H105.719V61.1865H114.317C114.566 59.9414 114.603 58.96 114.61 58.0811H107.213V56.6016H116.471Z" fill="white"/>
<rect x="88" y="49" width="146" height="28" rx="14" stroke="white" stroke-width="2"/>
<path d="M201.348 93.9687L193.821 73.3482L214.998 79.5443L207.16 82.8856L215.359 90.5452L212.42 93.653L204.423 86.181L201.348 93.9687Z" fill="white" stroke="#1D1D1D" stroke-width="2"/>
<path d="M198.607 36.8047H197.306V42.8379H198.607V36.8047Z" fill="#A7C4F7"/>
<path d="M202.547 34.9453H201.246V42.8308H202.547V34.9453Z" fill="#A7C4F7"/>
<path d="M206.712 31.7031H205.411V42.8345H206.712V31.7031Z" fill="#A7C4F7"/>
<path d="M211.109 28.9219H209.808V42.8406H211.109V28.9219Z" fill="#A7C4F7"/>
<path d="M236.237 36.7263H234.739V34.5234H217.795V42.8495H234.739V40.6376H236.237V36.7263Z" fill="#A7C4F7"/>
<path d="M230.215 35.8203H219.805V41.3321H230.215V35.8203Z" fill="#5089EF"/>
<mask id="mask1_1832_194463" style="mask-type:alpha" maskUnits="userSpaceOnUse" x="75" y="18" width="173" height="330">
<path d="M235.192 18H86.8821C80.3198 18 75 23.3299 75 29.9047V335.973C75 342.548 80.3198 347.878 86.8821 347.878H235.192C241.755 347.878 247.074 342.548 247.074 335.973V29.9047C247.074 23.3299 241.755 18 235.192 18Z" fill="#5089EF"/>
</mask>
<g mask="url(#mask1_1832_194463)">
<circle cx="161" cy="228" r="100" fill="url(#paint1_radial_1832_194463)" fill-opacity="0.6"/>
</g>
<g clip-path="url(#clip1_1832_194463)">
<path d="M120.986 220.269C124.536 217.564 133.002 213.204 136.161 213.18C139.717 213.153 141.221 221.359 141.221 221.359L151.429 225.776L149.735 235.888C149.735 235.888 140.67 239.211 130.98 240.905C121.29 242.596 107.615 230.458 120.983 220.272L120.986 220.269Z" fill="#323E4A"/>
<path d="M129.137 242.061C123.565 242.061 117.445 238.393 115.277 233.453C114.042 230.632 113.059 225.068 120.385 219.486C123.726 216.942 132.478 212.219 136.159 212.195C136.167 212.195 136.173 212.195 136.182 212.195C139.976 212.195 141.662 218.624 142.099 220.663L151.831 224.872C152.251 225.053 152.492 225.496 152.418 225.948L150.723 236.06C150.664 236.413 150.42 236.705 150.083 236.83C149.991 236.862 140.825 240.203 131.156 241.891C130.498 242.007 129.819 242.061 129.137 242.061ZM136.179 214.181H136.17C133.466 214.202 125.301 218.238 121.591 221.065C116.963 224.59 115.37 228.706 117.1 232.654C119.199 237.439 125.605 240.836 130.81 239.93C138.964 238.506 146.763 235.881 148.85 235.15L150.318 226.382L140.825 222.274C140.521 222.144 140.301 221.867 140.241 221.54C139.798 219.136 138.222 214.178 136.176 214.178L136.179 214.181Z" fill="#211613"/>
<path d="M198.143 220.269C194.594 217.564 186.127 213.204 182.968 213.18C179.412 213.153 177.908 221.359 177.908 221.359L167.7 225.776L169.395 235.888C169.395 235.888 178.459 239.211 188.149 240.905C197.84 242.596 211.514 230.458 198.146 220.272L198.143 220.269Z" fill="#323E4A"/>
<path d="M189.996 242.061C189.311 242.061 188.635 242.004 187.977 241.891C178.311 240.203 169.142 236.862 169.049 236.83C168.713 236.708 168.469 236.413 168.409 236.06L166.715 225.948C166.64 225.496 166.881 225.053 167.301 224.872L177.033 220.663C177.471 218.624 179.156 212.195 182.95 212.195C182.959 212.195 182.965 212.195 182.974 212.195C186.655 212.222 195.407 216.942 198.748 219.486C206.074 225.068 205.091 230.632 203.855 233.453C201.687 238.393 195.564 242.061 189.996 242.061ZM170.279 235.153C172.367 235.884 180.166 238.506 188.319 239.933C193.525 240.842 199.93 237.442 202.03 232.656C203.76 228.709 202.167 224.593 197.539 221.068C193.828 218.241 185.663 214.202 182.959 214.184H182.95C180.904 214.184 179.329 219.142 178.885 221.546C178.826 221.873 178.605 222.147 178.302 222.28L168.808 226.388L170.276 235.156L170.279 235.153Z" fill="#211613"/>
<path d="M178.153 210.75L180.056 219.468L182.653 237.206L131.838 237.688L135.033 216.9L137.835 211.618L178.153 210.75Z" fill="#FEECD2"/>
<path d="M137.302 221.039C135.977 224.627 131.391 234.792 131.391 248.967C131.391 260.508 133.243 262.03 133.797 266.898C134.295 271.285 135.277 275.848 135.486 277.994C135.694 280.14 135.9 283.986 138.464 286.206C141.028 288.427 150.057 288.427 152.344 286.578C154.631 284.729 152.305 281.917 152.376 277.7C152.445 273.482 152.308 264.205 152.308 264.205C152.308 264.205 153.207 264.446 156.81 264.446H156.947C160.551 264.446 163.002 264.205 163.002 264.205C163.002 264.205 162.862 273.482 162.933 277.7C163.002 281.917 160.679 284.729 162.966 286.578C165.253 288.427 174.282 288.427 176.846 286.206C179.41 283.986 179.615 280.14 179.824 277.994C180.032 275.848 180.967 271.491 181.512 266.898C182.057 262.306 183.918 260.508 183.918 248.967C183.918 234.628 179.612 224.79 178.287 221.039" fill="#40220F"/>
<path d="M145.813 288.994C142.629 288.994 139.339 288.364 137.769 287.006C135.036 284.637 134.678 280.788 134.467 278.487L134.431 278.095C134.342 277.186 134.101 275.771 133.821 274.13C133.466 272.064 133.026 269.493 132.746 267.017C132.573 265.499 132.272 264.336 131.921 262.99C131.176 260.119 130.331 256.864 130.331 248.964C130.331 236.037 134.035 226.526 135.813 221.955C136.006 221.461 136.173 221.03 136.307 220.671C136.51 220.121 137.12 219.838 137.671 220.043C138.222 220.246 138.505 220.858 138.299 221.405C138.162 221.776 137.99 222.216 137.793 222.724C136.06 227.174 132.454 236.436 132.454 248.967C132.454 256.597 133.261 259.712 133.976 262.461C134.33 263.825 134.663 265.112 134.854 266.78C135.128 269.196 135.545 271.63 135.911 273.776C136.2 275.456 136.447 276.906 136.542 277.893L136.581 278.294C136.778 280.405 137.073 283.597 139.16 285.407C141.376 287.324 149.803 287.268 151.673 285.755C152.498 285.089 152.4 284.292 151.917 282.182C151.634 280.954 151.283 279.424 151.313 277.682C151.381 273.53 151.244 264.316 151.244 264.223C151.238 263.891 151.39 263.575 151.655 263.37C151.917 263.165 152.263 263.097 152.584 263.183C152.602 263.186 153.519 263.388 156.81 263.388H156.947C160.446 263.388 162.87 263.153 162.894 263.15C163.195 263.121 163.495 263.222 163.719 263.427C163.942 263.632 164.067 263.92 164.061 264.223C164.061 264.316 163.924 273.53 163.993 277.682C164.023 279.424 163.671 280.951 163.388 282.182C162.903 284.289 162.808 285.086 163.632 285.755C165.503 287.268 173.933 287.324 176.146 285.407C178.233 283.6 178.531 280.408 178.724 278.297L178.763 277.893C178.861 276.891 179.106 275.447 179.392 273.773C179.734 271.77 180.157 269.279 180.455 266.774C180.636 265.243 180.958 264.009 181.297 262.702C182.027 259.893 182.855 256.71 182.855 248.967C182.855 236.335 179.442 227.192 177.798 222.799C177.599 222.264 177.423 221.794 177.28 221.393C177.084 220.84 177.375 220.234 177.929 220.041C178.483 219.844 179.091 220.136 179.284 220.688C179.421 221.081 179.594 221.536 179.788 222.059C181.473 226.568 184.975 235.951 184.975 248.967C184.975 256.98 184.073 260.449 183.349 263.237C183.016 264.527 182.724 265.638 182.56 267.026C182.256 269.585 181.827 272.106 181.482 274.133C181.205 275.765 180.964 277.177 180.875 278.101L180.839 278.496C180.624 280.797 180.27 284.646 177.536 287.012C174.481 289.66 164.925 289.535 162.289 287.404C160.363 285.844 160.845 283.742 161.313 281.709C161.584 280.535 161.887 279.201 161.864 277.718C161.81 274.421 161.884 267.986 161.917 265.356C160.845 265.427 159.103 265.51 156.944 265.51H156.807C155.208 265.51 154.118 265.463 153.385 265.409C153.421 268.073 153.493 274.445 153.439 277.718C153.415 279.201 153.722 280.532 153.99 281.709C154.458 283.742 154.94 285.844 153.013 287.404C151.733 288.439 148.82 289 145.81 289L145.813 288.994Z" fill="#231815"/>
<path d="M143.773 239.262C144.574 248.227 151.477 254.682 157.4 254.682C163.323 254.682 170.026 247.733 171.027 239.262C171.548 234.845 171.283 226.035 171.283 226.035L170.81 225.709C169.898 225.072 169.234 224.21 168.832 223.598L168.564 223.188L168.168 223.245C168.127 223.245 168.1 223.262 168.064 223.271L168.073 223.253C166.402 223.491 162.069 223.756 158.005 221.051L158.028 221.072L157.921 220.997L157.763 220.893L157.57 220.766L157.376 220.893L157.224 220.997L157.117 221.072L157.141 221.051C153.076 223.756 148.743 223.494 147.073 223.253L147.082 223.271C147.046 223.262 147.019 223.245 146.974 223.245L146.581 223.188L146.313 223.598C145.911 224.21 145.244 225.075 144.333 225.709L143.86 226.035C143.86 226.035 143.383 234.929 143.77 239.262H143.773Z" fill="#FFF5E3"/>
<path d="M157.436 232.099C158.043 231.784 158.779 231.121 158.782 231.112L158.803 231.094L158.788 231.073C158.788 231.073 158.609 230.812 158.442 230.262C158.276 229.715 158.207 229.26 158.195 229.165V229.159C158.195 229.12 158.24 229.106 158.252 229.103C158.255 229.103 159.065 229.031 159.163 229.031C159.178 229.031 159.196 229.031 159.205 229.04L159.211 229.061C159.211 229.061 159.211 229.079 159.211 229.085V229.168C159.217 229.373 159.217 229.632 159.339 230.244C159.482 230.99 159.91 231.81 160.035 232.042C160.205 232.348 160.515 232.758 160.521 232.767C160.625 232.883 160.652 232.916 160.661 232.925H160.658L160.67 232.952V232.961C160.67 232.961 160.646 232.975 160.628 232.981C160.527 232.99 160.402 232.934 160.396 232.931C159.738 232.616 158.996 231.445 158.99 231.436L158.963 231.397L158.943 231.433C158.943 231.433 158.838 231.578 158.43 232.075C158.022 232.574 157.769 232.738 157.728 232.761C157.656 232.782 157.638 232.738 157.635 232.726C157.573 232.601 157.406 232.232 157.391 232.179C157.391 232.176 157.391 232.17 157.391 232.167C157.391 232.131 157.433 232.099 157.436 232.099Z" fill="#835F25"/>
<path d="M157.055 230.574C157.055 230.574 157.847 230.574 157.874 230.574V231.05C157.847 231.05 157.055 231.05 157.055 231.05C157.055 231.05 157.055 234.471 157.055 234.503C157.12 234.503 156.388 234.503 156.287 234.503C156.287 234.474 156.287 228.702 156.287 228.672C156.313 228.672 157.028 228.672 157.055 228.672C157.055 228.702 157.055 230.574 157.055 230.574Z" fill="#835F25"/>
<path d="M155.828 234.52C155.804 234.52 155.08 234.52 155.057 234.52C155.057 234.487 155.057 228.673 155.057 228.641C155.08 228.641 155.816 228.641 155.843 228.641C155.843 228.673 155.831 234.487 155.831 234.52H155.828Z" fill="#835F25"/>
<path d="M148.609 228.648C148.609 228.678 148.609 230.173 148.609 230.173C148.609 230.173 149.663 230.173 149.693 230.173V230.649C149.663 230.649 148.609 230.649 148.609 230.649C148.609 230.649 148.609 231.974 148.609 232.004C148.582 232.004 147.835 232.004 147.805 232.004C147.805 231.974 147.805 228.678 147.805 228.648C147.835 228.648 148.579 228.648 148.609 228.648Z" fill="#835F25"/>
<path d="M151.34 230.81L151.262 230.712L151.253 230.724C151.253 230.724 151.197 230.778 151.2 230.778C151.2 230.778 151.167 230.807 150.646 231.322C150.17 231.794 149.884 231.984 149.845 232.014C149.779 232.011 149.762 231.967 149.762 231.964C149.69 231.714 149.58 231.325 149.577 231.271C149.577 231.229 149.631 231.203 149.631 231.2C150.274 230.989 151.018 230.489 151.054 230.472L151.078 230.457L151.024 230.385C151.024 230.385 150.878 230.21 150.72 229.791L150.712 229.773C150.712 229.773 149.497 229.773 149.47 229.773V229.354C149.497 229.354 150.607 229.354 150.607 229.354L150.601 229.318C150.536 229.051 150.536 228.908 150.536 228.831V228.78C150.53 228.742 150.566 228.724 150.578 228.718C150.586 228.718 151.355 228.647 151.447 228.641C151.462 228.641 151.477 228.641 151.486 228.655V228.679C151.486 228.679 151.489 228.694 151.486 228.7V228.89C151.486 228.982 151.486 229.104 151.524 229.327V229.354H151.554C151.554 229.354 152.826 229.354 152.853 229.354V229.773C152.826 229.773 151.614 229.773 151.614 229.773L151.629 229.809C151.781 230.391 152.093 230.837 152.302 231.125L152.367 231.218C152.567 231.506 152.921 231.88 152.924 231.883C153.04 231.987 153.073 232.017 153.085 232.029H153.082C153.082 232.029 153.094 232.047 153.094 232.056V232.062C153.094 232.062 153.076 232.08 153.052 232.085C152.954 232.103 152.823 232.062 152.823 232.062C152.129 231.818 151.346 230.828 151.34 230.816V230.81Z" fill="#835F25"/>
<path d="M147.915 233.445C147.915 234.081 148.788 234.577 149.898 234.577C151.009 234.577 151.882 234.081 151.882 233.445C151.882 232.809 151.009 232.312 149.898 232.312C148.788 232.312 147.915 232.812 147.915 233.445ZM148.758 233.43C148.758 233.008 149.27 232.663 149.898 232.663C150.527 232.663 151.042 233.008 151.042 233.43C151.042 233.852 150.527 234.2 149.898 234.2C149.27 234.2 148.758 233.855 148.758 233.43Z" fill="#835F25"/>
<path d="M164.952 230.996L164.937 231.121C164.929 231.153 164.914 231.174 164.899 231.183C164.875 231.192 164.851 231.183 164.851 231.183C164.029 230.806 163.943 229.126 163.943 229.109C163.949 229.034 164.008 229.031 164.011 229.031C164.011 229.031 166.983 229.031 167.013 229.031V229.447C166.98 229.447 164.949 229.447 164.949 229.447V230.999L164.952 230.996Z" fill="#835F25"/>
<path d="M165.455 234.041C165.55 233.943 165.553 233.81 165.553 233.783C165.553 233.783 165.553 232.748 165.553 232.719C165.583 232.719 166.432 232.719 166.465 232.719V233.709V233.821C166.465 233.934 166.456 234.148 166.366 234.291C166.223 234.532 165.824 234.532 165.821 234.532C165.821 234.532 162.441 234.532 162.409 234.532V234.128C162.441 234.128 165.226 234.128 165.226 234.128C165.321 234.128 165.399 234.101 165.455 234.041Z" fill="#835F25"/>
<path d="M162.448 228.648C162.471 228.648 163.269 228.648 163.296 228.648C163.296 228.675 163.296 231.41 163.296 231.41V231.422L163.302 231.425C163.502 231.674 164.44 231.686 164.479 231.689H165.568C165.568 231.689 165.568 230.539 165.568 230.509C165.592 230.509 166.369 230.509 166.396 230.509C166.396 230.536 166.396 231.692 166.396 231.692C166.396 231.692 167.579 231.692 167.605 231.692V232.105C167.576 232.105 164.747 232.105 164.747 232.105C163.579 232.105 163.344 231.829 163.344 231.829L163.29 231.76V232.798C163.261 232.798 162.468 232.798 162.445 232.798C162.445 232.768 162.445 230.652 162.445 230.652C162.445 230.652 161.676 230.652 161.644 230.652V230.152C161.673 230.152 162.445 230.152 162.445 230.152C162.445 230.152 162.445 228.675 162.445 228.648H162.448Z" fill="#835F25"/>
<path d="M160.977 239.499L161.831 238.286L161.111 237.344H161.575L162.355 238.375V237.344H162.763V239.499H162.355V238.907L162.099 238.577L161.459 239.496H160.974L160.977 239.499Z" fill="#835F25"/>
<path d="M160.387 238.412C160.387 238.662 160.339 238.861 160.25 238.998C160.161 239.137 160.027 239.206 159.857 239.206C159.651 239.206 159.497 239.14 159.389 239.001C159.282 238.864 159.229 238.671 159.229 238.409C159.229 237.901 159.428 237.651 159.824 237.651C160.006 237.651 160.146 237.72 160.241 237.853C160.336 237.996 160.39 238.18 160.39 238.409L160.387 238.412ZM160.81 238.412C160.81 238.103 160.72 237.845 160.542 237.634C160.363 237.42 160.122 237.312 159.824 237.312C159.494 237.312 159.24 237.411 159.068 237.604C158.892 237.794 158.806 238.067 158.806 238.412C158.806 238.757 158.898 239.033 159.083 239.239C159.261 239.444 159.523 239.545 159.857 239.545C160.164 239.545 160.399 239.444 160.56 239.239C160.729 239.036 160.81 238.76 160.81 238.409V238.412Z" fill="#835F25"/>
<path d="M157.779 237.679V238.279C157.704 238.285 157.645 238.288 157.606 238.288C157.436 238.288 157.308 238.264 157.234 238.22C157.156 238.175 157.114 238.086 157.114 237.955C157.114 237.851 157.159 237.774 157.24 237.732C157.326 237.688 157.46 237.67 157.642 237.67C157.686 237.67 157.734 237.67 157.779 237.679ZM156.909 239.504L157.519 238.609C157.585 238.609 157.668 238.603 157.779 238.6V239.504H158.204V237.349C158.181 237.349 158.091 237.349 157.939 237.337C157.784 237.331 157.662 237.328 157.564 237.328C156.98 237.328 156.689 237.536 156.689 237.964C156.689 238.089 156.73 238.211 156.811 238.312C156.891 238.416 156.992 238.487 157.114 238.535L156.438 239.507H156.909V239.504Z" fill="#835F25"/>
<path d="M154.455 237.683V237.344H155.908V239.499H154.455V239.16H155.497V238.515H154.752V238.191H155.497V237.683H154.455Z" fill="#835F25"/>
<path d="M153.121 237.986L153.395 238.783H152.841L153.121 237.986ZM152.552 239.505L152.722 239.071H153.511L153.672 239.505H154.127L153.207 237.32H153.029L152.108 239.505H152.552Z" fill="#835F25"/>
<path d="M163.722 240.547C164.032 240.547 164.285 240.657 164.481 240.871C164.681 241.085 164.779 241.349 164.779 241.667C164.779 242.012 164.69 242.28 164.511 242.479C164.333 242.678 164.082 242.776 163.764 242.776C163.445 242.776 163.201 242.693 163.031 242.532L163.219 242.22C163.344 242.366 163.514 242.437 163.731 242.437C163.919 242.437 164.071 242.369 164.187 242.235C164.3 242.095 164.356 241.914 164.356 241.685C164.356 241.456 164.297 241.266 164.172 241.115C164.05 240.963 163.892 240.889 163.698 240.889C163.505 240.889 163.35 240.933 163.261 241.016L163.094 240.698C163.252 240.6 163.463 240.55 163.725 240.55L163.722 240.547Z" fill="#835F25"/>
<path d="M162.647 242.061C162.647 242.29 162.573 242.468 162.43 242.593C162.281 242.715 162.075 242.775 161.81 242.775C161.545 242.775 161.331 242.709 161.179 242.587C161.021 242.46 160.941 242.287 160.941 242.067V240.578H161.349V242.035C161.349 242.162 161.388 242.257 161.471 242.329C161.551 242.4 161.668 242.436 161.816 242.436C161.944 242.436 162.049 242.397 162.123 242.329C162.201 242.254 162.236 242.159 162.236 242.043V240.578H162.644V242.061H162.647Z" fill="#835F25"/>
<path d="M159.81 242.773C159.562 242.773 159.369 242.717 159.217 242.607C159.071 242.491 159 242.348 159 242.176C159 242.078 159.014 241.988 159.053 241.911C159.089 241.828 159.136 241.76 159.205 241.703C159.276 241.644 159.387 241.581 159.541 241.507C159.83 241.373 159.976 241.245 159.976 241.123C159.976 241.049 159.952 240.99 159.899 240.939C159.848 240.895 159.774 240.874 159.678 240.874C159.521 240.874 159.366 240.918 159.223 241.019L159.098 240.69C159.223 240.597 159.419 240.547 159.687 240.547C159.893 240.547 160.057 240.6 160.191 240.71C160.319 240.823 160.387 240.96 160.387 241.123C160.387 241.213 160.369 241.293 160.337 241.367C160.304 241.442 160.253 241.507 160.197 241.557C160.134 241.611 160.015 241.679 159.839 241.763C159.664 241.846 159.547 241.92 159.488 241.985C159.434 242.054 159.405 242.125 159.405 242.199C159.405 242.354 159.521 242.434 159.762 242.434C159.917 242.434 160.078 242.378 160.238 242.271L160.39 242.616C160.214 242.72 160.024 242.773 159.807 242.773H159.81Z" fill="#835F25"/>
<path d="M156.894 240.92V240.578H158.793V240.92H158.067V242.739H157.662V240.92H156.894Z" fill="#835F25"/>
<path d="M156.266 241.639C156.266 241.891 156.218 242.088 156.129 242.227C156.039 242.364 155.911 242.435 155.735 242.435C155.527 242.435 155.378 242.364 155.271 242.233C155.161 242.094 155.107 241.897 155.107 241.639C155.107 241.131 155.307 240.881 155.703 240.881C155.881 240.881 156.024 240.949 156.12 241.086C156.215 241.223 156.266 241.407 156.266 241.639ZM156.769 241.639C156.769 241.333 156.682 241.071 156.498 240.86C156.319 240.646 156.081 240.539 155.78 240.539C155.453 240.539 155.196 240.637 155.021 240.83C154.851 241.021 154.762 241.291 154.762 241.639C154.762 241.987 154.851 242.263 155.033 242.468C155.217 242.67 155.473 242.774 155.81 242.774C156.12 242.774 156.355 242.676 156.522 242.471C156.685 242.269 156.769 241.993 156.769 241.639Z" fill="#835F25"/>
<path d="M152.534 240.578H152.745L153.231 242.032L153.728 240.578H153.942L154.41 242.739H154.017L153.767 241.574L153.305 242.766H153.159L152.698 241.574L152.462 242.739H152.066L152.537 240.578H152.534Z" fill="#835F25"/>
<path d="M151.096 242.773C150.851 242.773 150.655 242.717 150.506 242.607C150.357 242.491 150.286 242.348 150.286 242.176C150.286 242.078 150.304 241.988 150.339 241.911C150.375 241.828 150.429 241.76 150.494 241.703C150.563 241.644 150.673 241.581 150.831 241.507C151.122 241.373 151.265 241.245 151.265 241.123C151.265 241.002 151.242 240.99 151.191 240.939C151.137 240.895 151.063 240.874 150.968 240.874C150.81 240.874 150.658 240.918 150.515 241.019L150.387 240.69C150.515 240.597 150.711 240.547 150.977 240.547C151.179 240.547 151.349 240.6 151.477 240.71C151.608 240.823 151.67 240.96 151.67 241.123C151.67 241.213 151.655 241.293 151.62 241.367C151.59 241.442 151.539 241.507 151.48 241.557C151.42 241.611 151.301 241.679 151.125 241.763C150.95 241.846 150.831 241.92 150.78 241.985C150.72 242.054 150.691 242.125 150.691 242.199C150.691 242.354 150.813 242.434 151.054 242.434C151.209 242.434 151.367 242.378 151.53 242.271L151.679 242.616C151.507 242.72 151.313 242.773 151.096 242.773Z" fill="#835F25"/>
<path d="M162.346 245.615C162.141 245.615 161.98 245.568 161.861 245.475C161.742 245.383 161.679 245.264 161.679 245.122C161.679 245.044 161.691 244.97 161.724 244.905C161.754 244.839 161.792 244.783 161.849 244.732C161.906 244.682 161.995 244.631 162.123 244.572C162.361 244.459 162.483 244.358 162.483 244.257C162.483 244.194 162.459 244.144 162.421 244.105C162.376 244.067 162.316 244.046 162.239 244.046C162.108 244.046 161.983 244.084 161.867 244.165L161.763 243.894C161.867 243.817 162.025 243.781 162.242 243.781C162.412 243.781 162.549 243.829 162.653 243.918C162.763 244.007 162.817 244.123 162.817 244.257C162.817 244.331 162.802 244.397 162.775 244.459C162.751 244.518 162.71 244.569 162.662 244.616C162.611 244.658 162.513 244.715 162.37 244.786C162.227 244.851 162.129 244.914 162.081 244.967C162.037 245.021 162.013 245.08 162.013 245.143C162.013 245.27 162.111 245.336 162.305 245.336C162.436 245.336 162.567 245.288 162.698 245.202L162.823 245.484C162.683 245.568 162.522 245.612 162.346 245.612V245.615Z" fill="#835F25"/>
<path d="M159.976 244.081V243.805H161.167V245.573H159.976V245.3H160.836V244.768H160.22V244.5H160.836V244.078H159.976V244.081Z" fill="#835F25"/>
<path d="M159.131 244.082V244.579C159.068 244.585 159.023 244.588 158.988 244.588C158.848 244.588 158.746 244.567 158.681 244.528C158.615 244.489 158.586 244.421 158.586 244.311C158.586 244.222 158.621 244.165 158.69 244.127C158.758 244.091 158.868 244.076 159.017 244.076C159.053 244.076 159.089 244.076 159.131 244.082ZM158.416 245.583L158.919 244.849C158.973 244.849 159.041 244.849 159.134 244.843V245.583H159.479V243.815C159.464 243.815 159.39 243.815 159.268 243.806C159.136 243.8 159.038 243.797 158.958 243.797C158.478 243.797 158.24 243.972 158.24 244.323C158.24 244.424 158.276 244.522 158.341 244.605C158.407 244.692 158.493 244.754 158.592 244.793L158.035 245.589H158.422L158.416 245.583Z" fill="#835F25"/>
<path d="M156.283 243.812H156.644L157.102 245.007L157.54 243.812H157.909L157.203 245.605H157.019L156.286 243.812H156.283Z" fill="#835F25"/>
<path d="M155.688 245.581V243.812H156.024V245.581H155.688Z" fill="#835F25"/>
<path d="M154.372 243.784C154.625 243.784 154.83 243.873 154.991 244.049C155.155 244.221 155.235 244.441 155.235 244.706C155.235 244.985 155.161 245.208 155.015 245.371C154.872 245.532 154.666 245.612 154.401 245.612C154.136 245.612 153.937 245.547 153.8 245.41L153.958 245.154C154.059 245.276 154.199 245.336 154.378 245.336C154.529 245.336 154.654 245.279 154.75 245.169C154.842 245.056 154.887 244.905 154.887 244.715C154.887 244.527 154.833 244.37 154.738 244.245C154.637 244.126 154.509 244.061 154.351 244.061C154.193 244.061 154.068 244.093 153.993 244.168L153.853 243.906C153.981 243.823 154.154 243.781 154.375 243.781L154.372 243.784Z" fill="#835F25"/>
<path d="M152.239 244.081V243.805H153.43V245.573H152.239V245.3H153.097V244.768H152.486V244.5H153.097V244.078H152.239V244.081Z" fill="#835F25"/>
<path d="M158.952 248.577V247.195H159.05C159.154 247.323 159.297 247.43 159.473 247.519V247.751L159.196 247.588V248.577H158.952Z" fill="#835F25"/>
<path d="M158.145 247.725C158.109 247.71 158.076 247.68 158.049 247.633C158.023 247.591 158.008 247.549 158.008 247.514C158.008 247.478 158.023 247.439 158.049 247.416C158.079 247.389 158.115 247.38 158.163 247.38C158.264 247.38 158.314 247.425 158.314 247.514C158.314 247.558 158.297 247.597 158.258 247.639C158.219 247.683 158.18 247.71 158.142 247.725H158.145ZM158.392 247.82C158.439 247.787 158.481 247.743 158.514 247.686C158.544 247.627 158.559 247.573 158.559 247.514C158.559 247.41 158.523 247.326 158.445 247.264C158.374 247.202 158.279 247.172 158.163 247.172C158.04 247.172 157.939 247.202 157.868 247.264C157.799 247.326 157.763 247.413 157.763 247.517C157.763 247.573 157.784 247.633 157.823 247.698C157.862 247.757 157.906 247.799 157.951 247.829C157.892 247.855 157.844 247.903 157.79 247.974C157.743 248.046 157.716 248.114 157.716 248.179C157.716 248.31 157.755 248.411 157.835 248.483C157.921 248.557 158.029 248.593 158.168 248.593C158.308 248.593 158.422 248.557 158.496 248.486C158.57 248.414 158.612 248.313 158.612 248.179C158.612 248.111 158.591 248.04 158.55 247.974C158.511 247.912 158.454 247.855 158.392 247.82ZM158.189 247.918C158.308 247.986 158.368 248.072 158.368 248.177C158.368 248.236 158.35 248.284 158.311 248.322C158.27 248.361 158.225 248.382 158.165 248.382C158.106 248.382 158.052 248.364 158.014 248.328C157.975 248.298 157.954 248.251 157.954 248.197C157.954 248.144 158.031 248.007 158.186 247.915L158.189 247.918Z" fill="#835F25"/>
<path d="M157.111 248.349C157.075 248.268 157.04 248.173 156.995 248.078C156.95 247.983 156.909 247.885 156.864 247.793C156.822 247.701 156.778 247.614 156.739 247.534L156.614 247.299V247.195H157.558V247.418H156.932C157.18 247.876 157.352 248.262 157.457 248.574H157.186C157.168 248.506 157.141 248.432 157.111 248.346V248.349Z" fill="#835F25"/>
<path d="M156.019 247.725C155.98 247.71 155.95 247.68 155.926 247.633C155.896 247.591 155.882 247.549 155.882 247.514C155.882 247.472 155.899 247.439 155.926 247.416C155.953 247.389 155.995 247.38 156.036 247.38C156.141 247.38 156.191 247.425 156.191 247.514C156.191 247.558 156.17 247.597 156.135 247.639C156.096 247.683 156.057 247.71 156.019 247.725ZM156.266 247.82C156.316 247.787 156.355 247.743 156.388 247.686C156.421 247.627 156.438 247.573 156.438 247.514C156.438 247.41 156.4 247.326 156.325 247.264C156.251 247.202 156.159 247.172 156.042 247.172C155.914 247.172 155.819 247.202 155.748 247.264C155.679 247.326 155.646 247.413 155.646 247.517C155.646 247.573 155.661 247.633 155.703 247.698C155.742 247.757 155.783 247.799 155.831 247.829C155.771 247.855 155.715 247.903 155.67 247.974C155.617 248.046 155.596 248.114 155.596 248.179C155.596 248.31 155.637 248.411 155.718 248.483C155.801 248.557 155.911 248.593 156.048 248.593C156.185 248.593 156.301 248.557 156.379 248.486C156.453 248.414 156.492 248.313 156.492 248.179C156.492 248.111 156.474 248.04 156.432 247.974C156.388 247.912 156.337 247.855 156.272 247.82H156.266ZM156.066 247.918C156.185 247.986 156.242 248.072 156.242 248.177C156.242 248.236 156.224 248.284 156.188 248.322C156.15 248.361 156.105 248.382 156.042 248.382C155.98 248.382 155.929 248.364 155.893 248.328C155.852 248.298 155.837 248.251 155.837 248.197C155.837 248.099 155.911 248.007 156.069 247.915L156.066 247.918Z" fill="#835F25"/>
<path d="M157.737 255.579C174.246 255.579 184.276 251.664 184.276 251.664C184.082 263.951 179.821 278.831 179.821 278.831C170.187 279.211 162.99 278.159 162.99 278.159C162.802 268.38 161.87 264.525 161.87 264.525C160.429 264.475 155.042 264.475 153.601 264.525C153.601 264.525 152.665 268.38 152.481 278.159C152.481 278.159 145.283 279.211 135.65 278.831C135.65 278.831 131.388 263.951 131.195 251.664C131.195 251.664 141.224 255.576 157.734 255.579H157.737Z" fill="#34404B"/>
<path d="M175.544 279.981C168.182 279.981 163.09 279.25 162.84 279.214C162.325 279.14 161.941 278.703 161.932 278.186C161.798 271.091 161.259 267.135 160.994 265.572C159.293 265.545 156.188 265.545 154.487 265.572C154.219 267.132 153.683 271.091 153.549 278.186C153.54 278.706 153.156 279.14 152.641 279.214C152.343 279.259 145.235 280.275 135.613 279.898C135.217 279.883 134.863 279.648 134.693 279.292C134.666 279.235 134.645 279.179 134.63 279.119C134.434 278.421 130.33 263.782 130.14 251.688C130.134 251.334 130.307 251.002 130.595 250.799C130.887 250.597 131.259 250.553 131.59 250.683C131.688 250.722 141.658 254.524 157.742 254.527C173.826 254.527 183.796 250.722 183.894 250.683C184.224 250.556 184.597 250.6 184.886 250.802C185.177 251.004 185.347 251.337 185.341 251.691C185.151 263.818 181.026 278.501 180.85 279.122C180.836 279.182 180.812 279.238 180.788 279.295C180.618 279.651 180.264 279.886 179.868 279.901C178.361 279.96 176.914 279.987 175.547 279.987L175.544 279.981ZM164.034 277.226C166.155 277.476 171.872 278.031 179.004 277.803C179.817 274.792 182.747 263.313 183.17 253.171C179.775 254.253 170.797 256.643 157.739 256.643C144.681 256.643 135.703 254.253 132.308 253.171C132.731 263.313 135.661 274.792 136.474 277.803C143.6 278.031 149.32 277.476 151.444 277.226C151.667 268.116 152.537 264.436 152.572 264.279C152.685 263.815 153.09 263.485 153.567 263.467C155.05 263.414 160.431 263.414 161.914 263.467C162.39 263.485 162.798 263.815 162.909 264.279C162.947 264.436 163.814 268.116 164.037 277.226H164.034Z" fill="#231815"/>
<path d="M172.629 212.727L171.25 253.774H146.632L143.69 213.55L172.629 212.727Z" fill="#C3E6F4"/>
<path d="M151.674 241.58L155.116 222.828H160.179L163.621 241.58L157.647 247.418L151.674 241.58Z" fill="#005DA7"/>
<path d="M157.647 248.323C157.418 248.323 157.186 248.237 157.01 248.064L151.036 242.227C150.819 242.016 150.724 241.709 150.777 241.412L154.22 222.66C154.3 222.229 154.675 221.914 155.116 221.914H160.179C160.619 221.914 160.995 222.226 161.075 222.66L164.517 241.412C164.571 241.709 164.476 242.016 164.258 242.227L158.285 248.064C158.109 248.237 157.877 248.323 157.647 248.323ZM152.656 241.264L157.647 246.141L162.638 241.264L159.419 223.733H155.875L152.656 241.264Z" fill="#231815"/>
<path d="M162.507 215.852L160.685 223.083H154.61L152.787 215.852H162.507Z" fill="#005DA7"/>
<path d="M160.685 223.988H154.61C154.193 223.988 153.826 223.706 153.725 223.301L151.903 216.07C151.834 215.799 151.894 215.511 152.067 215.288C152.239 215.068 152.504 214.938 152.784 214.938H162.504C162.784 214.938 163.049 215.065 163.222 215.288C163.394 215.508 163.454 215.796 163.386 216.07L161.563 223.301C161.462 223.706 161.099 223.988 160.679 223.988H160.685ZM155.318 222.169H159.973L161.337 216.757H153.955L155.318 222.169Z" fill="#231815"/>
<path d="M162.563 213.446L157.141 215.786L163.492 220.636L169.285 213.164L162.563 213.446Z" fill="#C3E6F4"/>
<path d="M163.493 221.554C163.299 221.554 163.106 221.492 162.939 221.367L156.587 216.516C156.331 216.32 156.197 216.002 156.236 215.684C156.274 215.363 156.483 215.09 156.778 214.962L162.2 212.623C162.302 212.578 162.412 212.554 162.525 212.548L169.246 212.266C169.597 212.257 169.931 212.441 170.095 212.756C170.259 213.071 170.223 213.452 170.005 213.731L164.213 221.204C164.035 221.435 163.764 221.557 163.493 221.557V221.554ZM158.928 216.014L163.326 219.373L167.364 214.162L162.769 214.355L158.928 216.014Z" fill="#231815"/>
<path d="M152.742 213.446L158.165 215.786L151.813 220.636L146.024 213.164L152.742 213.446Z" fill="#C3E6F4"/>
<path d="M151.814 221.557C151.54 221.557 151.272 221.435 151.093 221.204L145.304 213.731C145.087 213.452 145.054 213.071 145.215 212.756C145.378 212.441 145.709 212.257 146.063 212.266L152.784 212.548C152.895 212.554 153.005 212.578 153.109 212.623L158.532 214.962C158.83 215.09 159.035 215.366 159.074 215.684C159.112 216.005 158.978 216.32 158.722 216.516L152.371 221.367C152.207 221.492 152.01 221.554 151.817 221.554L151.814 221.557ZM147.942 214.165L151.98 219.376L156.379 216.017L152.537 214.358L147.942 214.165Z" fill="#231815"/>
<path d="M182.695 226.477C185.267 236.657 184.779 252.503 184.779 252.503C171.349 256.714 156.837 255.558 156.837 255.558V236.336C171.822 217.926 169.651 212.677 169.651 212.677C169.651 212.677 178.296 209.672 179.851 209.743" fill="#34404B"/>
<path d="M161.7 256.765C158.811 256.765 156.962 256.625 156.754 256.608C156.2 256.563 155.774 256.102 155.774 255.549V236.328C155.774 236.084 155.857 235.849 156.012 235.659C169.532 219.05 168.743 213.474 168.656 213.046C168.522 212.781 168.528 212.514 168.638 212.231C168.752 211.943 169.008 211.765 169.303 211.664C171.375 210.944 178.269 208.599 179.901 208.674C180.488 208.7 180.94 209.197 180.913 209.782C180.887 210.368 180.395 210.814 179.803 210.793C179.791 210.793 179.782 210.793 179.77 210.793C178.909 210.793 174.648 212.083 170.821 213.388C170.878 215.816 169.505 222.388 157.903 236.702V254.548C161.283 254.705 172.846 254.949 183.736 251.703C183.79 248.443 183.859 235.394 181.667 226.727C181.524 226.16 181.869 225.583 182.438 225.44C183.007 225.295 183.585 225.642 183.727 226.21C186.306 236.417 185.863 251.873 185.842 252.527C185.827 252.978 185.529 253.371 185.097 253.507C176.295 256.269 167.147 256.765 161.697 256.765H161.7Z" fill="#231815"/>
<path d="M132.779 226.477C130.206 236.657 130.695 252.503 130.695 252.503C144.125 256.714 158.636 255.558 158.636 255.558V236.336C143.652 217.926 145.822 212.677 145.822 212.677C145.822 212.677 137.496 209.672 135.945 209.743" fill="#34404B"/>
<path d="M153.776 256.771C148.326 256.771 139.181 256.275 130.375 253.514C129.944 253.377 129.646 252.984 129.631 252.536C129.61 251.882 129.166 236.426 131.745 226.219C131.888 225.651 132.469 225.307 133.035 225.449C133.603 225.592 133.949 226.169 133.806 226.736C131.617 235.4 131.683 248.452 131.736 251.712C142.626 254.958 154.19 254.714 157.57 254.557V236.711C145.953 222.373 144.592 215.804 144.651 213.385C140.974 212.083 136.873 210.799 136.021 210.799C136.01 210.799 135.998 210.799 135.989 210.799C135.405 210.832 134.905 210.374 134.878 209.788C134.851 209.203 135.304 208.706 135.89 208.68C135.917 208.68 135.944 208.68 135.974 208.68C137.74 208.68 144.214 210.968 146.182 211.679C146.474 211.783 146.727 211.961 146.837 212.249C146.944 212.529 146.95 212.793 146.816 213.058C146.727 213.483 145.938 219.059 159.461 235.671C159.615 235.861 159.699 236.096 159.699 236.34V255.561C159.699 256.114 159.273 256.575 158.719 256.62C158.511 256.637 156.661 256.777 153.773 256.777L153.776 256.771Z" fill="#231815"/>
<path d="M161.733 235.322C161.495 235.322 161.259 235.209 161.11 234.998C160.869 234.656 160.953 234.183 161.298 233.942L170.687 227.38L169.347 224.155C169.213 223.834 169.318 223.462 169.598 223.254L173.924 220.068C174.344 218.142 173.472 214.631 173.085 213.392C172.96 212.994 173.183 212.569 173.582 212.441C173.981 212.316 174.407 212.539 174.535 212.937C174.6 213.145 176.119 218.05 175.321 220.731C175.273 220.888 175.178 221.028 175.044 221.126L170.979 224.122L172.325 227.362C172.462 227.692 172.352 228.069 172.06 228.274L162.171 235.188C162.037 235.28 161.885 235.325 161.736 235.325L161.733 235.322Z" fill="#231815"/>
<path d="M153.865 235.325C153.716 235.325 153.561 235.28 153.43 235.188L143.541 228.274C143.249 228.069 143.139 227.692 143.276 227.362L144.622 224.122L140.557 221.126C140.423 221.028 140.328 220.891 140.28 220.731C139.482 218.05 141.001 213.142 141.066 212.937C141.191 212.539 141.617 212.316 142.016 212.441C142.415 212.566 142.639 212.991 142.513 213.392C142.126 214.631 141.254 218.145 141.674 220.068L146.001 223.254C146.281 223.462 146.385 223.834 146.251 224.155L144.911 227.38L154.3 233.942C154.642 234.183 154.726 234.656 154.488 234.998C154.339 235.209 154.103 235.322 153.865 235.322V235.325Z" fill="#231815"/>
<path d="M154.515 246.918C155.483 246.918 156.269 246.092 156.269 245.072C156.269 244.053 155.483 243.227 154.515 243.227C153.546 243.227 152.761 244.053 152.761 245.072C152.761 246.092 153.546 246.918 154.515 246.918Z" fill="#DAD6D7"/>
<path d="M154.514 247.514C153.213 247.514 152.153 246.414 152.153 245.062C152.153 243.709 153.213 242.609 154.514 242.609C155.816 242.609 156.876 243.709 156.876 245.062C156.876 246.414 155.816 247.514 154.514 247.514ZM154.514 243.822C153.883 243.822 153.368 244.378 153.368 245.062C153.368 245.745 153.883 246.301 154.514 246.301C155.146 246.301 155.661 245.745 155.661 245.062C155.661 244.378 155.146 243.822 154.514 243.822Z" fill="#231815"/>
<path d="M140.81 240.052C140.864 240.052 140.917 240.043 140.965 240.026C140.965 240.026 141.051 239.993 141.06 239.99C141.694 239.758 142.537 239.384 143.448 238.539C145.199 236.917 145.459 235.074 145.459 234.123C145.459 234.025 145.459 233.959 145.453 233.915C145.479 233.234 145.479 232.595 145.479 232.078C145.479 231.733 145.518 231.436 145.598 231.168L145.652 230.987C145.709 230.803 145.643 230.6 145.485 230.488L145.333 230.378C145.098 230.208 144.922 229.967 144.815 229.795L144.729 229.655C144.646 229.522 144.5 229.441 144.342 229.441C144.321 229.441 144.297 229.441 144.273 229.447C144.273 229.447 144.124 229.468 144.115 229.471C143.987 229.489 143.779 229.513 143.52 229.513C142.927 229.513 142.043 229.391 141.203 228.808C141.197 228.805 141.06 228.71 141.06 228.71C140.983 228.657 140.893 228.633 140.804 228.633C140.715 228.633 140.625 228.66 140.548 228.71C140.548 228.71 140.411 228.805 140.405 228.808C139.565 229.391 138.684 229.513 138.091 229.513C137.832 229.513 137.624 229.489 137.496 229.471C137.487 229.471 137.445 229.465 137.436 229.465L137.338 229.45C137.314 229.447 137.293 229.444 137.269 229.444C137.114 229.444 136.966 229.524 136.882 229.658L136.796 229.795C136.689 229.967 136.51 230.208 136.278 230.375L136.126 230.488C135.968 230.6 135.902 230.803 135.959 230.987L136.016 231.171C136.093 231.436 136.132 231.733 136.132 232.054C136.132 232.592 136.132 233.231 136.159 233.912C136.159 233.953 136.156 234.016 136.153 234.111C136.153 235.074 136.415 236.914 138.166 238.539C139.074 239.384 139.92 239.758 140.554 239.99C140.563 239.993 140.649 240.026 140.649 240.026C140.7 240.043 140.753 240.052 140.804 240.052H140.81Z" fill="#EDEDED"/>
<path d="M140.81 229.084L140.873 229.126L140.923 229.162L140.959 229.188L140.95 229.182C141.876 229.827 142.847 229.97 143.526 229.97C143.803 229.97 144.032 229.946 144.19 229.923V229.928C144.19 229.928 144.208 229.92 144.22 229.92L144.348 229.902L144.434 230.038C144.562 230.244 144.777 230.535 145.072 230.746L145.224 230.856L145.167 231.04C145.078 231.349 145.03 231.691 145.03 232.054V232.077C145.03 232.592 145.03 233.231 145.003 233.908V233.914L145.009 234.122C145.009 234.818 144.875 236.598 143.145 238.206C142.287 239.003 141.492 239.351 140.9 239.568C140.9 239.568 140.891 239.571 140.885 239.574L140.816 239.597L140.748 239.574C140.748 239.574 140.736 239.568 140.733 239.565C140.14 239.351 139.345 239.003 138.488 238.206C136.757 236.598 136.62 234.818 136.62 234.122C136.62 234.122 136.626 233.92 136.626 233.917V233.908C136.6 233.234 136.6 232.592 136.6 232.077V232.054C136.6 231.688 136.552 231.349 136.463 231.04L136.406 230.856L136.558 230.746C136.85 230.532 137.064 230.244 137.195 230.038L137.281 229.902L137.41 229.92C137.41 229.92 137.433 229.926 137.442 229.928V229.923C137.594 229.946 137.823 229.97 138.103 229.97C138.779 229.97 139.753 229.827 140.679 229.182L140.673 229.188L140.709 229.162L140.76 229.126L140.822 229.084M140.81 228.175C140.632 228.175 140.453 228.228 140.301 228.329L140.239 228.371C140.239 228.371 140.23 228.377 140.227 228.38L140.176 228.416C140.176 228.416 140.173 228.416 140.17 228.419C140.164 228.422 140.158 228.427 140.152 228.43C139.411 228.948 138.625 229.055 138.097 229.055C137.868 229.055 137.684 229.034 137.57 229.016C137.555 229.016 137.541 229.013 137.526 229.01L137.41 228.992C137.365 228.986 137.32 228.983 137.276 228.983C136.963 228.983 136.671 229.144 136.501 229.411L136.415 229.548C136.293 229.744 136.15 229.905 136.013 230.003L135.861 230.113C135.548 230.342 135.414 230.743 135.528 231.111L135.581 231.287C135.647 231.516 135.682 231.771 135.682 232.048V232.072C135.682 232.586 135.682 233.225 135.709 233.908C135.709 233.959 135.706 234.018 135.703 234.096C135.703 234.102 135.703 234.11 135.703 234.116C135.703 235.142 135.983 237.124 137.859 238.866C138.821 239.761 139.714 240.159 140.387 240.406C140.399 240.412 140.414 240.415 140.426 240.421L140.495 240.444C140.596 240.48 140.7 240.501 140.807 240.501C140.915 240.501 141.019 240.483 141.12 240.444L141.189 240.421C141.189 240.421 141.218 240.409 141.23 240.403C141.903 240.156 142.794 239.758 143.755 238.863C145.632 237.121 145.911 235.139 145.911 234.113C145.911 234.108 145.911 234.102 145.911 234.099C145.911 234.021 145.911 233.959 145.908 233.908C145.935 233.225 145.935 232.586 145.935 232.069V232.045C145.935 231.765 145.968 231.513 146.034 231.296L146.09 231.111C146.203 230.74 146.069 230.342 145.757 230.113L145.602 230C145.465 229.902 145.325 229.741 145.203 229.545L145.116 229.408C144.95 229.141 144.655 228.98 144.345 228.98C144.3 228.98 144.256 228.983 144.211 228.989L144.095 229.007C144.095 229.007 144.068 229.01 144.053 229.013C143.94 229.031 143.755 229.052 143.526 229.052C142.999 229.052 142.213 228.945 141.471 228.427C141.465 228.425 141.459 228.419 141.454 228.416C141.454 228.416 141.451 228.416 141.448 228.413L141.397 228.377C141.397 228.377 141.388 228.371 141.385 228.368L141.323 228.326C141.168 228.222 140.989 228.172 140.813 228.172L140.81 228.175Z" fill="#231815"/>
<path d="M140.81 229.086L140.748 229.128L140.697 229.163L140.661 229.19L140.667 229.184C139.36 230.094 137.966 230.004 137.43 229.924V229.93C137.43 229.93 137.412 229.921 137.401 229.921L137.272 229.903L137.186 230.04C137.058 230.245 136.844 230.536 136.549 230.747L136.397 230.857L136.454 231.042C136.543 231.351 136.591 231.693 136.591 232.055V232.079C136.591 232.593 136.591 233.232 136.617 233.91V233.916L136.611 234.124C136.611 234.819 136.745 236.6 138.479 238.208C139.336 239.004 140.131 239.352 140.724 239.569C140.724 239.569 140.733 239.572 140.739 239.575L140.807 239.599" fill="#C3C4C4"/>
<path d="M160.581 175.164C161.504 175.164 162.659 175.164 164.101 175.857C165.545 176.546 165.59 178.297 164.101 179.887C162.859 181.213 161.793 181.385 160.581 181.385C159.369 181.385 158.3 181.213 157.061 179.887C155.572 178.297 155.62 176.546 157.061 175.857C158.502 175.164 159.658 175.164 160.581 175.164Z" fill="#231815"/>
<path d="M160.581 189.053C160.244 189.053 159.973 188.782 159.973 188.446V179.372C159.973 179.036 160.244 178.766 160.581 178.766C160.917 178.766 161.188 179.036 161.188 179.372V188.446C161.188 188.782 160.917 189.053 160.581 189.053Z" fill="#231815"/>
<path d="M165.959 187.602L160.563 186.586L153.368 187.721L154.58 192.061L163.895 192.676L165.959 187.602Z" fill="#EB613A"/>
<path d="M167.844 188.051C167.844 188.051 168.451 196.92 160.259 196.914C152.347 196.908 153.368 187.727 153.368 187.727" fill="#EB613A"/>
<path d="M154.61 194.01C154.61 194.01 156.706 192.312 160.589 192.312C164.473 192.312 166.462 193.796 166.462 193.796L165.161 195.692L161.819 196.905L158.94 196.81L156.608 196.007L154.61 194.007V194.01Z" fill="#F3A49B"/>
<path d="M161.822 197.519C161.822 197.519 161.81 197.519 161.801 197.519L158.921 197.424C158.862 197.424 158.802 197.412 158.743 197.391L156.411 196.588C156.325 196.559 156.244 196.508 156.179 196.443L154.18 194.442C154.058 194.321 153.996 194.154 154.005 193.982C154.014 193.809 154.094 193.652 154.228 193.542C154.32 193.468 156.539 191.711 160.589 191.711C164.639 191.711 166.738 193.251 166.825 193.316C167.087 193.512 167.146 193.875 166.962 194.145L165.66 196.042C165.589 196.146 165.485 196.226 165.365 196.267L162.024 197.48C161.959 197.504 161.887 197.516 161.816 197.516L161.822 197.519ZM159.052 196.217L161.723 196.306L164.77 195.2L165.595 194C164.812 193.598 163.123 192.93 160.589 192.93C158.055 192.93 156.396 193.661 155.568 194.121L156.938 195.495L159.052 196.22V196.217Z" fill="#231815"/>
<path d="M160.271 197.824H160.259C157.868 197.824 155.965 197.054 154.61 195.541C151.948 192.572 152.442 187.828 152.463 187.629C152.519 187.129 152.972 186.77 153.469 186.826C153.97 186.883 154.33 187.331 154.273 187.831C154.27 187.869 153.853 191.98 155.971 194.337C156.965 195.446 158.41 196.008 160.259 196.01C162.284 196.022 163.886 195.413 165.003 194.224C167.156 191.935 166.938 188.155 166.935 188.116C166.903 187.617 167.284 187.183 167.784 187.15C168.287 187.117 168.719 187.495 168.755 187.994C168.767 188.182 169.035 192.583 166.343 195.458C164.872 197.03 162.826 197.827 160.271 197.827V197.824Z" fill="#231815"/>
<path d="M167.829 188.871C167.805 188.871 167.778 188.871 167.754 188.871C167.665 188.865 165.562 188.693 163.904 188.318C162.599 188.024 161.024 187.486 160.369 187.254C159.741 187.462 158.27 187.926 156.989 188.17C155.339 188.485 153.454 188.544 153.377 188.547C152.865 188.568 152.454 188.167 152.439 187.664C152.424 187.162 152.82 186.743 153.323 186.728C153.341 186.728 155.143 186.672 156.647 186.383C158.159 186.092 160.062 185.438 160.08 185.432C160.28 185.364 160.497 185.367 160.694 185.438C160.714 185.447 162.766 186.199 164.303 186.544C165.839 186.889 167.879 187.055 167.9 187.058C168.4 187.1 168.776 187.537 168.734 188.039C168.695 188.515 168.296 188.874 167.826 188.874L167.829 188.871Z" fill="#231815"/>
<path d="M186.67 155.453C186.366 155.453 186.056 155.361 185.788 155.171C185.636 155.064 182.408 152.885 178.236 155.058C177.492 155.444 176.575 155.156 176.188 154.416C175.8 153.676 176.089 152.757 176.831 152.371C182.718 149.306 187.364 152.567 187.557 152.71C188.236 153.2 188.391 154.148 187.9 154.826C187.602 155.236 187.137 155.453 186.667 155.453H186.67Z" fill="#231815"/>
<path d="M134.658 155.449C134.181 155.449 133.714 155.23 133.419 154.813C132.936 154.136 133.085 153.196 133.761 152.709C133.955 152.569 138.597 149.306 144.488 152.37C145.232 152.757 145.521 153.672 145.131 154.415C144.744 155.158 143.827 155.444 143.082 155.057C138.898 152.878 135.664 155.078 135.53 155.17C135.265 155.354 134.958 155.444 134.655 155.444L134.658 155.449Z" fill="#231815"/>
<path d="M182.102 173.644C184.472 173.644 186.393 171.727 186.393 169.361C186.393 166.996 184.472 165.078 182.102 165.078C179.732 165.078 177.811 166.996 177.811 169.361C177.811 171.727 179.732 173.644 182.102 173.644Z" fill="#231815"/>
<path d="M139.22 173.644C141.59 173.644 143.511 171.727 143.511 169.361C143.511 166.996 141.59 165.078 139.22 165.078C136.85 165.078 134.929 166.996 134.929 169.361C134.929 171.727 136.85 173.644 139.22 173.644Z" fill="#231815"/>
<path d="M148.901 175.503C148.416 175.503 147.96 175.211 147.77 174.733C147.522 174.109 147.829 173.404 148.455 173.161C161.787 167.92 172.308 172.967 172.748 173.184C173.35 173.482 173.597 174.207 173.299 174.807C173.001 175.408 172.275 175.654 171.673 175.36C171.542 175.298 161.614 170.593 149.345 175.417C149.199 175.473 149.047 175.503 148.901 175.503Z" fill="#EFDFA3"/>
<path d="M160.557 214.612C144.61 214.612 120.01 213.551 111.505 199.453C102.976 185.32 110.138 172.322 111.049 165.956C111.96 159.589 109.897 140.62 114.343 130.458C120.114 117.27 128.512 110.781 160.557 110.781C192.599 110.781 201 117.27 206.768 130.458C211.22 140.632 209.147 159.562 210.064 165.956C210.976 172.322 218.138 185.32 209.609 199.453C201.104 213.551 176.504 214.612 160.557 214.612Z" fill="#FEECD2"/>
<path d="M160.556 215.676C141.697 215.676 118.973 213.896 110.593 200.007C103.643 188.489 106.749 177.714 108.806 170.587C109.345 168.711 109.813 167.095 109.998 165.811C110.272 163.896 110.266 160.68 110.26 156.956C110.245 148.631 110.224 137.229 113.372 130.039C116.799 122.204 120.79 117.767 127.141 114.723C134.354 111.266 144.66 109.727 160.559 109.727C176.458 109.727 186.765 111.266 193.977 114.723C200.329 117.767 204.317 122.201 207.744 130.039C210.895 137.235 210.871 148.619 210.856 156.932C210.85 160.665 210.844 163.887 211.118 165.813C211.303 167.097 211.767 168.717 212.309 170.59C214.364 177.717 217.47 188.489 210.523 200.01C202.143 213.899 179.418 215.679 160.559 215.679L160.556 215.676ZM160.556 111.846C129.172 111.846 120.962 117.987 115.316 130.886C112.347 137.669 112.368 148.812 112.383 156.95C112.389 160.758 112.395 164.045 112.1 166.111C111.895 167.54 111.409 169.226 110.846 171.175C108.893 177.949 105.942 188.186 112.413 198.913C120.245 211.893 142.254 213.557 160.553 213.557C178.853 213.557 200.865 211.893 208.694 198.913C215.165 188.186 212.214 177.949 210.261 171.175C209.698 169.226 209.212 167.54 209.007 166.111C208.709 164.033 208.715 160.74 208.724 156.926C208.739 148.8 208.76 137.675 205.791 130.886C200.145 117.987 191.938 111.846 160.553 111.846H160.556Z" fill="#231815"/>
<path d="M159.529 175.18C160.241 175.18 161.135 175.18 162.248 175.869C163.362 176.559 163.398 178.301 162.248 179.885C161.289 181.205 160.468 181.377 159.529 181.377C158.594 181.377 157.77 181.205 156.811 179.885C155.661 178.301 155.697 176.559 156.811 175.869C157.924 175.18 158.815 175.18 159.529 175.18Z" fill="#231815"/>
<path d="M160.581 189.053C160.244 189.053 159.973 188.782 159.973 188.446V179.372C159.973 179.036 160.244 178.766 160.581 178.766C160.917 178.766 161.188 179.036 161.188 179.372V188.446C161.188 188.782 160.917 189.053 160.581 189.053Z" fill="#231815"/>
<path d="M165.959 187.602L160.563 186.586L153.368 187.721L154.58 192.061L163.895 192.676L165.959 187.602Z" fill="#EB613A"/>
<path d="M167.844 188.051C167.844 188.051 168.451 196.92 160.259 196.914C152.347 196.908 153.368 187.727 153.368 187.727" fill="#EB613A"/>
<path d="M154.61 194.01C154.61 194.01 156.706 192.312 160.589 192.312C164.473 192.312 166.462 193.796 166.462 193.796L165.161 195.692L161.819 196.905L158.94 196.81L156.608 196.007L154.61 194.007V194.01Z" fill="#F3A49B"/>
<path d="M161.822 197.519C161.822 197.519 161.81 197.519 161.801 197.519L158.921 197.424C158.862 197.424 158.802 197.412 158.743 197.391L156.411 196.588C156.325 196.559 156.244 196.508 156.179 196.443L154.18 194.442C154.058 194.321 153.996 194.154 154.005 193.982C154.014 193.809 154.094 193.652 154.228 193.542C154.32 193.468 156.539 191.711 160.589 191.711C164.639 191.711 166.738 193.251 166.825 193.316C167.087 193.512 167.146 193.875 166.962 194.145L165.66 196.042C165.589 196.146 165.485 196.226 165.365 196.267L162.024 197.48C161.959 197.504 161.887 197.516 161.816 197.516L161.822 197.519ZM159.052 196.217L161.723 196.306L164.77 195.2L165.595 194C164.812 193.598 163.123 192.93 160.589 192.93C158.055 192.93 156.396 193.661 155.568 194.121L156.938 195.495L159.052 196.22V196.217Z" fill="#231815"/>
<path d="M160.271 197.824H160.259C157.868 197.824 155.965 197.054 154.61 195.541C151.948 192.572 152.442 187.828 152.463 187.629C152.519 187.129 152.972 186.77 153.469 186.826C153.97 186.883 154.33 187.331 154.273 187.831C154.27 187.869 153.853 191.98 155.971 194.337C156.965 195.446 158.41 196.008 160.259 196.01C162.284 196.022 163.886 195.413 165.003 194.224C167.156 191.935 166.938 188.155 166.935 188.116C166.903 187.617 167.284 187.183 167.784 187.15C168.287 187.117 168.719 187.495 168.755 187.994C168.767 188.182 169.035 192.583 166.343 195.458C164.872 197.03 162.826 197.827 160.271 197.827V197.824Z" fill="#231815"/>
<path d="M167.829 188.871C167.805 188.871 167.778 188.871 167.754 188.871C167.665 188.865 165.562 188.693 163.904 188.318C162.599 188.024 161.024 187.486 160.369 187.254C159.741 187.462 158.27 187.926 156.989 188.17C155.339 188.485 153.454 188.544 153.377 188.547C152.865 188.568 152.454 188.167 152.439 187.664C152.424 187.162 152.82 186.743 153.323 186.728C153.341 186.728 155.143 186.672 156.647 186.383C158.159 186.092 160.062 185.438 160.08 185.432C160.28 185.364 160.497 185.367 160.694 185.438C160.714 185.447 162.766 186.199 164.303 186.544C165.839 186.889 167.879 187.055 167.9 187.058C168.4 187.1 168.776 187.537 168.734 188.039C168.695 188.515 168.296 188.874 167.826 188.874L167.829 188.871Z" fill="#231815"/>
<path d="M186.67 155.453C186.366 155.453 186.056 155.361 185.788 155.171C185.636 155.064 182.408 152.885 178.236 155.058C177.492 155.444 176.575 155.156 176.188 154.416C175.8 153.676 176.089 152.757 176.831 152.371C182.718 149.306 187.364 152.567 187.557 152.71C188.236 153.2 188.391 154.148 187.9 154.826C187.602 155.236 187.137 155.453 186.667 155.453H186.67Z" fill="#231815"/>
<path d="M134.658 155.449C134.181 155.449 133.714 155.23 133.419 154.813C132.936 154.136 133.085 153.196 133.761 152.709C133.955 152.569 138.597 149.306 144.488 152.37C145.232 152.757 145.521 153.672 145.131 154.415C144.744 155.158 143.827 155.444 143.082 155.057C138.898 152.878 135.664 155.078 135.53 155.17C135.265 155.354 134.958 155.444 134.655 155.444L134.658 155.449Z" fill="#231815"/>
<path d="M182.102 173.644C184.472 173.644 186.393 171.727 186.393 169.361C186.393 166.996 184.472 165.078 182.102 165.078C179.732 165.078 177.811 166.996 177.811 169.361C177.811 171.727 179.732 173.644 182.102 173.644Z" fill="#231815"/>
<path d="M139.22 173.644C141.59 173.644 143.511 171.727 143.511 169.361C143.511 166.996 141.59 165.078 139.22 165.078C136.85 165.078 134.929 166.996 134.929 169.361C134.929 171.727 136.85 173.644 139.22 173.644Z" fill="#231815"/>
<path d="M198.093 120.512C197.354 118.33 196.58 116.799 194.9 116.46C194.9 116.46 201.648 115.857 207.956 119.992C218.176 126.694 226.755 136.268 230.719 153.593C233.929 167.631 230.802 177.719 220.868 179.235C209.715 180.938 203.837 166.436 203.236 163.952C202.634 161.464 201.479 159.731 200.895 148.525C200.383 138.678 200.591 133.105 199.9 127.824" fill="#FEECD2"/>
<path d="M219.046 180.434C208.447 180.434 202.888 167.032 202.2 164.196C202.095 163.762 201.973 163.355 201.83 162.88C201.19 160.748 200.315 157.83 199.832 148.574C199.627 144.63 199.537 141.396 199.46 138.543C199.344 134.369 199.255 131.073 198.847 127.955C198.772 127.373 199.18 126.841 199.764 126.766C200.344 126.692 200.881 127.099 200.955 127.682C201.378 130.907 201.47 134.254 201.586 138.486C201.664 141.328 201.753 144.547 201.959 148.467C202.426 157.467 203.263 160.246 203.87 162.273C204.016 162.755 204.15 163.209 204.269 163.7C204.889 166.247 210.544 179.735 220.707 178.184C224.01 177.679 226.553 176.148 228.268 173.63C231.139 169.419 231.639 162.386 229.683 153.823C226.273 138.92 219.391 128.755 207.372 120.872C203.969 118.64 200.416 117.861 197.995 117.606C198.468 118.393 198.808 119.297 199.103 120.168C199.29 120.724 198.993 121.324 198.436 121.511C197.879 121.699 197.277 121.401 197.09 120.846C196.321 118.575 195.696 117.698 194.692 117.496C194.174 117.392 193.814 116.925 193.841 116.396C193.868 115.867 194.281 115.445 194.809 115.397C195.1 115.371 202 114.809 208.543 119.098C220.889 127.197 228.265 138.079 231.758 153.35C233.879 162.627 233.28 170.052 230.028 174.822C227.968 177.845 224.939 179.682 221.032 180.279C220.353 180.383 219.692 180.431 219.049 180.431L219.046 180.434Z" fill="#231815"/>
<path d="M123.103 119.522C123.809 117.941 124.765 116.728 126.099 116.46C126.099 116.46 119.351 115.857 113.044 119.992C102.827 126.694 94.2446 136.268 90.281 153.593C87.0708 167.631 90.1976 177.719 100.132 179.235C111.284 180.938 117.162 166.436 117.764 163.952C118.369 161.464 119.521 159.731 120.105 148.525C120.688 137.32 120.337 131.646 121.442 125.642" fill="#FEECD2"/>
<path d="M101.951 180.439C101.308 180.439 100.647 180.388 99.9678 180.287C96.0578 179.69 93.0323 177.856 90.9716 174.83C87.7197 170.056 87.1211 162.632 89.2444 153.358C92.7375 138.087 100.114 127.202 112.46 119.106C119 114.817 125.902 115.378 126.194 115.405C126.721 115.453 127.132 115.878 127.162 116.404C127.192 116.93 126.828 117.397 126.31 117.504C125.479 117.67 124.726 118.496 124.074 119.959C123.836 120.494 123.207 120.734 122.671 120.497C122.135 120.259 121.894 119.632 122.132 119.097C122.377 118.547 122.645 118.059 122.93 117.628C120.506 117.896 116.984 118.684 113.63 120.883C101.609 128.769 94.7297 138.931 91.32 153.834C89.3605 162.394 89.8638 169.429 92.7345 173.641C94.4498 176.159 96.9929 177.689 100.295 178.195C110.459 179.746 116.117 166.255 116.736 163.711C116.855 163.223 116.992 162.768 117.135 162.287C117.743 160.26 118.58 157.484 119.047 148.481C119.253 144.557 119.342 141.335 119.419 138.494C119.565 133.236 119.67 129.44 120.399 125.463C120.503 124.887 121.057 124.506 121.635 124.61C122.213 124.717 122.594 125.27 122.49 125.847C121.79 129.663 121.686 133.39 121.543 138.553C121.465 141.41 121.376 144.644 121.167 148.594C120.685 157.852 119.81 160.768 119.169 162.899C119.026 163.372 118.904 163.779 118.8 164.213C118.112 167.049 112.552 180.451 101.954 180.451L101.951 180.439Z" fill="#231815"/>
<path d="M148.901 175.503C148.416 175.503 147.96 175.211 147.77 174.733C147.522 174.109 147.829 173.404 148.455 173.161C161.787 167.92 172.308 172.967 172.748 173.184C173.35 173.482 173.597 174.207 173.299 174.807C173.001 175.408 172.275 175.654 171.673 175.36C171.542 175.298 161.614 170.593 149.345 175.417C149.199 175.473 149.047 175.503 148.901 175.503Z" fill="#EFDFA3"/>
<path d="M184.284 205.273H133.249V249.153H184.284V205.273Z" fill="#E0B581"/>
<path d="M184.285 249.98H133.249C132.788 249.98 132.413 249.605 132.413 249.145V205.265C132.413 204.804 132.788 204.43 133.249 204.43H184.285C184.746 204.43 185.121 204.804 185.121 205.265V249.145C185.121 249.605 184.746 249.98 184.285 249.98ZM134.083 248.312H183.448V206.1H134.083V248.312Z" fill="#231815"/>
<path d="M165.866 205.273H151.665V217.484H165.866V205.273Z" fill="#B28247"/>
<path d="M165.867 218.31H151.665C151.203 218.31 150.828 217.936 150.828 217.475V205.265C150.828 204.804 151.203 204.43 151.665 204.43H165.867C166.328 204.43 166.703 204.804 166.703 205.265V217.475C166.703 217.936 166.328 218.31 165.867 218.31ZM152.502 216.643H165.033V206.1H152.502V216.643Z" fill="#231815"/>
<path d="M180.288 238.883H166.086V244.988H180.288V238.883Z" fill="#B28247"/>
<path d="M180.288 245.822H166.086C165.625 245.822 165.25 245.448 165.25 244.987V238.882C165.25 238.421 165.625 238.047 166.086 238.047H180.288C180.749 238.047 181.125 238.421 181.125 238.882V244.987C181.125 245.448 180.749 245.822 180.288 245.822ZM166.92 244.152H179.451V239.714H166.92V244.152Z" fill="#231815"/>
<path d="M195.321 234.886C196.062 229.922 193.411 225.415 189.4 224.818C185.388 224.221 181.535 227.761 180.794 232.724C180.053 237.687 182.704 242.195 186.715 242.792C190.726 243.389 194.579 239.849 195.321 234.886Z" fill="#BDDDE9"/>
<path d="M187.596 243.569C187.268 243.569 186.94 243.546 186.61 243.495C182.209 242.841 179.278 237.955 180.076 232.605C180.874 227.255 185.106 223.432 189.507 224.089C193.909 224.743 196.839 229.629 196.041 234.98C195.302 239.928 191.628 243.566 187.596 243.566V243.569ZM188.513 225.468C185.192 225.468 182.143 228.589 181.512 232.822C180.83 237.381 183.212 241.527 186.821 242.065C190.431 242.6 193.921 239.331 194.603 234.771C195.284 230.212 192.902 226.066 189.293 225.528C189.034 225.489 188.772 225.471 188.513 225.471V225.468Z" fill="#211613"/>
<path d="M180.89 229.834C179.547 228.77 179.443 227.213 180.294 225.171C181.146 223.129 186.167 223.272 188.772 224.229C191.378 225.186 192.069 229.522 192.069 229.522C192.069 229.522 192.715 236.403 190.833 239.429C189.258 241.958 185.929 242.273 184.928 242.363C183.927 242.452 181.774 242.802 180.622 240.969C179.353 238.953 180.941 237.833 180.941 237.833" fill="#FEECD2"/>
<path d="M183.656 243.342C182.435 243.342 180.869 243.045 179.862 241.443C178.499 239.279 179.633 237.653 180.425 237.097C180.83 236.812 181.393 236.907 181.679 237.311C181.965 237.716 181.87 238.277 181.462 238.563C181.265 238.711 180.649 239.318 181.384 240.486C182.105 241.633 183.382 241.609 184.63 241.484L184.85 241.464C187.42 241.232 189.177 240.388 190.071 238.949C191.476 236.693 191.348 231.489 191.178 229.631C190.997 228.549 190.172 225.693 188.466 225.065C185.961 224.144 181.664 224.221 181.128 225.508C180.193 227.746 180.809 228.617 181.45 229.123C181.84 229.432 181.905 229.996 181.596 230.383C181.286 230.769 180.72 230.838 180.333 230.529C178.713 229.245 178.421 227.324 179.466 224.816C180.631 222.028 186.432 222.402 189.085 223.377C192.152 224.504 192.927 229.176 192.959 229.372C192.962 229.39 192.965 229.411 192.965 229.429C192.992 229.723 193.617 236.648 191.595 239.894C190.386 241.835 188.171 242.965 185.008 243.247L184.806 243.268C184.496 243.297 184.097 243.339 183.653 243.339L183.656 243.342Z" fill="#231815"/>
<path d="M185.562 233.656C185.562 233.656 179.88 234.539 179.782 231.451C179.707 229.114 181.208 228.529 185.741 228.618" fill="#FEECD2"/>
<path d="M183.864 234.665C182.593 234.665 180.958 234.469 179.919 233.607C179.27 233.069 178.912 232.332 178.885 231.47C178.85 230.37 179.124 229.544 179.722 228.941C180.815 227.838 182.843 227.654 185.761 227.713C186.259 227.722 186.652 228.132 186.643 228.628C186.634 229.125 186.226 229.526 185.726 229.508C183.885 229.47 181.682 229.517 181.003 230.204C180.854 230.352 180.66 230.641 180.684 231.413C180.696 231.764 180.812 232.017 181.065 232.225C181.959 232.965 184.213 232.947 185.425 232.76C185.916 232.683 186.375 233.022 186.449 233.509C186.524 233.999 186.19 234.457 185.699 234.534C185.529 234.561 184.794 234.665 183.861 234.665H183.864Z" fill="#231815"/>
<path d="M185.556 238.292C185.556 238.292 179.171 239.052 179.791 235.958C180.214 233.851 181.095 233.42 185.568 233.649" fill="#FEECD2"/>
<path d="M183.93 239.286C182.45 239.286 180.473 239.063 179.478 237.987C179.1 237.577 178.692 236.864 178.909 235.785C179.517 232.762 181.42 232.539 185.616 232.756C186.113 232.783 186.494 233.205 186.467 233.698C186.44 234.195 186.021 234.566 185.523 234.549C181.042 234.317 180.94 234.813 180.672 236.139C180.601 236.495 180.696 236.659 180.797 236.769C181.473 237.5 183.972 237.58 185.446 237.405C185.937 237.345 186.387 237.696 186.446 238.19C186.506 238.683 186.152 239.129 185.66 239.188C185.392 239.221 184.734 239.286 183.927 239.286H183.93Z" fill="#231815"/>
<path d="M131.781 241.971C135.79 241.355 138.419 236.835 137.654 231.875C136.89 226.916 133.02 223.394 129.011 224.01C125.003 224.626 122.373 229.146 123.138 234.106C123.903 239.065 127.773 242.587 131.781 241.971Z" fill="#BDDDE9"/>
<path d="M130.864 242.765C126.847 242.765 123.172 239.148 122.41 234.217C121.585 228.869 124.494 223.971 128.893 223.296C133.291 222.622 137.538 226.42 138.362 231.767C139.187 237.115 136.278 242.013 131.88 242.688C131.54 242.741 131.201 242.765 130.864 242.765ZM129.113 224.729C125.507 225.282 123.142 229.44 123.845 233.997C124.548 238.553 128.053 241.808 131.659 241.255C135.265 240.702 137.63 236.544 136.927 231.987C136.224 227.431 132.719 224.176 129.113 224.729Z" fill="#211613"/>
<path d="M137.529 228.231C138.869 227.16 138.964 225.603 138.1 223.564C137.24 221.525 132.219 221.694 129.616 222.663C127.014 223.632 126.344 227.972 126.344 227.972C126.344 227.972 125.727 234.856 127.627 237.873C129.214 240.393 132.546 240.693 133.544 240.779C134.545 240.866 136.698 241.205 137.844 239.365C139.104 237.344 137.511 236.232 137.511 236.232" fill="#FEECD2"/>
<path d="M134.792 241.756C134.36 241.756 133.976 241.72 133.675 241.69L133.472 241.673C130.31 241.405 128.088 240.284 126.867 238.35C124.831 235.113 125.423 228.184 125.45 227.89C125.45 227.872 125.453 227.851 125.456 227.834C125.486 227.634 126.242 222.959 129.303 221.821C131.954 220.834 137.755 220.43 138.931 223.215C139.988 225.717 139.705 227.64 138.091 228.93C137.704 229.24 137.138 229.177 136.826 228.791C136.516 228.404 136.578 227.84 136.966 227.527C137.603 227.016 138.216 226.145 137.272 223.91C136.73 222.623 132.433 222.57 129.932 223.5C128.225 224.136 127.415 226.992 127.24 228.08C127.079 229.941 126.978 235.145 128.392 237.395C129.294 238.828 131.054 239.666 133.624 239.883L133.845 239.904C135.092 240.023 136.37 240.041 137.085 238.891C137.817 237.716 137.195 237.116 136.986 236.959C136.578 236.673 136.486 236.12 136.772 235.713C137.058 235.306 137.624 235.211 138.032 235.496C138.824 236.049 139.967 237.669 138.615 239.839C137.606 241.459 136.022 241.756 134.795 241.756H134.792Z" fill="#231815"/>
<path d="M132.678 231.884C132.678 231.884 138.362 232.74 138.446 229.652C138.508 227.316 137.004 226.736 132.475 226.849" fill="#FEECD2"/>
<path d="M134.321 232.893C133.419 232.893 132.707 232.795 132.54 232.771C132.049 232.697 131.712 232.239 131.784 231.748C131.858 231.258 132.317 230.922 132.805 230.993C134.02 231.175 136.275 231.181 137.165 230.438C137.418 230.227 137.534 229.974 137.543 229.623C137.564 228.85 137.368 228.562 137.222 228.414C136.537 227.73 134.336 227.694 132.496 227.739C132.487 227.739 132.481 227.739 132.472 227.739C131.986 227.739 131.584 227.352 131.573 226.862C131.561 226.366 131.954 225.955 132.448 225.944C135.366 225.872 137.394 226.048 138.493 227.144C139.095 227.745 139.372 228.571 139.342 229.668C139.318 230.53 138.964 231.27 138.317 231.811C137.263 232.691 135.599 232.887 134.318 232.887L134.321 232.893Z" fill="#231815"/>
<path d="M132.704 236.519C132.704 236.519 139.095 237.25 138.457 234.159C138.023 232.052 137.141 231.627 132.668 231.876" fill="#FEECD2"/>
<path d="M134.268 237.505C133.494 237.505 132.865 237.442 132.603 237.413C132.109 237.356 131.757 236.91 131.811 236.42C131.868 235.926 132.311 235.579 132.806 235.629C134.327 235.802 136.775 235.712 137.454 234.972C137.555 234.859 137.651 234.699 137.576 234.342C137.302 233.02 137.201 232.523 132.719 232.776C132.228 232.806 131.799 232.425 131.772 231.929C131.746 231.432 132.124 231.01 132.621 230.983C136.817 230.749 138.72 230.963 139.342 233.983C139.563 235.058 139.161 235.778 138.782 236.188C137.779 237.282 135.754 237.508 134.271 237.508L134.268 237.505Z" fill="#231815"/>
<path d="M161.593 113.71C163.353 109.543 169.067 105.156 171.929 107.453C172.757 108.119 171.268 112.631 167.23 115.419" fill="#FEECD2"/>
<path d="M167.23 116.468C166.897 116.468 166.572 116.311 166.367 116.016C166.039 115.541 166.155 114.89 166.632 114.563C169.809 112.369 171.14 109.1 171.107 108.155C170.607 107.84 169.949 107.783 169.145 107.988C166.718 108.601 163.701 111.406 162.555 114.12C162.332 114.652 161.718 114.902 161.185 114.679C160.652 114.456 160.402 113.841 160.625 113.309C162.037 109.965 165.554 106.74 168.633 105.964C170.178 105.575 171.545 105.81 172.584 106.645C172.879 106.883 173.228 107.358 173.195 108.268C173.129 110.105 171.417 113.805 167.826 116.287C167.644 116.412 167.436 116.471 167.23 116.471V116.468Z" fill="#231815"/>
<path d="M153.597 113.52C154.297 107.115 161.396 98.7839 164.892 100.208C166.22 100.749 165.515 109.252 161.369 114.415" fill="#FEECD2"/>
<path d="M161.367 115.457C161.137 115.457 160.905 115.383 160.712 115.228C160.262 114.868 160.187 114.209 160.551 113.76C164.169 109.254 164.806 102.45 164.315 101.119C163.8 101.009 163.067 101.217 162.221 101.719C159.047 103.606 155.131 109.102 154.637 113.629C154.574 114.203 154.056 114.619 153.481 114.553C152.906 114.491 152.49 113.974 152.552 113.4C153.127 108.127 157.543 102.064 161.146 99.9209C163.103 98.7587 164.476 98.9073 165.283 99.2343C165.801 99.4453 166.161 99.9298 166.355 100.676C167.072 103.443 165.774 110.591 162.18 115.065C161.974 115.323 161.667 115.457 161.361 115.457H161.367Z" fill="#231815"/>
</g>
</g>
<g filter="url(#filter0_d_1832_194463)">
<path d="M98 142H37C20.9837 142 8 129.016 8 113C8 96.9837 20.9837 84 37 84H129C145.016 84 158 96.9837 158 113C158 129.016 145.016 142 129 142H110V146.263C110 147.86 108.22 148.813 106.891 147.927L98 142Z" fill="#16408D"/>
</g>
<path d="M139.698 118.031V127.611H137.823V118.031H139.698ZM140.05 129.618V131.112H130.763V126.645H132.652V129.618H140.05ZM132.389 118.881C134.439 118.881 136.036 120.287 136.036 122.235C136.036 124.228 134.439 125.619 132.389 125.619C130.338 125.619 128.741 124.228 128.741 122.235C128.741 120.287 130.338 118.881 132.389 118.881ZM132.389 120.507C131.349 120.492 130.558 121.151 130.572 122.235C130.558 123.349 131.349 123.993 132.389 123.993C133.399 123.993 134.19 123.349 134.19 122.235C134.19 121.151 133.399 120.492 132.389 120.507Z" fill="white"/>
<path d="M126.236 118.031V121.84H127.936V123.378H126.236V127.084H124.361V118.031H126.236ZM115.426 125.37C116.4 125.37 117.513 125.37 118.663 125.341V124.594C117.213 124.389 116.305 123.686 116.319 122.66C116.305 121.43 117.608 120.668 119.586 120.668C121.549 120.668 122.838 121.43 122.853 122.66C122.838 123.686 121.952 124.381 120.523 124.579V125.268C121.622 125.224 122.713 125.136 123.746 125.004L123.878 126.293C121.065 126.791 117.975 126.82 115.616 126.82L115.426 125.37ZM126.236 127.626V131.347H124.361V129.062H117.125V127.626H126.236ZM123.409 118.998V120.36H115.777V118.998H118.663V117.914H120.523V118.998H123.409ZM119.586 121.913C118.634 121.913 118.092 122.147 118.106 122.66C118.092 123.144 118.634 123.422 119.586 123.422C120.523 123.422 121.051 123.144 121.065 122.66C121.051 122.147 120.523 121.913 119.586 121.913Z" fill="white"/>
<path d="M109.523 126.497V131.346H107.662V127.962H100.367V126.497H109.523ZM109.523 118.016V125.896H107.662V124.212H104.674C104.037 124.9 103.092 125.311 102.008 125.311C99.9864 125.311 98.4483 123.919 98.463 121.985C98.4483 120.096 99.9864 118.719 102.008 118.733C103.092 118.726 104.037 119.129 104.674 119.803H107.662V118.016H109.523ZM102.008 120.301C100.968 120.301 100.221 120.945 100.235 121.985C100.221 123.084 100.968 123.714 102.008 123.714C102.989 123.714 103.751 123.084 103.751 121.985C103.751 120.945 102.989 120.301 102.008 120.301ZM105.45 122.718H107.662V121.312H105.465C105.502 121.524 105.524 121.751 105.524 121.985C105.524 122.242 105.494 122.483 105.45 122.718Z" fill="white"/>
<path d="M96.8223 118.016V131.346H95.0205V124.681H93.7754V130.701H92.0176V118.235H93.7754V123.172H95.0205V118.016H96.8223ZM87.7402 119.495V126.453C88.8096 126.431 89.9814 126.336 91.2705 126.087L91.4609 127.698C89.6738 128.006 88.1504 128.094 86.7734 128.094H85.8652V119.495H87.7402Z" fill="white"/>
<path d="M79.8301 118.982V119.817C79.8301 120.74 79.8301 122.073 79.5225 123.729L77.6914 123.553C77.9258 122.271 77.9844 121.304 77.999 120.506H72.9746V118.982H79.8301ZM76.5195 122.059V124.607C77.8452 124.556 79.2075 124.454 80.46 124.271L80.5625 125.618C77.7939 126.131 74.6592 126.175 72.3447 126.189L72.1836 124.695C72.9307 124.695 73.7729 124.695 74.6592 124.666V122.059H76.5195ZM83.0967 118.016V122.073H84.708V123.641H83.0967V127.991H81.1777V118.016H83.0967ZM83.5068 129.617V131.111H74.1465V127.098H76.0215V129.617H83.5068Z" fill="white"/>
<path d="M71.5537 124.892V126.356H59.3662V124.892H64.5225V124.071H60.8896V118.344H70.1328V119.779H62.7646V120.526H69.8252V121.874H62.7646V122.636H70.25V124.071H66.3975V124.892H71.5537ZM65.46 126.972C68.4043 126.957 70.0889 127.748 70.1035 129.154C70.0889 130.59 68.4043 131.352 65.46 131.352C62.4717 131.352 60.7871 130.59 60.7871 129.154C60.7871 127.748 62.4717 126.957 65.46 126.972ZM65.46 128.349C63.541 128.349 62.6475 128.598 62.6621 129.154C62.6475 129.726 63.541 129.975 65.46 129.975C67.335 129.975 68.2139 129.726 68.2285 129.154C68.2139 128.598 67.335 128.349 65.46 128.349Z" fill="white"/>
<path d="M140.694 101.257V102.736H135.538V103.879H139.244V108.2H129.942V103.879H133.678V102.736H128.536V101.257H140.694ZM139.61 95.3828V96.877H137.867V98.9131H139.522V100.407H129.693V98.9131H131.334V96.877H129.605V95.3828H139.61ZM131.788 105.329V106.706H137.413V105.329H131.788ZM133.209 98.9131H135.992V96.877H133.209V98.9131Z" fill="white"/>
<path d="M127.73 100.306V101.785H122.574V102.635H126.251V106.048H118.824V106.854H126.603V108.26H116.993V104.729H124.405V104.041H116.979V102.635H120.699V101.785H115.572V100.306H127.73ZM126.192 95.3984V99.6025H117.081V95.3984H126.192ZM118.912 96.8486V98.167H124.332V96.8486H118.912Z" fill="white"/>
<path d="M109.024 95.7969V96.998C109.024 98.2432 109.024 99.6055 108.688 101.466H110.445V102.975H105.245V108.365H103.37V102.975H98.2871V101.466H106.798C107.135 99.7446 107.164 98.4409 107.164 97.291H99.6787V95.7969H109.024Z" fill="white"/>
<path d="M96.4854 95.0156V103.043H94.6104V95.0156H96.4854ZM96.4854 103.629V108.346H94.6104V105.123H87.3154V103.629H96.4854ZM93.2041 95.792V97.2861H90.5234C90.5381 98.8462 91.5195 100.487 93.7021 101.139L92.75 102.589C91.2559 102.127 90.2012 101.168 89.6006 99.9521C88.9927 101.271 87.9087 102.318 86.3486 102.838L85.3818 101.388C87.5791 100.677 88.6045 98.9487 88.6191 97.2861H85.8799V95.792H93.2041Z" fill="white"/>
<path d="M76.6807 95.8066C78.79 95.8066 80.3721 97.1543 80.3721 99.0732C80.3721 100.699 79.2368 101.915 77.6035 102.252V104.039C78.7314 103.98 79.8667 103.878 80.9434 103.731L81.0898 105.079C78.1309 105.636 74.9668 105.665 72.6377 105.665L72.418 104.156C73.3994 104.156 74.542 104.149 75.7432 104.112V102.237C74.1172 101.908 72.9746 100.692 72.9746 99.0732C72.9746 97.1543 74.5713 95.8066 76.6807 95.8066ZM76.6807 97.4033C75.626 97.4033 74.8203 98.0039 74.835 99.0732C74.8203 100.113 75.626 100.743 76.6807 100.743C77.75 100.743 78.541 100.113 78.5557 99.0732C78.541 98.0039 77.7354 97.4033 76.6807 97.4033ZM83.5654 95.0156V108.375H81.7051V95.0156H83.5654Z" fill="white"/>
<path d="M65.8262 97.0518V98.5312H59.3809V97.0518H61.6953V95.3818H63.541V97.0518H65.8262ZM62.6328 99.1318C64.332 99.1318 65.5479 100.45 65.5625 102.296C65.5479 104.156 64.332 105.475 62.6328 105.475C60.9336 105.475 59.6885 104.156 59.6885 102.296C59.6885 100.45 60.9336 99.1318 62.6328 99.1318ZM62.6328 100.685C61.8564 100.685 61.3291 101.285 61.3291 102.296C61.3291 103.307 61.8564 103.893 62.6328 103.893C63.3799 103.893 63.9072 103.307 63.9219 102.296C63.9072 101.285 63.3799 100.685 62.6328 100.685ZM70.9238 95.0156V108.346H69.1514V101.93H68.0674V107.774H66.3242V95.2793H68.0674V100.436H69.1514V95.0156H70.9238Z" fill="white"/>
<circle cx="36.9999" cy="112.993" r="13.993" fill="white"/>
<g clip-path="url(#clip2_1832_194463)">
<path d="M35.1761 118.554C34.7688 118.554 34.378 118.4 34.0901 118.126L30.8069 115C30.4537 114.664 30.4537 114.118 30.8069 113.782C31.1604 113.445 31.733 113.445 32.0865 113.782L35.1761 116.724L43.3493 108.94C43.7028 108.603 44.2755 108.603 44.6289 108.94C44.9821 109.276 44.9821 109.822 44.6289 110.158L36.262 118.126C35.9741 118.4 35.5834 118.554 35.1761 118.554Z" fill="#16408D"/>
</g>
<defs>
<filter id="filter0_d_1832_194463" x="0" y="76" width="182" height="96.2656" filterUnits="userSpaceOnUse" color-interpolation-filters="sRGB">
<feFlood flood-opacity="0" result="BackgroundImageFix"/>
<feColorMatrix in="SourceAlpha" type="matrix" values="0 0 0 0 0 0 0 0 0 0 0 0 0 0 0 0 0 0 127 0" result="hardAlpha"/>
<feOffset dx="8" dy="8"/>
<feGaussianBlur stdDeviation="8"/>
<feComposite in2="hardAlpha" operator="out"/>
<feColorMatrix type="matrix" values="0 0 0 0 0 0 0 0 0 0 0 0 0 0 0 0 0 0 0.24 0"/>
<feBlend mode="normal" in2="BackgroundImageFix" result="effect1_dropShadow_1832_194463"/>
<feBlend mode="normal" in="SourceGraphic" in2="effect1_dropShadow_1832_194463" result="shape"/>
</filter>
<linearGradient id="paint0_linear_1832_194463" x1="160.359" y1="8.84375" x2="160.359" y2="260.001" gradientUnits="userSpaceOnUse">
<stop stop-color="#A7C4F7" stop-opacity="0"/>
<stop offset="1" stop-color="#A7C4F7"/>
</linearGradient>
<radialGradient id="paint1_radial_1832_194463" cx="0" cy="0" r="1" gradientUnits="userSpaceOnUse" gradientTransform="translate(161 228) rotate(90) scale(100)">
<stop stop-color="#16408D"/>
<stop offset="1" stop-color="#5089EF"/>
</radialGradient>
<clipPath id="clip0_1832_194463">
<rect width="16" height="18" fill="white" transform="translate(85 27)"/>
</clipPath>
<clipPath id="clip1_1832_194463">
<rect width="145" height="190" fill="white" transform="translate(88 99)"/>
</clipPath>
<clipPath id="clip2_1832_194463">
<rect width="14.3518" height="9.86689" fill="white" transform="translate(30.542 108.688)"/>
</clipPath>
</defs>
</svg>
