<svg width="20" height="20" viewBox="0 0 20 20" fill="none" xmlns="http://www.w3.org/2000/svg">
<g clip-path="url(#clip0_3195_181483)">
<path d="M2.49927 5.49262C1.67146 5.49262 1 6.1641 1 6.99273V13.0034C1 13.8317 1.6711 14.5035 2.49927 14.5035H4.59796L9.99491 19.0004V1L4.59796 5.49262H2.49927ZM8.49564 4.20098V15.7966L5.14117 13.0052H2.49927V6.99449H5.14152L8.49599 4.20063L8.49564 4.20098Z" fill="#2D2D2D"/>
<path d="M11.7331 6.22996C12.0399 5.92331 12.5375 5.92338 12.8444 6.22996L15.2507 8.63524L17.6569 6.23192C17.9638 5.92521 18.4614 5.92521 18.7682 6.23192C19.0747 6.53864 19.0749 7.03568 18.7682 7.34227L16.362 9.74657L18.7712 12.1538C19.0779 12.4604 19.0778 12.9574 18.7712 13.2641C18.4643 13.5709 17.9667 13.5709 17.6598 13.2641L15.2507 10.8569L12.8415 13.2661C12.5347 13.5726 12.037 13.5726 11.7301 13.2661C11.4233 12.9594 11.4233 12.4615 11.7301 12.1548L14.1393 9.74657L11.7331 7.34129C11.4262 7.03458 11.4262 6.53667 11.7331 6.22996Z" fill="#2D2D2D"/>
</g>
<defs>
<clipPath id="clip0_3195_181483">
<rect width="18" height="18" fill="white" transform="translate(1 1)"/>
</clipPath>
</defs>
</svg>
