<svg width="20" height="15" viewBox="0 0 20 15" fill="none" xmlns="http://www.w3.org/2000/svg">
<path d="M10 3.06517e-10C10 3.06517e-10 16.254 -0.000248689 17.8135 0.447266C18.6737 0.694033 19.3525 1.42006 19.582 2.3418C20.0002 4.01357 20 7.5 20 7.5C20 7.50102 20.0002 10.9879 19.582 12.6582C19.3525 13.5799 18.6737 14.306 17.8135 14.5527C16.254 15.0002 10 15 10 15C9.99842 15 3.74694 15.0002 2.18652 14.5527C1.32632 14.306 0.647534 13.5799 0.417969 12.6582C-0.000151952 10.9867 9.15722e-09 7.50102 2.20863e-10 7.5C2.20863e-10 7.5 -0.000213088 4.01357 0.417969 2.3418C0.647534 1.42006 1.32632 0.694033 2.18652 0.447266C3.7458 -0.000192271 9.99842 7.41473e-09 10 3.06517e-10ZM8 10L13 7.5L8 5V10Z" fill="black"/>
</svg>
